%TF.GenerationSoftware,KiCad,Pcbnew,(6.0.9)*%
%TF.CreationDate,2023-01-04T20:05:15-05:00*%
%TF.ProjectId,Hardware-TinyPicoLoRaTrailer,48617264-7761-4726-952d-54696e795069,rev?*%
%TF.SameCoordinates,Original*%
%TF.FileFunction,Legend,Top*%
%TF.FilePolarity,Positive*%
%FSLAX46Y46*%
G04 Gerber Fmt 4.6, Leading zero omitted, Abs format (unit mm)*
G04 Created by KiCad (PCBNEW (6.0.9)) date 2023-01-04 20:05:15*
%MOMM*%
%LPD*%
G01*
G04 APERTURE LIST*
G04 Aperture macros list*
%AMRoundRect*
0 Rectangle with rounded corners*
0 $1 Rounding radius*
0 $2 $3 $4 $5 $6 $7 $8 $9 X,Y pos of 4 corners*
0 Add a 4 corners polygon primitive as box body*
4,1,4,$2,$3,$4,$5,$6,$7,$8,$9,$2,$3,0*
0 Add four circle primitives for the rounded corners*
1,1,$1+$1,$2,$3*
1,1,$1+$1,$4,$5*
1,1,$1+$1,$6,$7*
1,1,$1+$1,$8,$9*
0 Add four rect primitives between the rounded corners*
20,1,$1+$1,$2,$3,$4,$5,0*
20,1,$1+$1,$4,$5,$6,$7,0*
20,1,$1+$1,$6,$7,$8,$9,0*
20,1,$1+$1,$8,$9,$2,$3,0*%
G04 Aperture macros list end*
%ADD10C,0.300000*%
%ADD11C,0.150000*%
%ADD12C,0.120000*%
%ADD13C,0.100000*%
%ADD14R,2.600000X2.600000*%
%ADD15C,2.600000*%
%ADD16O,1.524000X2.000000*%
%ADD17R,2.200000X1.050000*%
%ADD18R,1.050000X1.000000*%
%ADD19RoundRect,0.150000X-0.587500X-0.150000X0.587500X-0.150000X0.587500X0.150000X-0.587500X0.150000X0*%
%ADD20RoundRect,0.250000X0.425000X-0.537500X0.425000X0.537500X-0.425000X0.537500X-0.425000X-0.537500X0*%
%ADD21RoundRect,0.250000X-0.625000X0.400000X-0.625000X-0.400000X0.625000X-0.400000X0.625000X0.400000X0*%
%ADD22RoundRect,0.250000X-0.650000X0.412500X-0.650000X-0.412500X0.650000X-0.412500X0.650000X0.412500X0*%
%ADD23C,3.000000*%
%ADD24C,2.500000*%
%ADD25RoundRect,0.250000X-0.400000X-0.625000X0.400000X-0.625000X0.400000X0.625000X-0.400000X0.625000X0*%
%ADD26RoundRect,0.250000X-0.412500X-0.650000X0.412500X-0.650000X0.412500X0.650000X-0.412500X0.650000X0*%
%ADD27RoundRect,0.250000X0.412500X0.650000X-0.412500X0.650000X-0.412500X-0.650000X0.412500X-0.650000X0*%
%ADD28R,3.500000X1.800000*%
%ADD29RoundRect,0.075000X-0.075000X0.650000X-0.075000X-0.650000X0.075000X-0.650000X0.075000X0.650000X0*%
%ADD30RoundRect,0.250000X0.537500X0.425000X-0.537500X0.425000X-0.537500X-0.425000X0.537500X-0.425000X0*%
%ADD31R,2.000000X1.000000*%
%ADD32R,1.000000X1.000000*%
%ADD33RoundRect,0.250000X0.400000X0.625000X-0.400000X0.625000X-0.400000X-0.625000X0.400000X-0.625000X0*%
%ADD34RoundRect,0.250000X0.625000X-0.400000X0.625000X0.400000X-0.625000X0.400000X-0.625000X-0.400000X0*%
%ADD35RoundRect,0.150000X0.587500X0.150000X-0.587500X0.150000X-0.587500X-0.150000X0.587500X-0.150000X0*%
%ADD36R,1.560000X0.650000*%
G04 APERTURE END LIST*
D10*
X135806428Y-132428571D02*
X136306428Y-133928571D01*
X136806428Y-132428571D01*
X137306428Y-133357142D02*
X138449285Y-133357142D01*
X139663571Y-133142857D02*
X139877857Y-133214285D01*
X139949285Y-133285714D01*
X140020714Y-133428571D01*
X140020714Y-133642857D01*
X139949285Y-133785714D01*
X139877857Y-133857142D01*
X139735000Y-133928571D01*
X139163571Y-133928571D01*
X139163571Y-132428571D01*
X139663571Y-132428571D01*
X139806428Y-132500000D01*
X139877857Y-132571428D01*
X139949285Y-132714285D01*
X139949285Y-132857142D01*
X139877857Y-133000000D01*
X139806428Y-133071428D01*
X139663571Y-133142857D01*
X139163571Y-133142857D01*
X140663571Y-132428571D02*
X140663571Y-133642857D01*
X140735000Y-133785714D01*
X140806428Y-133857142D01*
X140949285Y-133928571D01*
X141235000Y-133928571D01*
X141377857Y-133857142D01*
X141449285Y-133785714D01*
X141520714Y-133642857D01*
X141520714Y-132428571D01*
X142163571Y-133857142D02*
X142377857Y-133928571D01*
X142735000Y-133928571D01*
X142877857Y-133857142D01*
X142949285Y-133785714D01*
X143020714Y-133642857D01*
X143020714Y-133500000D01*
X142949285Y-133357142D01*
X142877857Y-133285714D01*
X142735000Y-133214285D01*
X142449285Y-133142857D01*
X142306428Y-133071428D01*
X142235000Y-133000000D01*
X142163571Y-132857142D01*
X142163571Y-132714285D01*
X142235000Y-132571428D01*
X142306428Y-132500000D01*
X142449285Y-132428571D01*
X142806428Y-132428571D01*
X143020714Y-132500000D01*
X135928095Y-119642857D02*
X137451904Y-119642857D01*
X136690000Y-120404761D02*
X136690000Y-118880952D01*
X141178095Y-119642857D02*
X142701904Y-119642857D01*
D11*
X70250000Y-103964285D02*
X70345238Y-104059523D01*
X70250000Y-104154761D01*
X70154761Y-104059523D01*
X70250000Y-103964285D01*
X70250000Y-104154761D01*
X82500000Y-103964285D02*
X82595238Y-104059523D01*
X82500000Y-104154761D01*
X82404761Y-104059523D01*
X82500000Y-103964285D01*
X82500000Y-104154761D01*
X95250000Y-103714285D02*
X95345238Y-103809523D01*
X95250000Y-103904761D01*
X95154761Y-103809523D01*
X95250000Y-103714285D01*
X95250000Y-103904761D01*
D10*
X61285714Y-133678571D02*
X61285714Y-132178571D01*
X61642857Y-132178571D01*
X61857142Y-132250000D01*
X62000000Y-132392857D01*
X62071428Y-132535714D01*
X62142857Y-132821428D01*
X62142857Y-133035714D01*
X62071428Y-133321428D01*
X62000000Y-133464285D01*
X61857142Y-133607142D01*
X61642857Y-133678571D01*
X61285714Y-133678571D01*
X63642857Y-133535714D02*
X63571428Y-133607142D01*
X63357142Y-133678571D01*
X63214285Y-133678571D01*
X63000000Y-133607142D01*
X62857142Y-133464285D01*
X62785714Y-133321428D01*
X62714285Y-133035714D01*
X62714285Y-132821428D01*
X62785714Y-132535714D01*
X62857142Y-132392857D01*
X63000000Y-132250000D01*
X63214285Y-132178571D01*
X63357142Y-132178571D01*
X63571428Y-132250000D01*
X63642857Y-132321428D01*
X66142857Y-133678571D02*
X65428571Y-133678571D01*
X65428571Y-132178571D01*
X66857142Y-133678571D02*
X66714285Y-133607142D01*
X66642857Y-133535714D01*
X66571428Y-133392857D01*
X66571428Y-132964285D01*
X66642857Y-132821428D01*
X66714285Y-132750000D01*
X66857142Y-132678571D01*
X67071428Y-132678571D01*
X67214285Y-132750000D01*
X67285714Y-132821428D01*
X67357142Y-132964285D01*
X67357142Y-133392857D01*
X67285714Y-133535714D01*
X67214285Y-133607142D01*
X67071428Y-133678571D01*
X66857142Y-133678571D01*
X68642857Y-133678571D02*
X68642857Y-132892857D01*
X68571428Y-132750000D01*
X68428571Y-132678571D01*
X68142857Y-132678571D01*
X68000000Y-132750000D01*
X68642857Y-133607142D02*
X68500000Y-133678571D01*
X68142857Y-133678571D01*
X68000000Y-133607142D01*
X67928571Y-133464285D01*
X67928571Y-133321428D01*
X68000000Y-133178571D01*
X68142857Y-133107142D01*
X68500000Y-133107142D01*
X68642857Y-133035714D01*
X70000000Y-133678571D02*
X70000000Y-132178571D01*
X70000000Y-133607142D02*
X69857142Y-133678571D01*
X69571428Y-133678571D01*
X69428571Y-133607142D01*
X69357142Y-133535714D01*
X69285714Y-133392857D01*
X69285714Y-132964285D01*
X69357142Y-132821428D01*
X69428571Y-132750000D01*
X69571428Y-132678571D01*
X69857142Y-132678571D01*
X70000000Y-132750000D01*
X70642857Y-133607142D02*
X70785714Y-133678571D01*
X71071428Y-133678571D01*
X71214285Y-133607142D01*
X71285714Y-133464285D01*
X71285714Y-133392857D01*
X71214285Y-133250000D01*
X71071428Y-133178571D01*
X70857142Y-133178571D01*
X70714285Y-133107142D01*
X70642857Y-132964285D01*
X70642857Y-132892857D01*
X70714285Y-132750000D01*
X70857142Y-132678571D01*
X71071428Y-132678571D01*
X71214285Y-132750000D01*
X101321428Y-133142857D02*
X100821428Y-133142857D01*
X100821428Y-133928571D02*
X100821428Y-132428571D01*
X101535714Y-132428571D01*
X101964285Y-132428571D02*
X102964285Y-133928571D01*
X102964285Y-132428571D02*
X101964285Y-133928571D01*
X105464285Y-132500000D02*
X105321428Y-132428571D01*
X105107142Y-132428571D01*
X104892857Y-132500000D01*
X104750000Y-132642857D01*
X104678571Y-132785714D01*
X104607142Y-133071428D01*
X104607142Y-133285714D01*
X104678571Y-133571428D01*
X104750000Y-133714285D01*
X104892857Y-133857142D01*
X105107142Y-133928571D01*
X105250000Y-133928571D01*
X105464285Y-133857142D01*
X105535714Y-133785714D01*
X105535714Y-133285714D01*
X105250000Y-133285714D01*
X106178571Y-133142857D02*
X106678571Y-133142857D01*
X106892857Y-133928571D02*
X106178571Y-133928571D01*
X106178571Y-132428571D01*
X106892857Y-132428571D01*
X107535714Y-133928571D02*
X107535714Y-132428571D01*
X108392857Y-133928571D01*
X108392857Y-132428571D01*
X111107142Y-133928571D02*
X110607142Y-133214285D01*
X110250000Y-133928571D02*
X110250000Y-132428571D01*
X110821428Y-132428571D01*
X110964285Y-132500000D01*
X111035714Y-132571428D01*
X111107142Y-132714285D01*
X111107142Y-132928571D01*
X111035714Y-133071428D01*
X110964285Y-133142857D01*
X110821428Y-133214285D01*
X110250000Y-133214285D01*
X111750000Y-133142857D02*
X112250000Y-133142857D01*
X112464285Y-133928571D02*
X111750000Y-133928571D01*
X111750000Y-132428571D01*
X112464285Y-132428571D01*
X113821428Y-133928571D02*
X113107142Y-133928571D01*
X113107142Y-132428571D01*
X114250000Y-133500000D02*
X114964285Y-133500000D01*
X114107142Y-133928571D02*
X114607142Y-132428571D01*
X115107142Y-133928571D01*
X115892857Y-133214285D02*
X115892857Y-133928571D01*
X115392857Y-132428571D02*
X115892857Y-133214285D01*
X116392857Y-132428571D01*
X69107142Y-120142857D02*
X69178571Y-119928571D01*
X69178571Y-119571428D01*
X69107142Y-119428571D01*
X69035714Y-119357142D01*
X68892857Y-119285714D01*
X68750000Y-119285714D01*
X68607142Y-119357142D01*
X68535714Y-119428571D01*
X68464285Y-119571428D01*
X68392857Y-119857142D01*
X68321428Y-120000000D01*
X68250000Y-120071428D01*
X68107142Y-120142857D01*
X67964285Y-120142857D01*
X67821428Y-120071428D01*
X67750000Y-120000000D01*
X67678571Y-119857142D01*
X67678571Y-119500000D01*
X67750000Y-119285714D01*
X69178571Y-118642857D02*
X67678571Y-118642857D01*
X69178571Y-118000000D02*
X68392857Y-118000000D01*
X68250000Y-118071428D01*
X68178571Y-118214285D01*
X68178571Y-118428571D01*
X68250000Y-118571428D01*
X68321428Y-118642857D01*
X68178571Y-116642857D02*
X69178571Y-116642857D01*
X68178571Y-117285714D02*
X68964285Y-117285714D01*
X69107142Y-117214285D01*
X69178571Y-117071428D01*
X69178571Y-116857142D01*
X69107142Y-116714285D01*
X69035714Y-116642857D01*
X68178571Y-115928571D02*
X69178571Y-115928571D01*
X68321428Y-115928571D02*
X68250000Y-115857142D01*
X68178571Y-115714285D01*
X68178571Y-115500000D01*
X68250000Y-115357142D01*
X68392857Y-115285714D01*
X69178571Y-115285714D01*
X68178571Y-114785714D02*
X68178571Y-114214285D01*
X67678571Y-114571428D02*
X68964285Y-114571428D01*
X69107142Y-114500000D01*
X69178571Y-114357142D01*
X69178571Y-114214285D01*
X68607142Y-112571428D02*
X68607142Y-111428571D01*
X69178571Y-112000000D02*
X68035714Y-112000000D01*
X119107142Y-132500000D02*
X118964285Y-132428571D01*
X118750000Y-132428571D01*
X118535714Y-132500000D01*
X118392857Y-132642857D01*
X118321428Y-132785714D01*
X118250000Y-133071428D01*
X118250000Y-133285714D01*
X118321428Y-133571428D01*
X118392857Y-133714285D01*
X118535714Y-133857142D01*
X118750000Y-133928571D01*
X118892857Y-133928571D01*
X119107142Y-133857142D01*
X119178571Y-133785714D01*
X119178571Y-133285714D01*
X118892857Y-133285714D01*
X119821428Y-133142857D02*
X120321428Y-133142857D01*
X120535714Y-133928571D02*
X119821428Y-133928571D01*
X119821428Y-132428571D01*
X120535714Y-132428571D01*
X121178571Y-133928571D02*
X121178571Y-132428571D01*
X122035714Y-133928571D01*
X122035714Y-132428571D01*
X123821428Y-133857142D02*
X124035714Y-133928571D01*
X124392857Y-133928571D01*
X124535714Y-133857142D01*
X124607142Y-133785714D01*
X124678571Y-133642857D01*
X124678571Y-133500000D01*
X124607142Y-133357142D01*
X124535714Y-133285714D01*
X124392857Y-133214285D01*
X124107142Y-133142857D01*
X123964285Y-133071428D01*
X123892857Y-133000000D01*
X123821428Y-132857142D01*
X123821428Y-132714285D01*
X123892857Y-132571428D01*
X123964285Y-132500000D01*
X124107142Y-132428571D01*
X124464285Y-132428571D01*
X124678571Y-132500000D01*
X125107142Y-132428571D02*
X125964285Y-132428571D01*
X125535714Y-133928571D02*
X125535714Y-132428571D01*
X126392857Y-133500000D02*
X127107142Y-133500000D01*
X126250000Y-133928571D02*
X126750000Y-132428571D01*
X127250000Y-133928571D01*
X128607142Y-133928571D02*
X128107142Y-133214285D01*
X127750000Y-133928571D02*
X127750000Y-132428571D01*
X128321428Y-132428571D01*
X128464285Y-132500000D01*
X128535714Y-132571428D01*
X128607142Y-132714285D01*
X128607142Y-132928571D01*
X128535714Y-133071428D01*
X128464285Y-133142857D01*
X128321428Y-133214285D01*
X127750000Y-133214285D01*
X129035714Y-132428571D02*
X129892857Y-132428571D01*
X129464285Y-133928571D02*
X129464285Y-132428571D01*
X89652142Y-120337857D02*
X89723571Y-120123571D01*
X89723571Y-119766428D01*
X89652142Y-119623571D01*
X89580714Y-119552142D01*
X89437857Y-119480714D01*
X89295000Y-119480714D01*
X89152142Y-119552142D01*
X89080714Y-119623571D01*
X89009285Y-119766428D01*
X88937857Y-120052142D01*
X88866428Y-120195000D01*
X88795000Y-120266428D01*
X88652142Y-120337857D01*
X88509285Y-120337857D01*
X88366428Y-120266428D01*
X88295000Y-120195000D01*
X88223571Y-120052142D01*
X88223571Y-119695000D01*
X88295000Y-119480714D01*
X89723571Y-118837857D02*
X88223571Y-118837857D01*
X89723571Y-118195000D02*
X88937857Y-118195000D01*
X88795000Y-118266428D01*
X88723571Y-118409285D01*
X88723571Y-118623571D01*
X88795000Y-118766428D01*
X88866428Y-118837857D01*
X88723571Y-116837857D02*
X89723571Y-116837857D01*
X88723571Y-117480714D02*
X89509285Y-117480714D01*
X89652142Y-117409285D01*
X89723571Y-117266428D01*
X89723571Y-117052142D01*
X89652142Y-116909285D01*
X89580714Y-116837857D01*
X88723571Y-116123571D02*
X89723571Y-116123571D01*
X88866428Y-116123571D02*
X88795000Y-116052142D01*
X88723571Y-115909285D01*
X88723571Y-115695000D01*
X88795000Y-115552142D01*
X88937857Y-115480714D01*
X89723571Y-115480714D01*
X88723571Y-114980714D02*
X88723571Y-114409285D01*
X88223571Y-114766428D02*
X89509285Y-114766428D01*
X89652142Y-114695000D01*
X89723571Y-114552142D01*
X89723571Y-114409285D01*
X89152142Y-112766428D02*
X89152142Y-111623571D01*
X143178571Y-86642857D02*
X143178571Y-87357142D01*
X143892857Y-87428571D01*
X143821428Y-87357142D01*
X143750000Y-87214285D01*
X143750000Y-86857142D01*
X143821428Y-86714285D01*
X143892857Y-86642857D01*
X144035714Y-86571428D01*
X144392857Y-86571428D01*
X144535714Y-86642857D01*
X144607142Y-86714285D01*
X144678571Y-86857142D01*
X144678571Y-87214285D01*
X144607142Y-87357142D01*
X144535714Y-87428571D01*
X143178571Y-86142857D02*
X144678571Y-85642857D01*
X143178571Y-85142857D01*
X143892857Y-83000000D02*
X143964285Y-82785714D01*
X144035714Y-82714285D01*
X144178571Y-82642857D01*
X144392857Y-82642857D01*
X144535714Y-82714285D01*
X144607142Y-82785714D01*
X144678571Y-82928571D01*
X144678571Y-83500000D01*
X143178571Y-83500000D01*
X143178571Y-83000000D01*
X143250000Y-82857142D01*
X143321428Y-82785714D01*
X143464285Y-82714285D01*
X143607142Y-82714285D01*
X143750000Y-82785714D01*
X143821428Y-82857142D01*
X143892857Y-83000000D01*
X143892857Y-83500000D01*
X143178571Y-82000000D02*
X144392857Y-82000000D01*
X144535714Y-81928571D01*
X144607142Y-81857142D01*
X144678571Y-81714285D01*
X144678571Y-81428571D01*
X144607142Y-81285714D01*
X144535714Y-81214285D01*
X144392857Y-81142857D01*
X143178571Y-81142857D01*
X144535714Y-79571428D02*
X144607142Y-79642857D01*
X144678571Y-79857142D01*
X144678571Y-80000000D01*
X144607142Y-80214285D01*
X144464285Y-80357142D01*
X144321428Y-80428571D01*
X144035714Y-80500000D01*
X143821428Y-80500000D01*
X143535714Y-80428571D01*
X143392857Y-80357142D01*
X143250000Y-80214285D01*
X143178571Y-80000000D01*
X143178571Y-79857142D01*
X143250000Y-79642857D01*
X143321428Y-79571428D01*
X144678571Y-78928571D02*
X143178571Y-78928571D01*
X144678571Y-78071428D02*
X143821428Y-78714285D01*
X143178571Y-78071428D02*
X144035714Y-78928571D01*
X77964285Y-133928571D02*
X77964285Y-132428571D01*
X78535714Y-132428571D01*
X78678571Y-132500000D01*
X78750000Y-132571428D01*
X78821428Y-132714285D01*
X78821428Y-132928571D01*
X78750000Y-133071428D01*
X78678571Y-133142857D01*
X78535714Y-133214285D01*
X77964285Y-133214285D01*
X79250000Y-132428571D02*
X79750000Y-133928571D01*
X80250000Y-132428571D01*
X76857142Y-120392857D02*
X76928571Y-120178571D01*
X76928571Y-119821428D01*
X76857142Y-119678571D01*
X76785714Y-119607142D01*
X76642857Y-119535714D01*
X76500000Y-119535714D01*
X76357142Y-119607142D01*
X76285714Y-119678571D01*
X76214285Y-119821428D01*
X76142857Y-120107142D01*
X76071428Y-120250000D01*
X76000000Y-120321428D01*
X75857142Y-120392857D01*
X75714285Y-120392857D01*
X75571428Y-120321428D01*
X75500000Y-120250000D01*
X75428571Y-120107142D01*
X75428571Y-119750000D01*
X75500000Y-119535714D01*
X76928571Y-118892857D02*
X75428571Y-118892857D01*
X76928571Y-118250000D02*
X76142857Y-118250000D01*
X76000000Y-118321428D01*
X75928571Y-118464285D01*
X75928571Y-118678571D01*
X76000000Y-118821428D01*
X76071428Y-118892857D01*
X75928571Y-116892857D02*
X76928571Y-116892857D01*
X75928571Y-117535714D02*
X76714285Y-117535714D01*
X76857142Y-117464285D01*
X76928571Y-117321428D01*
X76928571Y-117107142D01*
X76857142Y-116964285D01*
X76785714Y-116892857D01*
X75928571Y-116178571D02*
X76928571Y-116178571D01*
X76071428Y-116178571D02*
X76000000Y-116107142D01*
X75928571Y-115964285D01*
X75928571Y-115750000D01*
X76000000Y-115607142D01*
X76142857Y-115535714D01*
X76928571Y-115535714D01*
X75928571Y-115035714D02*
X75928571Y-114464285D01*
X75428571Y-114821428D02*
X76714285Y-114821428D01*
X76857142Y-114750000D01*
X76928571Y-114607142D01*
X76928571Y-114464285D01*
X76357142Y-112821428D02*
X76357142Y-111678571D01*
X89509285Y-133873571D02*
X89509285Y-132373571D01*
X90009285Y-133445000D01*
X90509285Y-132373571D01*
X90509285Y-133873571D01*
X91152142Y-133445000D02*
X91866428Y-133445000D01*
X91009285Y-133873571D02*
X91509285Y-132373571D01*
X92009285Y-133873571D01*
X92509285Y-133873571D02*
X92509285Y-132373571D01*
X93223571Y-133873571D02*
X93223571Y-132373571D01*
X94080714Y-133873571D01*
X94080714Y-132373571D01*
X128107142Y-79250000D02*
X127964285Y-79178571D01*
X127750000Y-79178571D01*
X127535714Y-79250000D01*
X127392857Y-79392857D01*
X127321428Y-79535714D01*
X127250000Y-79821428D01*
X127250000Y-80035714D01*
X127321428Y-80321428D01*
X127392857Y-80464285D01*
X127535714Y-80607142D01*
X127750000Y-80678571D01*
X127892857Y-80678571D01*
X128107142Y-80607142D01*
X128178571Y-80535714D01*
X128178571Y-80035714D01*
X127892857Y-80035714D01*
X128821428Y-80678571D02*
X128821428Y-79178571D01*
X129678571Y-80678571D01*
X129678571Y-79178571D01*
X130392857Y-80678571D02*
X130392857Y-79178571D01*
X130750000Y-79178571D01*
X130964285Y-79250000D01*
X131107142Y-79392857D01*
X131178571Y-79535714D01*
X131250000Y-79821428D01*
X131250000Y-80035714D01*
X131178571Y-80321428D01*
X131107142Y-80464285D01*
X130964285Y-80607142D01*
X130750000Y-80678571D01*
X130392857Y-80678571D01*
X94652142Y-120337857D02*
X94723571Y-120123571D01*
X94723571Y-119766428D01*
X94652142Y-119623571D01*
X94580714Y-119552142D01*
X94437857Y-119480714D01*
X94295000Y-119480714D01*
X94152142Y-119552142D01*
X94080714Y-119623571D01*
X94009285Y-119766428D01*
X93937857Y-120052142D01*
X93866428Y-120195000D01*
X93795000Y-120266428D01*
X93652142Y-120337857D01*
X93509285Y-120337857D01*
X93366428Y-120266428D01*
X93295000Y-120195000D01*
X93223571Y-120052142D01*
X93223571Y-119695000D01*
X93295000Y-119480714D01*
X94723571Y-118837857D02*
X93223571Y-118837857D01*
X94723571Y-118195000D02*
X93937857Y-118195000D01*
X93795000Y-118266428D01*
X93723571Y-118409285D01*
X93723571Y-118623571D01*
X93795000Y-118766428D01*
X93866428Y-118837857D01*
X93723571Y-116837857D02*
X94723571Y-116837857D01*
X93723571Y-117480714D02*
X94509285Y-117480714D01*
X94652142Y-117409285D01*
X94723571Y-117266428D01*
X94723571Y-117052142D01*
X94652142Y-116909285D01*
X94580714Y-116837857D01*
X93723571Y-116123571D02*
X94723571Y-116123571D01*
X93866428Y-116123571D02*
X93795000Y-116052142D01*
X93723571Y-115909285D01*
X93723571Y-115695000D01*
X93795000Y-115552142D01*
X93937857Y-115480714D01*
X94723571Y-115480714D01*
X93723571Y-114980714D02*
X93723571Y-114409285D01*
X93223571Y-114766428D02*
X94509285Y-114766428D01*
X94652142Y-114695000D01*
X94723571Y-114552142D01*
X94723571Y-114409285D01*
X94152142Y-112766428D02*
X94152142Y-111623571D01*
X94723571Y-112195000D02*
X93580714Y-112195000D01*
X124071428Y-74178571D02*
X124571428Y-75678571D01*
X125071428Y-74178571D01*
X125571428Y-75107142D02*
X126714285Y-75107142D01*
X127928571Y-74892857D02*
X128142857Y-74964285D01*
X128214285Y-75035714D01*
X128285714Y-75178571D01*
X128285714Y-75392857D01*
X128214285Y-75535714D01*
X128142857Y-75607142D01*
X128000000Y-75678571D01*
X127428571Y-75678571D01*
X127428571Y-74178571D01*
X127928571Y-74178571D01*
X128071428Y-74250000D01*
X128142857Y-74321428D01*
X128214285Y-74464285D01*
X128214285Y-74607142D01*
X128142857Y-74750000D01*
X128071428Y-74821428D01*
X127928571Y-74892857D01*
X127428571Y-74892857D01*
X128928571Y-74178571D02*
X128928571Y-75392857D01*
X129000000Y-75535714D01*
X129071428Y-75607142D01*
X129214285Y-75678571D01*
X129500000Y-75678571D01*
X129642857Y-75607142D01*
X129714285Y-75535714D01*
X129785714Y-75392857D01*
X129785714Y-74178571D01*
X130428571Y-75607142D02*
X130642857Y-75678571D01*
X131000000Y-75678571D01*
X131142857Y-75607142D01*
X131214285Y-75535714D01*
X131285714Y-75392857D01*
X131285714Y-75250000D01*
X131214285Y-75107142D01*
X131142857Y-75035714D01*
X131000000Y-74964285D01*
X130714285Y-74892857D01*
X130571428Y-74821428D01*
X130500000Y-74750000D01*
X130428571Y-74607142D01*
X130428571Y-74464285D01*
X130500000Y-74321428D01*
X130571428Y-74250000D01*
X130714285Y-74178571D01*
X131071428Y-74178571D01*
X131285714Y-74250000D01*
X128964285Y-89428571D02*
X128250000Y-89428571D01*
X128178571Y-90142857D01*
X128250000Y-90071428D01*
X128392857Y-90000000D01*
X128750000Y-90000000D01*
X128892857Y-90071428D01*
X128964285Y-90142857D01*
X129035714Y-90285714D01*
X129035714Y-90642857D01*
X128964285Y-90785714D01*
X128892857Y-90857142D01*
X128750000Y-90928571D01*
X128392857Y-90928571D01*
X128250000Y-90857142D01*
X128178571Y-90785714D01*
X129464285Y-89428571D02*
X129964285Y-90928571D01*
X130464285Y-89428571D01*
X64107142Y-120142857D02*
X64178571Y-119928571D01*
X64178571Y-119571428D01*
X64107142Y-119428571D01*
X64035714Y-119357142D01*
X63892857Y-119285714D01*
X63750000Y-119285714D01*
X63607142Y-119357142D01*
X63535714Y-119428571D01*
X63464285Y-119571428D01*
X63392857Y-119857142D01*
X63321428Y-120000000D01*
X63250000Y-120071428D01*
X63107142Y-120142857D01*
X62964285Y-120142857D01*
X62821428Y-120071428D01*
X62750000Y-120000000D01*
X62678571Y-119857142D01*
X62678571Y-119500000D01*
X62750000Y-119285714D01*
X64178571Y-118642857D02*
X62678571Y-118642857D01*
X64178571Y-118000000D02*
X63392857Y-118000000D01*
X63250000Y-118071428D01*
X63178571Y-118214285D01*
X63178571Y-118428571D01*
X63250000Y-118571428D01*
X63321428Y-118642857D01*
X63178571Y-116642857D02*
X64178571Y-116642857D01*
X63178571Y-117285714D02*
X63964285Y-117285714D01*
X64107142Y-117214285D01*
X64178571Y-117071428D01*
X64178571Y-116857142D01*
X64107142Y-116714285D01*
X64035714Y-116642857D01*
X63178571Y-115928571D02*
X64178571Y-115928571D01*
X63321428Y-115928571D02*
X63250000Y-115857142D01*
X63178571Y-115714285D01*
X63178571Y-115500000D01*
X63250000Y-115357142D01*
X63392857Y-115285714D01*
X64178571Y-115285714D01*
X63178571Y-114785714D02*
X63178571Y-114214285D01*
X62678571Y-114571428D02*
X63964285Y-114571428D01*
X64107142Y-114500000D01*
X64178571Y-114357142D01*
X64178571Y-114214285D01*
X63607142Y-112571428D02*
X63607142Y-111428571D01*
X81857142Y-120392857D02*
X81928571Y-120178571D01*
X81928571Y-119821428D01*
X81857142Y-119678571D01*
X81785714Y-119607142D01*
X81642857Y-119535714D01*
X81500000Y-119535714D01*
X81357142Y-119607142D01*
X81285714Y-119678571D01*
X81214285Y-119821428D01*
X81142857Y-120107142D01*
X81071428Y-120250000D01*
X81000000Y-120321428D01*
X80857142Y-120392857D01*
X80714285Y-120392857D01*
X80571428Y-120321428D01*
X80500000Y-120250000D01*
X80428571Y-120107142D01*
X80428571Y-119750000D01*
X80500000Y-119535714D01*
X81928571Y-118892857D02*
X80428571Y-118892857D01*
X81928571Y-118250000D02*
X81142857Y-118250000D01*
X81000000Y-118321428D01*
X80928571Y-118464285D01*
X80928571Y-118678571D01*
X81000000Y-118821428D01*
X81071428Y-118892857D01*
X80928571Y-116892857D02*
X81928571Y-116892857D01*
X80928571Y-117535714D02*
X81714285Y-117535714D01*
X81857142Y-117464285D01*
X81928571Y-117321428D01*
X81928571Y-117107142D01*
X81857142Y-116964285D01*
X81785714Y-116892857D01*
X80928571Y-116178571D02*
X81928571Y-116178571D01*
X81071428Y-116178571D02*
X81000000Y-116107142D01*
X80928571Y-115964285D01*
X80928571Y-115750000D01*
X81000000Y-115607142D01*
X81142857Y-115535714D01*
X81928571Y-115535714D01*
X80928571Y-115035714D02*
X80928571Y-114464285D01*
X80428571Y-114821428D02*
X81714285Y-114821428D01*
X81857142Y-114750000D01*
X81928571Y-114607142D01*
X81928571Y-114464285D01*
X81357142Y-112821428D02*
X81357142Y-111678571D01*
X81928571Y-112250000D02*
X80785714Y-112250000D01*
X128107142Y-84500000D02*
X127964285Y-84428571D01*
X127750000Y-84428571D01*
X127535714Y-84500000D01*
X127392857Y-84642857D01*
X127321428Y-84785714D01*
X127250000Y-85071428D01*
X127250000Y-85285714D01*
X127321428Y-85571428D01*
X127392857Y-85714285D01*
X127535714Y-85857142D01*
X127750000Y-85928571D01*
X127892857Y-85928571D01*
X128107142Y-85857142D01*
X128178571Y-85785714D01*
X128178571Y-85285714D01*
X127892857Y-85285714D01*
X128821428Y-85928571D02*
X128821428Y-84428571D01*
X129678571Y-85928571D01*
X129678571Y-84428571D01*
X130392857Y-85928571D02*
X130392857Y-84428571D01*
X130750000Y-84428571D01*
X130964285Y-84500000D01*
X131107142Y-84642857D01*
X131178571Y-84785714D01*
X131250000Y-85071428D01*
X131250000Y-85285714D01*
X131178571Y-85571428D01*
X131107142Y-85714285D01*
X130964285Y-85857142D01*
X130750000Y-85928571D01*
X130392857Y-85928571D01*
D11*
X67514880Y-81061904D02*
X68324404Y-81061904D01*
X68419642Y-81014285D01*
X68467261Y-80966666D01*
X68514880Y-80871428D01*
X68514880Y-80680952D01*
X68467261Y-80585714D01*
X68419642Y-80538095D01*
X68324404Y-80490476D01*
X67514880Y-80490476D01*
X67610119Y-80061904D02*
X67562500Y-80014285D01*
X67514880Y-79919047D01*
X67514880Y-79680952D01*
X67562500Y-79585714D01*
X67610119Y-79538095D01*
X67705357Y-79490476D01*
X67800595Y-79490476D01*
X67943452Y-79538095D01*
X68514880Y-80109523D01*
X68514880Y-79490476D01*
X63229166Y-81507857D02*
X63229166Y-81031666D01*
X63514880Y-81603095D02*
X62514880Y-81269761D01*
X63514880Y-80936428D01*
X63514880Y-80603095D02*
X62514880Y-80603095D01*
X63514880Y-80031666D01*
X62514880Y-80031666D01*
X62514880Y-79698333D02*
X62514880Y-79126904D01*
X63514880Y-79412619D02*
X62514880Y-79412619D01*
X91014880Y-81511904D02*
X91824404Y-81511904D01*
X91919642Y-81464285D01*
X91967261Y-81416666D01*
X92014880Y-81321428D01*
X92014880Y-81130952D01*
X91967261Y-81035714D01*
X91919642Y-80988095D01*
X91824404Y-80940476D01*
X91014880Y-80940476D01*
X91967261Y-80511904D02*
X92014880Y-80369047D01*
X92014880Y-80130952D01*
X91967261Y-80035714D01*
X91919642Y-79988095D01*
X91824404Y-79940476D01*
X91729166Y-79940476D01*
X91633928Y-79988095D01*
X91586309Y-80035714D01*
X91538690Y-80130952D01*
X91491071Y-80321428D01*
X91443452Y-80416666D01*
X91395833Y-80464285D01*
X91300595Y-80511904D01*
X91205357Y-80511904D01*
X91110119Y-80464285D01*
X91062500Y-80416666D01*
X91014880Y-80321428D01*
X91014880Y-80083333D01*
X91062500Y-79940476D01*
X91491071Y-79178571D02*
X91538690Y-79035714D01*
X91586309Y-78988095D01*
X91681547Y-78940476D01*
X91824404Y-78940476D01*
X91919642Y-78988095D01*
X91967261Y-79035714D01*
X92014880Y-79130952D01*
X92014880Y-79511904D01*
X91014880Y-79511904D01*
X91014880Y-79178571D01*
X91062500Y-79083333D01*
X91110119Y-79035714D01*
X91205357Y-78988095D01*
X91300595Y-78988095D01*
X91395833Y-79035714D01*
X91443452Y-79083333D01*
X91491071Y-79178571D01*
X91491071Y-79511904D01*
X122690476Y-86452380D02*
X122690476Y-87166666D01*
X122642857Y-87309523D01*
X122547619Y-87404761D01*
X122404761Y-87452380D01*
X122309523Y-87452380D01*
X123690476Y-87452380D02*
X123119047Y-87452380D01*
X123404761Y-87452380D02*
X123404761Y-86452380D01*
X123309523Y-86595238D01*
X123214285Y-86690476D01*
X123119047Y-86738095D01*
X124309523Y-86452380D02*
X124404761Y-86452380D01*
X124500000Y-86500000D01*
X124547619Y-86547619D01*
X124595238Y-86642857D01*
X124642857Y-86833333D01*
X124642857Y-87071428D01*
X124595238Y-87261904D01*
X124547619Y-87357142D01*
X124500000Y-87404761D01*
X124404761Y-87452380D01*
X124309523Y-87452380D01*
X124214285Y-87404761D01*
X124166666Y-87357142D01*
X124119047Y-87261904D01*
X124071428Y-87071428D01*
X124071428Y-86833333D01*
X124119047Y-86642857D01*
X124166666Y-86547619D01*
X124214285Y-86500000D01*
X124309523Y-86452380D01*
X83967261Y-97047619D02*
X83872023Y-97000000D01*
X83776785Y-96904761D01*
X83633928Y-96761904D01*
X83538690Y-96714285D01*
X83443452Y-96714285D01*
X83491071Y-96952380D02*
X83395833Y-96904761D01*
X83300595Y-96809523D01*
X83252976Y-96619047D01*
X83252976Y-96285714D01*
X83300595Y-96095238D01*
X83395833Y-96000000D01*
X83491071Y-95952380D01*
X83681547Y-95952380D01*
X83776785Y-96000000D01*
X83872023Y-96095238D01*
X83919642Y-96285714D01*
X83919642Y-96619047D01*
X83872023Y-96809523D01*
X83776785Y-96904761D01*
X83681547Y-96952380D01*
X83491071Y-96952380D01*
X84872023Y-96952380D02*
X84300595Y-96952380D01*
X84586309Y-96952380D02*
X84586309Y-95952380D01*
X84491071Y-96095238D01*
X84395833Y-96190476D01*
X84300595Y-96238095D01*
X117857142Y-75666666D02*
X117904761Y-75714285D01*
X117952380Y-75857142D01*
X117952380Y-75952380D01*
X117904761Y-76095238D01*
X117809523Y-76190476D01*
X117714285Y-76238095D01*
X117523809Y-76285714D01*
X117380952Y-76285714D01*
X117190476Y-76238095D01*
X117095238Y-76190476D01*
X117000000Y-76095238D01*
X116952380Y-75952380D01*
X116952380Y-75857142D01*
X117000000Y-75714285D01*
X117047619Y-75666666D01*
X117047619Y-75285714D02*
X117000000Y-75238095D01*
X116952380Y-75142857D01*
X116952380Y-74904761D01*
X117000000Y-74809523D01*
X117047619Y-74761904D01*
X117142857Y-74714285D01*
X117238095Y-74714285D01*
X117380952Y-74761904D01*
X117952380Y-75333333D01*
X117952380Y-74714285D01*
X73724880Y-80516666D02*
X73248690Y-80850000D01*
X73724880Y-81088095D02*
X72724880Y-81088095D01*
X72724880Y-80707142D01*
X72772500Y-80611904D01*
X72820119Y-80564285D01*
X72915357Y-80516666D01*
X73058214Y-80516666D01*
X73153452Y-80564285D01*
X73201071Y-80611904D01*
X73248690Y-80707142D01*
X73248690Y-81088095D01*
X72820119Y-80135714D02*
X72772500Y-80088095D01*
X72724880Y-79992857D01*
X72724880Y-79754761D01*
X72772500Y-79659523D01*
X72820119Y-79611904D01*
X72915357Y-79564285D01*
X73010595Y-79564285D01*
X73153452Y-79611904D01*
X73724880Y-80183333D01*
X73724880Y-79564285D01*
X117857142Y-80666666D02*
X117904761Y-80714285D01*
X117952380Y-80857142D01*
X117952380Y-80952380D01*
X117904761Y-81095238D01*
X117809523Y-81190476D01*
X117714285Y-81238095D01*
X117523809Y-81285714D01*
X117380952Y-81285714D01*
X117190476Y-81238095D01*
X117095238Y-81190476D01*
X117000000Y-81095238D01*
X116952380Y-80952380D01*
X116952380Y-80857142D01*
X117000000Y-80714285D01*
X117047619Y-80666666D01*
X117952380Y-79714285D02*
X117952380Y-80285714D01*
X117952380Y-80000000D02*
X116952380Y-80000000D01*
X117095238Y-80095238D01*
X117190476Y-80190476D01*
X117238095Y-80285714D01*
X118952380Y-111488095D02*
X117952380Y-111488095D01*
X118952380Y-110916666D02*
X118380952Y-111345238D01*
X117952380Y-110916666D02*
X118523809Y-111488095D01*
X118952380Y-109964285D02*
X118952380Y-110535714D01*
X118952380Y-110250000D02*
X117952380Y-110250000D01*
X118095238Y-110345238D01*
X118190476Y-110440476D01*
X118238095Y-110535714D01*
X87645833Y-91317380D02*
X87312500Y-90841190D01*
X87074404Y-91317380D02*
X87074404Y-90317380D01*
X87455357Y-90317380D01*
X87550595Y-90365000D01*
X87598214Y-90412619D01*
X87645833Y-90507857D01*
X87645833Y-90650714D01*
X87598214Y-90745952D01*
X87550595Y-90793571D01*
X87455357Y-90841190D01*
X87074404Y-90841190D01*
X87979166Y-90317380D02*
X88645833Y-90317380D01*
X88217261Y-91317380D01*
X79145833Y-85357142D02*
X79098214Y-85404761D01*
X78955357Y-85452380D01*
X78860119Y-85452380D01*
X78717261Y-85404761D01*
X78622023Y-85309523D01*
X78574404Y-85214285D01*
X78526785Y-85023809D01*
X78526785Y-84880952D01*
X78574404Y-84690476D01*
X78622023Y-84595238D01*
X78717261Y-84500000D01*
X78860119Y-84452380D01*
X78955357Y-84452380D01*
X79098214Y-84500000D01*
X79145833Y-84547619D01*
X79717261Y-84880952D02*
X79622023Y-84833333D01*
X79574404Y-84785714D01*
X79526785Y-84690476D01*
X79526785Y-84642857D01*
X79574404Y-84547619D01*
X79622023Y-84500000D01*
X79717261Y-84452380D01*
X79907738Y-84452380D01*
X80002976Y-84500000D01*
X80050595Y-84547619D01*
X80098214Y-84642857D01*
X80098214Y-84690476D01*
X80050595Y-84785714D01*
X80002976Y-84833333D01*
X79907738Y-84880952D01*
X79717261Y-84880952D01*
X79622023Y-84928571D01*
X79574404Y-84976190D01*
X79526785Y-85071428D01*
X79526785Y-85261904D01*
X79574404Y-85357142D01*
X79622023Y-85404761D01*
X79717261Y-85452380D01*
X79907738Y-85452380D01*
X80002976Y-85404761D01*
X80050595Y-85357142D01*
X80098214Y-85261904D01*
X80098214Y-85071428D01*
X80050595Y-84976190D01*
X80002976Y-84928571D01*
X79907738Y-84880952D01*
X88788333Y-109340892D02*
X88740714Y-109388511D01*
X88597857Y-109436130D01*
X88502619Y-109436130D01*
X88359761Y-109388511D01*
X88264523Y-109293273D01*
X88216904Y-109198035D01*
X88169285Y-109007559D01*
X88169285Y-108864702D01*
X88216904Y-108674226D01*
X88264523Y-108578988D01*
X88359761Y-108483750D01*
X88502619Y-108436130D01*
X88597857Y-108436130D01*
X88740714Y-108483750D01*
X88788333Y-108531369D01*
X89121666Y-108436130D02*
X89740714Y-108436130D01*
X89407380Y-108817083D01*
X89550238Y-108817083D01*
X89645476Y-108864702D01*
X89693095Y-108912321D01*
X89740714Y-109007559D01*
X89740714Y-109245654D01*
X89693095Y-109340892D01*
X89645476Y-109388511D01*
X89550238Y-109436130D01*
X89264523Y-109436130D01*
X89169285Y-109388511D01*
X89121666Y-109340892D01*
X120011904Y-93452380D02*
X120011904Y-92452380D01*
X120250000Y-92452380D01*
X120392857Y-92500000D01*
X120488095Y-92595238D01*
X120535714Y-92690476D01*
X120583333Y-92880952D01*
X120583333Y-93023809D01*
X120535714Y-93214285D01*
X120488095Y-93309523D01*
X120392857Y-93404761D01*
X120250000Y-93452380D01*
X120011904Y-93452380D01*
X121535714Y-93452380D02*
X120964285Y-93452380D01*
X121250000Y-93452380D02*
X121250000Y-92452380D01*
X121154761Y-92595238D01*
X121059523Y-92690476D01*
X120964285Y-92738095D01*
X79800595Y-100452380D02*
X79800595Y-101261904D01*
X79848214Y-101357142D01*
X79895833Y-101404761D01*
X79991071Y-101452380D01*
X80181547Y-101452380D01*
X80276785Y-101404761D01*
X80324404Y-101357142D01*
X80372023Y-101261904D01*
X80372023Y-100452380D01*
X81276785Y-100785714D02*
X81276785Y-101452380D01*
X81038690Y-100404761D02*
X80800595Y-101119047D01*
X81419642Y-101119047D01*
X88930833Y-103340892D02*
X88883214Y-103388511D01*
X88740357Y-103436130D01*
X88645119Y-103436130D01*
X88502261Y-103388511D01*
X88407023Y-103293273D01*
X88359404Y-103198035D01*
X88311785Y-103007559D01*
X88311785Y-102864702D01*
X88359404Y-102674226D01*
X88407023Y-102578988D01*
X88502261Y-102483750D01*
X88645119Y-102436130D01*
X88740357Y-102436130D01*
X88883214Y-102483750D01*
X88930833Y-102531369D01*
X89787976Y-102769464D02*
X89787976Y-103436130D01*
X89549880Y-102388511D02*
X89311785Y-103102797D01*
X89930833Y-103102797D01*
X104738095Y-87952380D02*
X104738095Y-88761904D01*
X104785714Y-88857142D01*
X104833333Y-88904761D01*
X104928571Y-88952380D01*
X105119047Y-88952380D01*
X105214285Y-88904761D01*
X105261904Y-88857142D01*
X105309523Y-88761904D01*
X105309523Y-87952380D01*
X106309523Y-88952380D02*
X105738095Y-88952380D01*
X106023809Y-88952380D02*
X106023809Y-87952380D01*
X105928571Y-88095238D01*
X105833333Y-88190476D01*
X105738095Y-88238095D01*
X76145833Y-109357142D02*
X76098214Y-109404761D01*
X75955357Y-109452380D01*
X75860119Y-109452380D01*
X75717261Y-109404761D01*
X75622023Y-109309523D01*
X75574404Y-109214285D01*
X75526785Y-109023809D01*
X75526785Y-108880952D01*
X75574404Y-108690476D01*
X75622023Y-108595238D01*
X75717261Y-108500000D01*
X75860119Y-108452380D01*
X75955357Y-108452380D01*
X76098214Y-108500000D01*
X76145833Y-108547619D01*
X77050595Y-108452380D02*
X76574404Y-108452380D01*
X76526785Y-108928571D01*
X76574404Y-108880952D01*
X76669642Y-108833333D01*
X76907738Y-108833333D01*
X77002976Y-108880952D01*
X77050595Y-108928571D01*
X77098214Y-109023809D01*
X77098214Y-109261904D01*
X77050595Y-109357142D01*
X77002976Y-109404761D01*
X76907738Y-109452380D01*
X76669642Y-109452380D01*
X76574404Y-109404761D01*
X76526785Y-109357142D01*
X76014880Y-80466666D02*
X75538690Y-80800000D01*
X76014880Y-81038095D02*
X75014880Y-81038095D01*
X75014880Y-80657142D01*
X75062500Y-80561904D01*
X75110119Y-80514285D01*
X75205357Y-80466666D01*
X75348214Y-80466666D01*
X75443452Y-80514285D01*
X75491071Y-80561904D01*
X75538690Y-80657142D01*
X75538690Y-81038095D01*
X76014880Y-79514285D02*
X76014880Y-80085714D01*
X76014880Y-79800000D02*
X75014880Y-79800000D01*
X75157738Y-79895238D01*
X75252976Y-79990476D01*
X75300595Y-80085714D01*
X71114880Y-80476666D02*
X70638690Y-80810000D01*
X71114880Y-81048095D02*
X70114880Y-81048095D01*
X70114880Y-80667142D01*
X70162500Y-80571904D01*
X70210119Y-80524285D01*
X70305357Y-80476666D01*
X70448214Y-80476666D01*
X70543452Y-80524285D01*
X70591071Y-80571904D01*
X70638690Y-80667142D01*
X70638690Y-81048095D01*
X70114880Y-80143333D02*
X70114880Y-79524285D01*
X70495833Y-79857619D01*
X70495833Y-79714761D01*
X70543452Y-79619523D01*
X70591071Y-79571904D01*
X70686309Y-79524285D01*
X70924404Y-79524285D01*
X71019642Y-79571904D01*
X71067261Y-79619523D01*
X71114880Y-79714761D01*
X71114880Y-80000476D01*
X71067261Y-80095714D01*
X71019642Y-80143333D01*
X93895833Y-82202380D02*
X93562500Y-81726190D01*
X93324404Y-82202380D02*
X93324404Y-81202380D01*
X93705357Y-81202380D01*
X93800595Y-81250000D01*
X93848214Y-81297619D01*
X93895833Y-81392857D01*
X93895833Y-81535714D01*
X93848214Y-81630952D01*
X93800595Y-81678571D01*
X93705357Y-81726190D01*
X93324404Y-81726190D01*
X94467261Y-81630952D02*
X94372023Y-81583333D01*
X94324404Y-81535714D01*
X94276785Y-81440476D01*
X94276785Y-81392857D01*
X94324404Y-81297619D01*
X94372023Y-81250000D01*
X94467261Y-81202380D01*
X94657738Y-81202380D01*
X94752976Y-81250000D01*
X94800595Y-81297619D01*
X94848214Y-81392857D01*
X94848214Y-81440476D01*
X94800595Y-81535714D01*
X94752976Y-81583333D01*
X94657738Y-81630952D01*
X94467261Y-81630952D01*
X94372023Y-81678571D01*
X94324404Y-81726190D01*
X94276785Y-81821428D01*
X94276785Y-82011904D01*
X94324404Y-82107142D01*
X94372023Y-82154761D01*
X94467261Y-82202380D01*
X94657738Y-82202380D01*
X94752976Y-82154761D01*
X94800595Y-82107142D01*
X94848214Y-82011904D01*
X94848214Y-81821428D01*
X94800595Y-81726190D01*
X94752976Y-81678571D01*
X94657738Y-81630952D01*
X92505595Y-100507380D02*
X92505595Y-101316904D01*
X92553214Y-101412142D01*
X92600833Y-101459761D01*
X92696071Y-101507380D01*
X92886547Y-101507380D01*
X92981785Y-101459761D01*
X93029404Y-101412142D01*
X93077023Y-101316904D01*
X93077023Y-100507380D01*
X93457976Y-100507380D02*
X94077023Y-100507380D01*
X93743690Y-100888333D01*
X93886547Y-100888333D01*
X93981785Y-100935952D01*
X94029404Y-100983571D01*
X94077023Y-101078809D01*
X94077023Y-101316904D01*
X94029404Y-101412142D01*
X93981785Y-101459761D01*
X93886547Y-101507380D01*
X93600833Y-101507380D01*
X93505595Y-101459761D01*
X93457976Y-101412142D01*
X93169642Y-85357142D02*
X93122023Y-85404761D01*
X92979166Y-85452380D01*
X92883928Y-85452380D01*
X92741071Y-85404761D01*
X92645833Y-85309523D01*
X92598214Y-85214285D01*
X92550595Y-85023809D01*
X92550595Y-84880952D01*
X92598214Y-84690476D01*
X92645833Y-84595238D01*
X92741071Y-84500000D01*
X92883928Y-84452380D01*
X92979166Y-84452380D01*
X93122023Y-84500000D01*
X93169642Y-84547619D01*
X94122023Y-85452380D02*
X93550595Y-85452380D01*
X93836309Y-85452380D02*
X93836309Y-84452380D01*
X93741071Y-84595238D01*
X93645833Y-84690476D01*
X93550595Y-84738095D01*
X94741071Y-84452380D02*
X94836309Y-84452380D01*
X94931547Y-84500000D01*
X94979166Y-84547619D01*
X95026785Y-84642857D01*
X95074404Y-84833333D01*
X95074404Y-85071428D01*
X95026785Y-85261904D01*
X94979166Y-85357142D01*
X94931547Y-85404761D01*
X94836309Y-85452380D01*
X94741071Y-85452380D01*
X94645833Y-85404761D01*
X94598214Y-85357142D01*
X94550595Y-85261904D01*
X94502976Y-85071428D01*
X94502976Y-84833333D01*
X94550595Y-84642857D01*
X94598214Y-84547619D01*
X94645833Y-84500000D01*
X94741071Y-84452380D01*
X83014880Y-76416666D02*
X82538690Y-76750000D01*
X83014880Y-76988095D02*
X82014880Y-76988095D01*
X82014880Y-76607142D01*
X82062500Y-76511904D01*
X82110119Y-76464285D01*
X82205357Y-76416666D01*
X82348214Y-76416666D01*
X82443452Y-76464285D01*
X82491071Y-76511904D01*
X82538690Y-76607142D01*
X82538690Y-76988095D01*
X82348214Y-75559523D02*
X83014880Y-75559523D01*
X81967261Y-75797619D02*
X82681547Y-76035714D01*
X82681547Y-75416666D01*
X78714880Y-80466666D02*
X78238690Y-80800000D01*
X78714880Y-81038095D02*
X77714880Y-81038095D01*
X77714880Y-80657142D01*
X77762500Y-80561904D01*
X77810119Y-80514285D01*
X77905357Y-80466666D01*
X78048214Y-80466666D01*
X78143452Y-80514285D01*
X78191071Y-80561904D01*
X78238690Y-80657142D01*
X78238690Y-81038095D01*
X77714880Y-79561904D02*
X77714880Y-80038095D01*
X78191071Y-80085714D01*
X78143452Y-80038095D01*
X78095833Y-79942857D01*
X78095833Y-79704761D01*
X78143452Y-79609523D01*
X78191071Y-79561904D01*
X78286309Y-79514285D01*
X78524404Y-79514285D01*
X78619642Y-79561904D01*
X78667261Y-79609523D01*
X78714880Y-79704761D01*
X78714880Y-79942857D01*
X78667261Y-80038095D01*
X78619642Y-80085714D01*
X89395833Y-77952380D02*
X89062500Y-77476190D01*
X88824404Y-77952380D02*
X88824404Y-76952380D01*
X89205357Y-76952380D01*
X89300595Y-77000000D01*
X89348214Y-77047619D01*
X89395833Y-77142857D01*
X89395833Y-77285714D01*
X89348214Y-77380952D01*
X89300595Y-77428571D01*
X89205357Y-77476190D01*
X88824404Y-77476190D01*
X89872023Y-77952380D02*
X90062500Y-77952380D01*
X90157738Y-77904761D01*
X90205357Y-77857142D01*
X90300595Y-77714285D01*
X90348214Y-77523809D01*
X90348214Y-77142857D01*
X90300595Y-77047619D01*
X90252976Y-77000000D01*
X90157738Y-76952380D01*
X89967261Y-76952380D01*
X89872023Y-77000000D01*
X89824404Y-77047619D01*
X89776785Y-77142857D01*
X89776785Y-77380952D01*
X89824404Y-77476190D01*
X89872023Y-77523809D01*
X89967261Y-77571428D01*
X90157738Y-77571428D01*
X90252976Y-77523809D01*
X90300595Y-77476190D01*
X90348214Y-77380952D01*
X88217261Y-97047619D02*
X88122023Y-97000000D01*
X88026785Y-96904761D01*
X87883928Y-96761904D01*
X87788690Y-96714285D01*
X87693452Y-96714285D01*
X87741071Y-96952380D02*
X87645833Y-96904761D01*
X87550595Y-96809523D01*
X87502976Y-96619047D01*
X87502976Y-96285714D01*
X87550595Y-96095238D01*
X87645833Y-96000000D01*
X87741071Y-95952380D01*
X87931547Y-95952380D01*
X88026785Y-96000000D01*
X88122023Y-96095238D01*
X88169642Y-96285714D01*
X88169642Y-96619047D01*
X88122023Y-96809523D01*
X88026785Y-96904761D01*
X87931547Y-96952380D01*
X87741071Y-96952380D01*
X88550595Y-96047619D02*
X88598214Y-96000000D01*
X88693452Y-95952380D01*
X88931547Y-95952380D01*
X89026785Y-96000000D01*
X89074404Y-96047619D01*
X89122023Y-96142857D01*
X89122023Y-96238095D01*
X89074404Y-96380952D01*
X88502976Y-96952380D01*
X89122023Y-96952380D01*
X78514880Y-95916666D02*
X78038690Y-96250000D01*
X78514880Y-96488095D02*
X77514880Y-96488095D01*
X77514880Y-96107142D01*
X77562500Y-96011904D01*
X77610119Y-95964285D01*
X77705357Y-95916666D01*
X77848214Y-95916666D01*
X77943452Y-95964285D01*
X77991071Y-96011904D01*
X78038690Y-96107142D01*
X78038690Y-96488095D01*
X77514880Y-95059523D02*
X77514880Y-95250000D01*
X77562500Y-95345238D01*
X77610119Y-95392857D01*
X77752976Y-95488095D01*
X77943452Y-95535714D01*
X78324404Y-95535714D01*
X78419642Y-95488095D01*
X78467261Y-95440476D01*
X78514880Y-95345238D01*
X78514880Y-95154761D01*
X78467261Y-95059523D01*
X78419642Y-95011904D01*
X78324404Y-94964285D01*
X78086309Y-94964285D01*
X77991071Y-95011904D01*
X77943452Y-95059523D01*
X77895833Y-95154761D01*
X77895833Y-95345238D01*
X77943452Y-95440476D01*
X77991071Y-95488095D01*
X78086309Y-95535714D01*
X82300595Y-78452380D02*
X82300595Y-79261904D01*
X82348214Y-79357142D01*
X82395833Y-79404761D01*
X82491071Y-79452380D01*
X82681547Y-79452380D01*
X82776785Y-79404761D01*
X82824404Y-79357142D01*
X82872023Y-79261904D01*
X82872023Y-78452380D01*
X83776785Y-78452380D02*
X83586309Y-78452380D01*
X83491071Y-78500000D01*
X83443452Y-78547619D01*
X83348214Y-78690476D01*
X83300595Y-78880952D01*
X83300595Y-79261904D01*
X83348214Y-79357142D01*
X83395833Y-79404761D01*
X83491071Y-79452380D01*
X83681547Y-79452380D01*
X83776785Y-79404761D01*
X83824404Y-79357142D01*
X83872023Y-79261904D01*
X83872023Y-79023809D01*
X83824404Y-78928571D01*
X83776785Y-78880952D01*
X83681547Y-78833333D01*
X83491071Y-78833333D01*
X83395833Y-78880952D01*
X83348214Y-78928571D01*
X83300595Y-79023809D01*
X76145833Y-103357142D02*
X76098214Y-103404761D01*
X75955357Y-103452380D01*
X75860119Y-103452380D01*
X75717261Y-103404761D01*
X75622023Y-103309523D01*
X75574404Y-103214285D01*
X75526785Y-103023809D01*
X75526785Y-102880952D01*
X75574404Y-102690476D01*
X75622023Y-102595238D01*
X75717261Y-102500000D01*
X75860119Y-102452380D01*
X75955357Y-102452380D01*
X76098214Y-102500000D01*
X76145833Y-102547619D01*
X77002976Y-102452380D02*
X76812500Y-102452380D01*
X76717261Y-102500000D01*
X76669642Y-102547619D01*
X76574404Y-102690476D01*
X76526785Y-102880952D01*
X76526785Y-103261904D01*
X76574404Y-103357142D01*
X76622023Y-103404761D01*
X76717261Y-103452380D01*
X76907738Y-103452380D01*
X77002976Y-103404761D01*
X77050595Y-103357142D01*
X77098214Y-103261904D01*
X77098214Y-103023809D01*
X77050595Y-102928571D01*
X77002976Y-102880952D01*
X76907738Y-102833333D01*
X76717261Y-102833333D01*
X76622023Y-102880952D01*
X76574404Y-102928571D01*
X76526785Y-103023809D01*
X81014880Y-96892857D02*
X80538690Y-97226190D01*
X81014880Y-97464285D02*
X80014880Y-97464285D01*
X80014880Y-97083333D01*
X80062500Y-96988095D01*
X80110119Y-96940476D01*
X80205357Y-96892857D01*
X80348214Y-96892857D01*
X80443452Y-96940476D01*
X80491071Y-96988095D01*
X80538690Y-97083333D01*
X80538690Y-97464285D01*
X81014880Y-95940476D02*
X81014880Y-96511904D01*
X81014880Y-96226190D02*
X80014880Y-96226190D01*
X80157738Y-96321428D01*
X80252976Y-96416666D01*
X80300595Y-96511904D01*
X80014880Y-95321428D02*
X80014880Y-95226190D01*
X80062500Y-95130952D01*
X80110119Y-95083333D01*
X80205357Y-95035714D01*
X80395833Y-94988095D01*
X80633928Y-94988095D01*
X80824404Y-95035714D01*
X80919642Y-95083333D01*
X80967261Y-95130952D01*
X81014880Y-95226190D01*
X81014880Y-95321428D01*
X80967261Y-95416666D01*
X80919642Y-95464285D01*
X80824404Y-95511904D01*
X80633928Y-95559523D01*
X80395833Y-95559523D01*
X80205357Y-95511904D01*
X80110119Y-95464285D01*
X80062500Y-95416666D01*
X80014880Y-95321428D01*
X63583333Y-103107142D02*
X63535714Y-103154761D01*
X63392857Y-103202380D01*
X63297619Y-103202380D01*
X63154761Y-103154761D01*
X63059523Y-103059523D01*
X63011904Y-102964285D01*
X62964285Y-102773809D01*
X62964285Y-102630952D01*
X63011904Y-102440476D01*
X63059523Y-102345238D01*
X63154761Y-102250000D01*
X63297619Y-102202380D01*
X63392857Y-102202380D01*
X63535714Y-102250000D01*
X63583333Y-102297619D01*
X64059523Y-103202380D02*
X64250000Y-103202380D01*
X64345238Y-103154761D01*
X64392857Y-103107142D01*
X64488095Y-102964285D01*
X64535714Y-102773809D01*
X64535714Y-102392857D01*
X64488095Y-102297619D01*
X64440476Y-102250000D01*
X64345238Y-102202380D01*
X64154761Y-102202380D01*
X64059523Y-102250000D01*
X64011904Y-102297619D01*
X63964285Y-102392857D01*
X63964285Y-102630952D01*
X64011904Y-102726190D01*
X64059523Y-102773809D01*
X64154761Y-102821428D01*
X64345238Y-102821428D01*
X64440476Y-102773809D01*
X64488095Y-102726190D01*
X64535714Y-102630952D01*
X67488095Y-100452380D02*
X67488095Y-101261904D01*
X67535714Y-101357142D01*
X67583333Y-101404761D01*
X67678571Y-101452380D01*
X67869047Y-101452380D01*
X67964285Y-101404761D01*
X68011904Y-101357142D01*
X68059523Y-101261904D01*
X68059523Y-100452380D01*
X69011904Y-100452380D02*
X68535714Y-100452380D01*
X68488095Y-100928571D01*
X68535714Y-100880952D01*
X68630952Y-100833333D01*
X68869047Y-100833333D01*
X68964285Y-100880952D01*
X69011904Y-100928571D01*
X69059523Y-101023809D01*
X69059523Y-101261904D01*
X69011904Y-101357142D01*
X68964285Y-101404761D01*
X68869047Y-101452380D01*
X68630952Y-101452380D01*
X68535714Y-101404761D01*
X68488095Y-101357142D01*
X63583333Y-109357142D02*
X63535714Y-109404761D01*
X63392857Y-109452380D01*
X63297619Y-109452380D01*
X63154761Y-109404761D01*
X63059523Y-109309523D01*
X63011904Y-109214285D01*
X62964285Y-109023809D01*
X62964285Y-108880952D01*
X63011904Y-108690476D01*
X63059523Y-108595238D01*
X63154761Y-108500000D01*
X63297619Y-108452380D01*
X63392857Y-108452380D01*
X63535714Y-108500000D01*
X63583333Y-108547619D01*
X63916666Y-108452380D02*
X64583333Y-108452380D01*
X64154761Y-109452380D01*
D12*
X140751000Y-128044000D02*
X140716000Y-128079000D01*
X134105000Y-129405000D02*
X144385000Y-129405000D01*
X134105000Y-130905000D02*
X144385000Y-130905000D01*
X133865000Y-130965000D02*
X133865000Y-131705000D01*
X140558000Y-127828000D02*
X140511000Y-127874000D01*
X143060000Y-125736000D02*
X143013000Y-125782000D01*
X134105000Y-121544000D02*
X134105000Y-131465000D01*
X142855000Y-125530000D02*
X142820000Y-125566000D01*
X133865000Y-131705000D02*
X134365000Y-131705000D01*
X134105000Y-131465000D02*
X144385000Y-131465000D01*
X134105000Y-121544000D02*
X144385000Y-121544000D01*
X134105000Y-124504000D02*
X144385000Y-124504000D01*
X144385000Y-121544000D02*
X144385000Y-131465000D01*
X137389000Y-125270000D02*
G75*
G03*
X136021958Y-125269573I-684001J-1534993D01*
G01*
X136705000Y-128485000D02*
G75*
G03*
X137388318Y-128339756I0J1680000D01*
G01*
X136021000Y-128340000D02*
G75*
G03*
X136733805Y-128485253I683999J1535001D01*
G01*
X138240001Y-127489000D02*
G75*
G03*
X138240427Y-126121958I-1535001J684000D01*
G01*
X135170000Y-126121000D02*
G75*
G03*
X135169573Y-127488042I1534993J-684001D01*
G01*
X143465000Y-126805000D02*
G75*
G03*
X143465000Y-126805000I-1680000J0D01*
G01*
X92032500Y-86715000D02*
X92032500Y-89255000D01*
X92032500Y-89255000D02*
X66632500Y-89255000D01*
X92812500Y-84115000D02*
X92812500Y-76615000D01*
X60312500Y-71365000D02*
X60312500Y-89365000D01*
X61062500Y-87365000D02*
X61062500Y-73365000D01*
X60312500Y-89365000D02*
X92312500Y-89365000D01*
X66632500Y-86715000D02*
X92032500Y-86715000D01*
X92032500Y-71475000D02*
X92032500Y-74015000D01*
X87812500Y-76615000D02*
X87812500Y-84115000D01*
X61062500Y-73365000D02*
X65062500Y-73365000D01*
X65062500Y-87365000D02*
X61062500Y-87365000D01*
X92812500Y-76615000D02*
X87812500Y-76615000D01*
X65062500Y-73365000D02*
X65062500Y-87365000D01*
X66632500Y-74015000D02*
X66632500Y-71475000D01*
X92032500Y-74015000D02*
X66632500Y-74015000D01*
X92312500Y-89365000D02*
X92312500Y-71365000D01*
X87812500Y-84115000D02*
X92812500Y-84115000D01*
X66632500Y-71475000D02*
X92032500Y-71475000D01*
X92312500Y-71365000D02*
X60312500Y-71365000D01*
X66632500Y-89255000D02*
X66632500Y-86715000D01*
D13*
X118600000Y-88600000D02*
X119100000Y-88600000D01*
X118600000Y-88600000D02*
X118600000Y-88100000D01*
X118600000Y-85400000D02*
X118600000Y-85900000D01*
X118600000Y-85400000D02*
X119100000Y-85400000D01*
X121900000Y-85400000D02*
X121400000Y-85400000D01*
X121900000Y-85400000D02*
X121900000Y-85900000D01*
X121900000Y-88600000D02*
X121400000Y-88600000D01*
X121900000Y-88600000D02*
X121900000Y-88100000D01*
D12*
X118605000Y-121544000D02*
X118605000Y-131465000D01*
X128885000Y-121544000D02*
X128885000Y-131465000D01*
X118605000Y-121544000D02*
X128885000Y-121544000D01*
X118365000Y-131705000D02*
X118865000Y-131705000D01*
X118605000Y-124504000D02*
X128885000Y-124504000D01*
X118365000Y-130965000D02*
X118365000Y-131705000D01*
X127355000Y-125530000D02*
X127320000Y-125566000D01*
X118605000Y-131465000D02*
X128885000Y-131465000D01*
X125058000Y-127828000D02*
X125011000Y-127874000D01*
X118605000Y-130905000D02*
X128885000Y-130905000D01*
X125251000Y-128044000D02*
X125216000Y-128079000D01*
X127560000Y-125736000D02*
X127513000Y-125782000D01*
X118605000Y-129405000D02*
X128885000Y-129405000D01*
X122740001Y-127489000D02*
G75*
G03*
X122740427Y-126121958I-1535001J684000D01*
G01*
X120521000Y-128340000D02*
G75*
G03*
X121233805Y-128485253I683999J1535001D01*
G01*
X119670000Y-126121000D02*
G75*
G03*
X119669573Y-127488042I1534993J-684001D01*
G01*
X121889000Y-125270000D02*
G75*
G03*
X120521958Y-125269573I-684001J-1534993D01*
G01*
X121205000Y-128485000D02*
G75*
G03*
X121888318Y-128339756I0J1680000D01*
G01*
X127965000Y-126805000D02*
G75*
G03*
X127965000Y-126805000I-1680000J0D01*
G01*
X83812500Y-95560000D02*
X84462500Y-95560000D01*
X83812500Y-95560000D02*
X83162500Y-95560000D01*
X83812500Y-92440000D02*
X84462500Y-92440000D01*
X83812500Y-92440000D02*
X82137500Y-92440000D01*
X138523000Y-81317000D02*
X138569000Y-81364000D01*
X141660000Y-93090000D02*
X142400000Y-93090000D01*
X136225000Y-79020000D02*
X136261000Y-79055000D01*
X136431000Y-83895000D02*
X136477000Y-83942000D01*
X138739000Y-86204000D02*
X138774000Y-86239000D01*
X132239000Y-92850000D02*
X132239000Y-72410000D01*
X136431000Y-78815000D02*
X136477000Y-78862000D01*
X140100000Y-92850000D02*
X140100000Y-72410000D01*
X138739000Y-76044000D02*
X138774000Y-76079000D01*
X132239000Y-72410000D02*
X142160000Y-72410000D01*
X136431000Y-73735000D02*
X136477000Y-73782000D01*
X136225000Y-84100000D02*
X136261000Y-84135000D01*
X142400000Y-93090000D02*
X142400000Y-92590000D01*
X138523000Y-76237000D02*
X138569000Y-76284000D01*
X132239000Y-92850000D02*
X142160000Y-92850000D01*
X136225000Y-73940000D02*
X136261000Y-73975000D01*
X138739000Y-81124000D02*
X138774000Y-81159000D01*
X135199000Y-92850000D02*
X135199000Y-72410000D01*
X141600000Y-92850000D02*
X141600000Y-72410000D01*
X142160000Y-92850000D02*
X142160000Y-72410000D01*
X138523000Y-86397000D02*
X138569000Y-86444000D01*
X136816000Y-91785000D02*
G75*
G03*
X138183042Y-91785427I684001J1534993D01*
G01*
X138184000Y-88714999D02*
G75*
G03*
X136816958Y-88714573I-684000J-1535001D01*
G01*
X139035000Y-90934000D02*
G75*
G03*
X139180253Y-90221195I-1535001J683999D01*
G01*
X135965000Y-89566000D02*
G75*
G03*
X135964573Y-90933042I1534993J-684001D01*
G01*
X139180000Y-90250000D02*
G75*
G03*
X139034756Y-89566682I-1680000J0D01*
G01*
X139180000Y-75010000D02*
G75*
G03*
X139180000Y-75010000I-1680000J0D01*
G01*
X139180000Y-85170000D02*
G75*
G03*
X139180000Y-85170000I-1680000J0D01*
G01*
X139180000Y-80090000D02*
G75*
G03*
X139180000Y-80090000I-1680000J0D01*
G01*
X116685000Y-77735000D02*
X116685000Y-73650000D01*
X114815000Y-73650000D02*
X114815000Y-77735000D01*
X114815000Y-77735000D02*
X116685000Y-77735000D01*
X72152500Y-83072936D02*
X72152500Y-84527064D01*
X73972500Y-83072936D02*
X73972500Y-84527064D01*
X103105000Y-124504000D02*
X113385000Y-124504000D01*
X103105000Y-121544000D02*
X113385000Y-121544000D01*
X109558000Y-127828000D02*
X109511000Y-127874000D01*
X103105000Y-129405000D02*
X113385000Y-129405000D01*
X103105000Y-130905000D02*
X113385000Y-130905000D01*
X102865000Y-131705000D02*
X103365000Y-131705000D01*
X109751000Y-128044000D02*
X109716000Y-128079000D01*
X113385000Y-121544000D02*
X113385000Y-131465000D01*
X103105000Y-121544000D02*
X103105000Y-131465000D01*
X112060000Y-125736000D02*
X112013000Y-125782000D01*
X103105000Y-131465000D02*
X113385000Y-131465000D01*
X111855000Y-125530000D02*
X111820000Y-125566000D01*
X102865000Y-130965000D02*
X102865000Y-131705000D01*
X107240001Y-127489000D02*
G75*
G03*
X107240427Y-126121958I-1535001J684000D01*
G01*
X105021000Y-128340000D02*
G75*
G03*
X105733805Y-128485253I683999J1535001D01*
G01*
X105705000Y-128485000D02*
G75*
G03*
X106388318Y-128339756I0J1680000D01*
G01*
X104170000Y-126121000D02*
G75*
G03*
X104169573Y-127488042I1534993J-684001D01*
G01*
X106389000Y-125270000D02*
G75*
G03*
X105021958Y-125269573I-684001J-1534993D01*
G01*
X112465000Y-126805000D02*
G75*
G03*
X112465000Y-126805000I-1680000J0D01*
G01*
X114840000Y-79788748D02*
X114840000Y-81211252D01*
X116660000Y-79788748D02*
X116660000Y-81211252D01*
X126450000Y-105050000D02*
X122250000Y-105050000D01*
X118650000Y-103050000D02*
X122250000Y-103050000D01*
X116850000Y-108450000D02*
X116850000Y-101650000D01*
X120450000Y-101650000D02*
X120450000Y-100850000D01*
X120450000Y-101650000D02*
X116850000Y-101650000D01*
X120450000Y-108450000D02*
X120450000Y-109950000D01*
X116300000Y-113150000D02*
X118750000Y-113150000D01*
X120450000Y-109950000D02*
X122950000Y-114550000D01*
X126450000Y-105050000D02*
X126450000Y-102550000D01*
X124700000Y-113150000D02*
X122200000Y-113150000D01*
X119300000Y-97600000D02*
X112700000Y-97600000D01*
X128300000Y-117400000D02*
X112700000Y-117400000D01*
X128300000Y-97600000D02*
X121700000Y-97600000D01*
X122250000Y-107050000D02*
X118650000Y-107050000D01*
X118650000Y-105050000D02*
X114450000Y-105050000D01*
X114450000Y-102550000D02*
X114450000Y-105050000D01*
X128300000Y-97600000D02*
X128300000Y-117400000D01*
X118650000Y-107050000D02*
X118650000Y-103050000D01*
X112700000Y-117400000D02*
X112700000Y-97600000D01*
X118650000Y-107050000D02*
X122250000Y-103050000D01*
X120450000Y-108450000D02*
X116850000Y-108450000D01*
X122250000Y-103050000D02*
X122250000Y-107050000D01*
X83585436Y-89955000D02*
X85039564Y-89955000D01*
X83585436Y-91775000D02*
X85039564Y-91775000D01*
X82101248Y-84090000D02*
X83523752Y-84090000D01*
X82101248Y-85910000D02*
X83523752Y-85910000D01*
X89648752Y-106018750D02*
X88226248Y-106018750D01*
X89648752Y-107838750D02*
X88226248Y-107838750D01*
X116350000Y-93850000D02*
X116350000Y-97150000D01*
X116350000Y-93850000D02*
X123250000Y-93850000D01*
X116350000Y-97150000D02*
X123250000Y-97150000D01*
X82172500Y-105000000D02*
X82172500Y-106500000D01*
X78952500Y-105000000D02*
X78952500Y-106500000D01*
X82172500Y-105000000D02*
X82172500Y-102075000D01*
X78952500Y-105000000D02*
X78952500Y-103500000D01*
X91440000Y-105613750D02*
X91440000Y-103743750D01*
X87355000Y-105613750D02*
X91440000Y-105613750D01*
X91440000Y-103743750D02*
X87355000Y-103743750D01*
X97150000Y-71750000D02*
X96250000Y-71750000D01*
X113350000Y-87600000D02*
X113350000Y-87200000D01*
X113350000Y-71400000D02*
X113350000Y-71800000D01*
X97150000Y-71400000D02*
X97150000Y-71750000D01*
X97150000Y-87600000D02*
X113350000Y-87600000D01*
X97150000Y-71400000D02*
X113350000Y-71400000D01*
X97150000Y-87200000D02*
X97150000Y-87600000D01*
X115140000Y-87000000D02*
X115140000Y-86240000D01*
X116813471Y-87760000D02*
X117360000Y-87760000D01*
X115140000Y-87760000D02*
X117360000Y-87760000D01*
X115140000Y-86240000D02*
X116250000Y-86240000D01*
X115140000Y-87760000D02*
X115140000Y-87695000D01*
X115140000Y-87760000D02*
X115686529Y-87760000D01*
X117360000Y-87760000D02*
X117360000Y-87695000D01*
X76961252Y-106090000D02*
X75538748Y-106090000D01*
X76961252Y-107910000D02*
X75538748Y-107910000D01*
X76472500Y-83022936D02*
X76472500Y-84477064D01*
X74652500Y-83022936D02*
X74652500Y-84477064D01*
X69652500Y-83072936D02*
X69652500Y-84527064D01*
X71472500Y-83072936D02*
X71472500Y-84527064D01*
X88839564Y-80840000D02*
X87385436Y-80840000D01*
X88839564Y-82660000D02*
X87385436Y-82660000D01*
X73605000Y-124504000D02*
X83885000Y-124504000D01*
X73605000Y-121544000D02*
X83885000Y-121544000D01*
X73605000Y-121544000D02*
X73605000Y-131465000D01*
X73605000Y-131465000D02*
X83885000Y-131465000D01*
X80251000Y-128044000D02*
X80216000Y-128079000D01*
X83885000Y-121544000D02*
X83885000Y-131465000D01*
X73365000Y-130965000D02*
X73365000Y-131705000D01*
X73365000Y-131705000D02*
X73865000Y-131705000D01*
X82355000Y-125530000D02*
X82320000Y-125566000D01*
X82560000Y-125736000D02*
X82513000Y-125782000D01*
X73605000Y-130905000D02*
X83885000Y-130905000D01*
X73605000Y-129405000D02*
X83885000Y-129405000D01*
X80058000Y-127828000D02*
X80011000Y-127874000D01*
X75521000Y-128340000D02*
G75*
G03*
X76233805Y-128485253I683999J1535001D01*
G01*
X77740001Y-127489000D02*
G75*
G03*
X77740427Y-126121958I-1535001J684000D01*
G01*
X76205000Y-128485000D02*
G75*
G03*
X76888318Y-128339756I0J1680000D01*
G01*
X74670000Y-126121000D02*
G75*
G03*
X74669573Y-127488042I1534993J-684001D01*
G01*
X76889000Y-125270000D02*
G75*
G03*
X75521958Y-125269573I-684001J-1534993D01*
G01*
X82965000Y-126805000D02*
G75*
G03*
X82965000Y-126805000I-1680000J0D01*
G01*
X96680000Y-121489000D02*
X96680000Y-131410000D01*
X86160000Y-131650000D02*
X86660000Y-131650000D01*
X92853000Y-127773000D02*
X92806000Y-127819000D01*
X86400000Y-129350000D02*
X96680000Y-129350000D01*
X86400000Y-130850000D02*
X96680000Y-130850000D01*
X93046000Y-127989000D02*
X93011000Y-128024000D01*
X86400000Y-121489000D02*
X96680000Y-121489000D01*
X95150000Y-125475000D02*
X95115000Y-125511000D01*
X86160000Y-130910000D02*
X86160000Y-131650000D01*
X95355000Y-125681000D02*
X95308000Y-125727000D01*
X86400000Y-121489000D02*
X86400000Y-131410000D01*
X86400000Y-124449000D02*
X96680000Y-124449000D01*
X86400000Y-131410000D02*
X96680000Y-131410000D01*
X89684000Y-125215000D02*
G75*
G03*
X88316958Y-125214573I-684001J-1534993D01*
G01*
X90535001Y-127434000D02*
G75*
G03*
X90535427Y-126066958I-1535001J684000D01*
G01*
X89000000Y-128430000D02*
G75*
G03*
X89683318Y-128284756I0J1680000D01*
G01*
X87465000Y-126066000D02*
G75*
G03*
X87464573Y-127433042I1534993J-684001D01*
G01*
X88316000Y-128285000D02*
G75*
G03*
X89028805Y-128430253I683999J1535001D01*
G01*
X95760000Y-126750000D02*
G75*
G03*
X95760000Y-126750000I-1680000J0D01*
G01*
X94922500Y-105000000D02*
X94922500Y-102075000D01*
X91702500Y-105000000D02*
X91702500Y-106500000D01*
X91702500Y-105000000D02*
X91702500Y-103500000D01*
X94922500Y-105000000D02*
X94922500Y-106500000D01*
X87351248Y-85160000D02*
X88773752Y-85160000D01*
X87351248Y-83340000D02*
X88773752Y-83340000D01*
X79652500Y-77527064D02*
X79652500Y-76072936D01*
X81472500Y-77527064D02*
X81472500Y-76072936D01*
X78972500Y-77527064D02*
X78972500Y-76072936D01*
X77152500Y-77527064D02*
X77152500Y-76072936D01*
X116813471Y-85260000D02*
X117360000Y-85260000D01*
X115140000Y-85260000D02*
X115686529Y-85260000D01*
X115140000Y-85260000D02*
X117360000Y-85260000D01*
X115140000Y-83740000D02*
X116250000Y-83740000D01*
X115140000Y-84500000D02*
X115140000Y-83740000D01*
X117360000Y-85260000D02*
X117360000Y-85195000D01*
X115140000Y-85260000D02*
X115140000Y-85195000D01*
X87335436Y-80160000D02*
X88789564Y-80160000D01*
X87335436Y-78340000D02*
X88789564Y-78340000D01*
X88062500Y-92440000D02*
X87412500Y-92440000D01*
X88062500Y-92440000D02*
X88712500Y-92440000D01*
X88062500Y-95560000D02*
X87412500Y-95560000D01*
X88062500Y-95560000D02*
X89737500Y-95560000D01*
X77152500Y-91522936D02*
X77152500Y-92977064D01*
X78972500Y-91522936D02*
X78972500Y-92977064D01*
X82162500Y-83360000D02*
X84612500Y-83360000D01*
X83962500Y-80140000D02*
X82162500Y-80140000D01*
X78610000Y-103815000D02*
X74525000Y-103815000D01*
X74525000Y-105685000D02*
X78610000Y-105685000D01*
X78610000Y-105685000D02*
X78610000Y-103815000D01*
X79652500Y-91522936D02*
X79652500Y-92977064D01*
X81472500Y-91522936D02*
X81472500Y-92977064D01*
X66297500Y-105685000D02*
X66297500Y-103815000D01*
X66297500Y-103815000D02*
X62212500Y-103815000D01*
X62212500Y-105685000D02*
X66297500Y-105685000D01*
X67501000Y-127794000D02*
X67466000Y-127829000D01*
X67308000Y-127578000D02*
X67261000Y-127624000D01*
X60855000Y-129155000D02*
X71135000Y-129155000D01*
X71135000Y-121294000D02*
X71135000Y-131215000D01*
X60855000Y-130655000D02*
X71135000Y-130655000D01*
X69605000Y-125280000D02*
X69570000Y-125316000D01*
X60855000Y-121294000D02*
X71135000Y-121294000D01*
X60615000Y-130715000D02*
X60615000Y-131455000D01*
X60855000Y-124254000D02*
X71135000Y-124254000D01*
X69810000Y-125486000D02*
X69763000Y-125532000D01*
X60855000Y-131215000D02*
X71135000Y-131215000D01*
X60615000Y-131455000D02*
X61115000Y-131455000D01*
X60855000Y-121294000D02*
X60855000Y-131215000D01*
X64990001Y-127239000D02*
G75*
G03*
X64990427Y-125871958I-1535001J684000D01*
G01*
X61920000Y-125871000D02*
G75*
G03*
X61919573Y-127238042I1534993J-684001D01*
G01*
X63455000Y-128235000D02*
G75*
G03*
X64138318Y-128089756I0J1680000D01*
G01*
X64139000Y-125020000D02*
G75*
G03*
X62771958Y-125019573I-684001J-1534993D01*
G01*
X62771000Y-128090000D02*
G75*
G03*
X63483805Y-128235253I683999J1535001D01*
G01*
X70215000Y-126555000D02*
G75*
G03*
X70215000Y-126555000I-1680000J0D01*
G01*
X66640000Y-105000000D02*
X66640000Y-103500000D01*
X66640000Y-105000000D02*
X66640000Y-106500000D01*
X69860000Y-105000000D02*
X69860000Y-106500000D01*
X69860000Y-105000000D02*
X69860000Y-102075000D01*
X64648752Y-106090000D02*
X63226248Y-106090000D01*
X64648752Y-107910000D02*
X63226248Y-107910000D01*
%LPC*%
D14*
X136705000Y-126805000D03*
D15*
X141785000Y-126805000D03*
D16*
X67902500Y-87985000D03*
X70442500Y-87985000D03*
X72982500Y-87985000D03*
X75522500Y-87985000D03*
X78062500Y-87985000D03*
X80602500Y-87985000D03*
X83142500Y-87985000D03*
X85682500Y-87985000D03*
X88222500Y-87985000D03*
X90762500Y-87985000D03*
X90762500Y-72745000D03*
X88222500Y-72745000D03*
X85682500Y-72745000D03*
X83142500Y-72745000D03*
X80602500Y-72745000D03*
X78062500Y-72745000D03*
X75522500Y-72745000D03*
X72982500Y-72745000D03*
X70442500Y-72745000D03*
X67902500Y-72745000D03*
D17*
X120250000Y-88475000D03*
X120250000Y-85525000D03*
D18*
X118750000Y-87000000D03*
D14*
X121205000Y-126805000D03*
D15*
X126285000Y-126805000D03*
D19*
X82875000Y-93050000D03*
X82875000Y-94950000D03*
X84750000Y-94000000D03*
D14*
X137500000Y-90250000D03*
D15*
X137500000Y-85170000D03*
X137500000Y-80090000D03*
X137500000Y-75010000D03*
D20*
X115750000Y-76687500D03*
X115750000Y-73812500D03*
D21*
X73062500Y-82250000D03*
X73062500Y-85350000D03*
D14*
X105705000Y-126805000D03*
D15*
X110785000Y-126805000D03*
D22*
X115750000Y-78937500D03*
X115750000Y-82062500D03*
D23*
X120500000Y-99000000D03*
D24*
X114450000Y-100950000D03*
D23*
X114450000Y-113150000D03*
X126500000Y-113200000D03*
D24*
X126450000Y-100950000D03*
D25*
X82762500Y-90865000D03*
X85862500Y-90865000D03*
D26*
X81250000Y-85000000D03*
X84375000Y-85000000D03*
D27*
X87375000Y-106928750D03*
X90500000Y-106928750D03*
D28*
X118250000Y-95500000D03*
X123250000Y-95500000D03*
D29*
X81562500Y-102800000D03*
X81062500Y-102800000D03*
X80562500Y-102800000D03*
X80062500Y-102800000D03*
X79562500Y-102800000D03*
X79562500Y-107200000D03*
X80062500Y-107200000D03*
X80562500Y-107200000D03*
X81062500Y-107200000D03*
X81562500Y-107200000D03*
D30*
X87517500Y-104678750D03*
X90392500Y-104678750D03*
D31*
X97250000Y-72500000D03*
X97250000Y-74500000D03*
X97250000Y-76500000D03*
X97250000Y-78500000D03*
X97250000Y-80500000D03*
X97250000Y-82500000D03*
X97250000Y-84500000D03*
X97250000Y-86500000D03*
X113250000Y-86500000D03*
X113250000Y-84500000D03*
X113250000Y-82500000D03*
X113250000Y-80500000D03*
X113250000Y-78500000D03*
X113250000Y-76500000D03*
X113250000Y-74500000D03*
X113250000Y-72500000D03*
D32*
X116250000Y-87000000D03*
D27*
X77812500Y-107000000D03*
X74687500Y-107000000D03*
D21*
X75562500Y-82200000D03*
X75562500Y-85300000D03*
X70562500Y-82250000D03*
X70562500Y-85350000D03*
D33*
X89662500Y-81750000D03*
X86562500Y-81750000D03*
D14*
X76205000Y-126805000D03*
D15*
X81285000Y-126805000D03*
D14*
X89000000Y-126750000D03*
D15*
X94080000Y-126750000D03*
D29*
X94312500Y-107200000D03*
X93812500Y-107200000D03*
X93312500Y-107200000D03*
X92812500Y-107200000D03*
X92312500Y-107200000D03*
X92312500Y-102800000D03*
X92812500Y-102800000D03*
X93312500Y-102800000D03*
X93812500Y-102800000D03*
X94312500Y-102800000D03*
D26*
X86500000Y-84250000D03*
X89625000Y-84250000D03*
D34*
X80562500Y-78350000D03*
X80562500Y-75250000D03*
X78062500Y-78350000D03*
X78062500Y-75250000D03*
D32*
X116250000Y-84500000D03*
D25*
X86512500Y-79250000D03*
X89612500Y-79250000D03*
D35*
X87125000Y-94000000D03*
X89000000Y-93050000D03*
X89000000Y-94950000D03*
D21*
X78062500Y-90700000D03*
X78062500Y-93800000D03*
D36*
X84412500Y-82700000D03*
X84412500Y-81750000D03*
X84412500Y-80800000D03*
X81712500Y-80800000D03*
X81712500Y-82700000D03*
D30*
X77562500Y-104750000D03*
X74687500Y-104750000D03*
D21*
X80562500Y-90700000D03*
X80562500Y-93800000D03*
D30*
X62375000Y-104750000D03*
X65250000Y-104750000D03*
D14*
X63455000Y-126555000D03*
D15*
X68535000Y-126555000D03*
D29*
X69250000Y-102800000D03*
X68750000Y-102800000D03*
X68250000Y-102800000D03*
X67750000Y-102800000D03*
X67250000Y-102800000D03*
X67250000Y-107200000D03*
X67750000Y-107200000D03*
X68250000Y-107200000D03*
X68750000Y-107200000D03*
X69250000Y-107200000D03*
D27*
X62375000Y-107000000D03*
X65500000Y-107000000D03*
M02*
