M48
; DRILL file {KiCad (6.0.9)} date Wed Jan  4 20:06:53 2023
; FORMAT={-:-/ absolute / metric / decimal}
; #@! TF.CreationDate,2023-01-04T20:06:53-05:00
; #@! TF.GenerationSoftware,Kicad,Pcbnew,(6.0.9)
; #@! TF.FileFunction,Plated,1,4,PTH
FMAT,2
METRIC
; #@! TA.AperFunction,Plated,PTH,ViaDrill
T1C0.400
; #@! TA.AperFunction,Plated,PTH,ComponentDrill
T2C0.650
; #@! TA.AperFunction,Plated,PTH,ComponentDrill
T3C0.900
; #@! TA.AperFunction,Plated,PTH,ComponentDrill
T4C1.000
; #@! TA.AperFunction,Plated,PTH,ComponentDrill
T5C1.300
%
G90
G05
T1
X61.0Y-104.75
X61.25Y-107.0
X64.5Y-106.0
X66.5Y-101.25
X66.5Y-102.75
X67.5Y-108.75
X67.75Y-100.5
X70.5Y-103.5
X71.5Y-74.75
X72.312Y-76.238
X73.25Y-104.75
X73.5Y-107.0
X75.0Y-75.25
X76.312Y-75.25
X76.75Y-106.0
X77.5Y-101.75
X78.75Y-100.5
X78.75Y-102.75
X79.75Y-108.75
X80.5Y-91.75
X81.5Y-101.25
X82.75Y-95.75
X82.75Y-103.5
X85.0Y-80.0
X85.5Y-86.0
X86.25Y-104.75
X86.25Y-107.0
X89.5Y-105.75
X90.25Y-101.75
X90.75Y-84.25
X91.25Y-100.5
X91.5Y-102.75
X92.5Y-108.75
X93.75Y-93.0
X94.25Y-101.5
X94.75Y-81.5
X94.75Y-93.0
X95.75Y-82.5
X98.75Y-72.5
X98.75Y-86.5
X110.75Y-77.5
X111.75Y-76.5
X111.75Y-84.5
X115.75Y-72.5
X117.25Y-78.0
X117.25Y-82.0
X122.0Y-85.5
X122.0Y-88.0
T2
X116.25Y-84.5
X116.25Y-87.0
T3
X67.903Y-72.745
X67.903Y-87.985
X70.442Y-72.745
X70.442Y-87.985
X72.983Y-72.745
X72.983Y-87.985
X75.522Y-72.745
X75.522Y-87.985
X78.062Y-72.745
X78.062Y-87.985
X80.602Y-72.745
X80.602Y-87.985
X83.142Y-72.745
X83.142Y-87.985
X85.682Y-72.745
X85.682Y-87.985
X88.222Y-72.745
X88.222Y-87.985
X90.763Y-72.745
X90.763Y-87.985
T4
X114.45Y-100.95
X126.45Y-100.95
T5
X63.455Y-126.555
X68.535Y-126.555
X76.205Y-126.805
X81.285Y-126.805
X89.0Y-126.75
X94.08Y-126.75
X105.705Y-126.805
X110.785Y-126.805
X114.45Y-113.15
X120.5Y-99.0
X121.205Y-126.805
X126.285Y-126.805
X126.5Y-113.2
X136.705Y-126.805
X137.5Y-75.01
X137.5Y-80.09
X137.5Y-85.17
X137.5Y-90.25
X141.785Y-126.805
T0
M30
