%TF.GenerationSoftware,KiCad,Pcbnew,(6.0.9)*%
%TF.CreationDate,2023-01-04T20:05:15-05:00*%
%TF.ProjectId,Hardware-TinyPicoLoRaTrailer,48617264-7761-4726-952d-54696e795069,rev?*%
%TF.SameCoordinates,Original*%
%TF.FileFunction,Copper,L3,Inr*%
%TF.FilePolarity,Positive*%
%FSLAX46Y46*%
G04 Gerber Fmt 4.6, Leading zero omitted, Abs format (unit mm)*
G04 Created by KiCad (PCBNEW (6.0.9)) date 2023-01-04 20:05:15*
%MOMM*%
%LPD*%
G01*
G04 APERTURE LIST*
%TA.AperFunction,ComponentPad*%
%ADD10R,2.600000X2.600000*%
%TD*%
%TA.AperFunction,ComponentPad*%
%ADD11C,2.600000*%
%TD*%
%TA.AperFunction,ComponentPad*%
%ADD12O,1.524000X2.000000*%
%TD*%
%TA.AperFunction,ComponentPad*%
%ADD13C,3.000000*%
%TD*%
%TA.AperFunction,ComponentPad*%
%ADD14C,2.500000*%
%TD*%
%TA.AperFunction,ComponentPad*%
%ADD15R,1.000000X1.000000*%
%TD*%
%TA.AperFunction,ViaPad*%
%ADD16C,0.800000*%
%TD*%
G04 APERTURE END LIST*
D10*
X136705000Y-126805000D03*
D11*
X141785000Y-126805000D03*
D12*
X67902500Y-87985000D03*
X70442500Y-87985000D03*
X72982500Y-87985000D03*
X75522500Y-87985000D03*
X78062500Y-87985000D03*
X80602500Y-87985000D03*
X83142500Y-87985000D03*
X85682500Y-87985000D03*
X88222500Y-87985000D03*
X90762500Y-87985000D03*
X90762500Y-72745000D03*
X88222500Y-72745000D03*
X85682500Y-72745000D03*
X83142500Y-72745000D03*
X80602500Y-72745000D03*
X78062500Y-72745000D03*
X75522500Y-72745000D03*
X72982500Y-72745000D03*
X70442500Y-72745000D03*
X67902500Y-72745000D03*
D10*
X121205000Y-126805000D03*
D11*
X126285000Y-126805000D03*
D10*
X137500000Y-90250000D03*
D11*
X137500000Y-85170000D03*
X137500000Y-80090000D03*
X137500000Y-75010000D03*
D10*
X105705000Y-126805000D03*
D11*
X110785000Y-126805000D03*
D13*
X120500000Y-99000000D03*
D14*
X114450000Y-100950000D03*
D13*
X114450000Y-113150000D03*
X126500000Y-113200000D03*
D14*
X126450000Y-100950000D03*
D15*
X116250000Y-87000000D03*
D10*
X76205000Y-126805000D03*
D11*
X81285000Y-126805000D03*
D10*
X89000000Y-126750000D03*
D11*
X94080000Y-126750000D03*
D15*
X116250000Y-84500000D03*
D10*
X63455000Y-126555000D03*
D11*
X68535000Y-126555000D03*
D16*
X75000000Y-75250000D03*
X71500000Y-74750000D03*
X90250000Y-101750000D03*
X77500000Y-101750000D03*
X66500000Y-101250000D03*
X89500000Y-105750000D03*
X76750000Y-106000000D03*
X82750000Y-103500000D03*
X70500000Y-103500000D03*
X64500000Y-106000000D03*
X117250000Y-78000000D03*
X122000000Y-88000000D03*
X67500352Y-108750000D03*
X92500000Y-108750000D03*
X94250000Y-101500000D03*
X61250000Y-107000000D03*
X61000000Y-104750000D03*
X73500000Y-107000000D03*
X73250000Y-104750000D03*
X86250000Y-107000000D03*
X86250000Y-104750000D03*
X79750000Y-108750000D03*
X81500000Y-101250000D03*
X82750000Y-95750000D03*
X80500000Y-91750000D03*
X85000000Y-80000000D03*
X85500000Y-86000000D03*
X90750000Y-84250000D03*
X115750000Y-72500000D03*
X122000000Y-85500000D03*
X117250000Y-82000000D03*
X111750000Y-84500000D03*
X98750000Y-86500000D03*
X98750000Y-72500000D03*
X111750000Y-76500000D03*
X110750000Y-77500000D03*
X94750000Y-81500000D03*
X95750000Y-82500000D03*
X93750000Y-93000000D03*
X94750000Y-93000000D03*
X76312500Y-75250000D03*
X67750000Y-100500000D03*
X78750000Y-100500000D03*
X66500000Y-102750000D03*
X78750000Y-102750000D03*
X91500000Y-102750000D03*
X72312500Y-76237701D03*
X91250000Y-100500000D03*
%TA.AperFunction,Conductor*%
G36*
X145433621Y-70778502D02*
G01*
X145480114Y-70832158D01*
X145491500Y-70884500D01*
X145491500Y-134365500D01*
X145471498Y-134433621D01*
X145417842Y-134480114D01*
X145365500Y-134491500D01*
X58884500Y-134491500D01*
X58816379Y-134471498D01*
X58769886Y-134417842D01*
X58758500Y-134365500D01*
X58758500Y-127903134D01*
X61646500Y-127903134D01*
X61653255Y-127965316D01*
X61704385Y-128101705D01*
X61791739Y-128218261D01*
X61908295Y-128305615D01*
X62044684Y-128356745D01*
X62106866Y-128363500D01*
X64803134Y-128363500D01*
X64865316Y-128356745D01*
X65001705Y-128305615D01*
X65118261Y-128218261D01*
X65205615Y-128101705D01*
X65256745Y-127965316D01*
X65263500Y-127903134D01*
X65263500Y-126507526D01*
X66722050Y-126507526D01*
X66722274Y-126512192D01*
X66722274Y-126512197D01*
X66724179Y-126551851D01*
X66734947Y-126776019D01*
X66787388Y-127039656D01*
X66878220Y-127292646D01*
X66880432Y-127296762D01*
X66880433Y-127296765D01*
X66944555Y-127416100D01*
X67005450Y-127529431D01*
X67008241Y-127533168D01*
X67008245Y-127533175D01*
X67110687Y-127670361D01*
X67166281Y-127744810D01*
X67169590Y-127748090D01*
X67169595Y-127748096D01*
X67353863Y-127930762D01*
X67357180Y-127934050D01*
X67360942Y-127936808D01*
X67360945Y-127936811D01*
X67409912Y-127972715D01*
X67573954Y-128092995D01*
X67578089Y-128095171D01*
X67578093Y-128095173D01*
X67807698Y-128215975D01*
X67811840Y-128218154D01*
X68065613Y-128306775D01*
X68070206Y-128307647D01*
X68325109Y-128356042D01*
X68325112Y-128356042D01*
X68329698Y-128356913D01*
X68457370Y-128361929D01*
X68593625Y-128367283D01*
X68593630Y-128367283D01*
X68598293Y-128367466D01*
X68702607Y-128356042D01*
X68860844Y-128338713D01*
X68860850Y-128338712D01*
X68865497Y-128338203D01*
X68977302Y-128308767D01*
X69120918Y-128270956D01*
X69120920Y-128270955D01*
X69125441Y-128269765D01*
X69138159Y-128264301D01*
X69368120Y-128165502D01*
X69368122Y-128165501D01*
X69372414Y-128163657D01*
X69389419Y-128153134D01*
X74396500Y-128153134D01*
X74403255Y-128215316D01*
X74454385Y-128351705D01*
X74541739Y-128468261D01*
X74658295Y-128555615D01*
X74794684Y-128606745D01*
X74856866Y-128613500D01*
X77553134Y-128613500D01*
X77615316Y-128606745D01*
X77751705Y-128555615D01*
X77868261Y-128468261D01*
X77955615Y-128351705D01*
X78006745Y-128215316D01*
X78013500Y-128153134D01*
X78013500Y-126757526D01*
X79472050Y-126757526D01*
X79472274Y-126762192D01*
X79472274Y-126762197D01*
X79474946Y-126817812D01*
X79484947Y-127026019D01*
X79537388Y-127289656D01*
X79628220Y-127542646D01*
X79755450Y-127779431D01*
X79758241Y-127783168D01*
X79758245Y-127783175D01*
X79834405Y-127885165D01*
X79916281Y-127994810D01*
X79919590Y-127998090D01*
X79919595Y-127998096D01*
X80086608Y-128163657D01*
X80107180Y-128184050D01*
X80110942Y-128186808D01*
X80110945Y-128186811D01*
X80225705Y-128270956D01*
X80323954Y-128342995D01*
X80328089Y-128345171D01*
X80328093Y-128345173D01*
X80557662Y-128465956D01*
X80561840Y-128468154D01*
X80663821Y-128503767D01*
X80793266Y-128548971D01*
X80815613Y-128556775D01*
X80820206Y-128557647D01*
X81075109Y-128606042D01*
X81075112Y-128606042D01*
X81079698Y-128606913D01*
X81207370Y-128611929D01*
X81343625Y-128617283D01*
X81343630Y-128617283D01*
X81348293Y-128617466D01*
X81452607Y-128606042D01*
X81610844Y-128588713D01*
X81610850Y-128588712D01*
X81615497Y-128588203D01*
X81620021Y-128587012D01*
X81870918Y-128520956D01*
X81870920Y-128520955D01*
X81875441Y-128519765D01*
X81880841Y-128517445D01*
X82118120Y-128415502D01*
X82118122Y-128415501D01*
X82122414Y-128413657D01*
X82243522Y-128338713D01*
X82347017Y-128274669D01*
X82347021Y-128274666D01*
X82350990Y-128272210D01*
X82556149Y-128098530D01*
X82556496Y-128098134D01*
X87191500Y-128098134D01*
X87198255Y-128160316D01*
X87249385Y-128296705D01*
X87336739Y-128413261D01*
X87453295Y-128500615D01*
X87589684Y-128551745D01*
X87651866Y-128558500D01*
X90348134Y-128558500D01*
X90410316Y-128551745D01*
X90546705Y-128500615D01*
X90663261Y-128413261D01*
X90750615Y-128296705D01*
X90801745Y-128160316D01*
X90808500Y-128098134D01*
X90808500Y-126702526D01*
X92267050Y-126702526D01*
X92279947Y-126971019D01*
X92332388Y-127234656D01*
X92423220Y-127487646D01*
X92550450Y-127724431D01*
X92553241Y-127728168D01*
X92553245Y-127728175D01*
X92643119Y-127848530D01*
X92711281Y-127939810D01*
X92714590Y-127943090D01*
X92714595Y-127943096D01*
X92874439Y-128101550D01*
X92902180Y-128129050D01*
X92905942Y-128131808D01*
X92905945Y-128131811D01*
X93067007Y-128249906D01*
X93118954Y-128287995D01*
X93123089Y-128290171D01*
X93123093Y-128290173D01*
X93352267Y-128410748D01*
X93356840Y-128413154D01*
X93610613Y-128501775D01*
X93615206Y-128502647D01*
X93870109Y-128551042D01*
X93870112Y-128551042D01*
X93874698Y-128551913D01*
X93998446Y-128556775D01*
X94138625Y-128562283D01*
X94138630Y-128562283D01*
X94143293Y-128562466D01*
X94255031Y-128550229D01*
X94405844Y-128533713D01*
X94405850Y-128533712D01*
X94410497Y-128533203D01*
X94457014Y-128520956D01*
X94665918Y-128465956D01*
X94665920Y-128465955D01*
X94670441Y-128464765D01*
X94786128Y-128415062D01*
X94913120Y-128360502D01*
X94913122Y-128360501D01*
X94917414Y-128358657D01*
X95053137Y-128274669D01*
X95142017Y-128219669D01*
X95142021Y-128219666D01*
X95145990Y-128217210D01*
X95221680Y-128153134D01*
X103896500Y-128153134D01*
X103903255Y-128215316D01*
X103954385Y-128351705D01*
X104041739Y-128468261D01*
X104158295Y-128555615D01*
X104294684Y-128606745D01*
X104356866Y-128613500D01*
X107053134Y-128613500D01*
X107115316Y-128606745D01*
X107251705Y-128555615D01*
X107368261Y-128468261D01*
X107455615Y-128351705D01*
X107493778Y-128249906D01*
X109704839Y-128249906D01*
X109713553Y-128261427D01*
X109820452Y-128339809D01*
X109828351Y-128344745D01*
X110057905Y-128465519D01*
X110066454Y-128469236D01*
X110311327Y-128554749D01*
X110320336Y-128557163D01*
X110575166Y-128605544D01*
X110584423Y-128606598D01*
X110843607Y-128616783D01*
X110852921Y-128616457D01*
X111110753Y-128588220D01*
X111119930Y-128586519D01*
X111370758Y-128520481D01*
X111379574Y-128517445D01*
X111617880Y-128415062D01*
X111626167Y-128410748D01*
X111846718Y-128274266D01*
X111854268Y-128268780D01*
X111859559Y-128264301D01*
X111867997Y-128251497D01*
X111861935Y-128241145D01*
X111773924Y-128153134D01*
X119396500Y-128153134D01*
X119403255Y-128215316D01*
X119454385Y-128351705D01*
X119541739Y-128468261D01*
X119658295Y-128555615D01*
X119794684Y-128606745D01*
X119856866Y-128613500D01*
X122553134Y-128613500D01*
X122615316Y-128606745D01*
X122751705Y-128555615D01*
X122868261Y-128468261D01*
X122955615Y-128351705D01*
X123006745Y-128215316D01*
X123013500Y-128153134D01*
X123013500Y-126757526D01*
X124472050Y-126757526D01*
X124472274Y-126762192D01*
X124472274Y-126762197D01*
X124474946Y-126817812D01*
X124484947Y-127026019D01*
X124537388Y-127289656D01*
X124628220Y-127542646D01*
X124755450Y-127779431D01*
X124758241Y-127783168D01*
X124758245Y-127783175D01*
X124834405Y-127885165D01*
X124916281Y-127994810D01*
X124919590Y-127998090D01*
X124919595Y-127998096D01*
X125086608Y-128163657D01*
X125107180Y-128184050D01*
X125110942Y-128186808D01*
X125110945Y-128186811D01*
X125225705Y-128270956D01*
X125323954Y-128342995D01*
X125328089Y-128345171D01*
X125328093Y-128345173D01*
X125557662Y-128465956D01*
X125561840Y-128468154D01*
X125663821Y-128503767D01*
X125793266Y-128548971D01*
X125815613Y-128556775D01*
X125820206Y-128557647D01*
X126075109Y-128606042D01*
X126075112Y-128606042D01*
X126079698Y-128606913D01*
X126207370Y-128611929D01*
X126343625Y-128617283D01*
X126343630Y-128617283D01*
X126348293Y-128617466D01*
X126452607Y-128606042D01*
X126610844Y-128588713D01*
X126610850Y-128588712D01*
X126615497Y-128588203D01*
X126620021Y-128587012D01*
X126870918Y-128520956D01*
X126870920Y-128520955D01*
X126875441Y-128519765D01*
X126880841Y-128517445D01*
X127118120Y-128415502D01*
X127118122Y-128415501D01*
X127122414Y-128413657D01*
X127243522Y-128338713D01*
X127347017Y-128274669D01*
X127347021Y-128274666D01*
X127350990Y-128272210D01*
X127491648Y-128153134D01*
X134896500Y-128153134D01*
X134903255Y-128215316D01*
X134954385Y-128351705D01*
X135041739Y-128468261D01*
X135158295Y-128555615D01*
X135294684Y-128606745D01*
X135356866Y-128613500D01*
X138053134Y-128613500D01*
X138115316Y-128606745D01*
X138251705Y-128555615D01*
X138368261Y-128468261D01*
X138455615Y-128351705D01*
X138493778Y-128249906D01*
X140704839Y-128249906D01*
X140713553Y-128261427D01*
X140820452Y-128339809D01*
X140828351Y-128344745D01*
X141057905Y-128465519D01*
X141066454Y-128469236D01*
X141311327Y-128554749D01*
X141320336Y-128557163D01*
X141575166Y-128605544D01*
X141584423Y-128606598D01*
X141843607Y-128616783D01*
X141852921Y-128616457D01*
X142110753Y-128588220D01*
X142119930Y-128586519D01*
X142370758Y-128520481D01*
X142379574Y-128517445D01*
X142617880Y-128415062D01*
X142626167Y-128410748D01*
X142846718Y-128274266D01*
X142854268Y-128268780D01*
X142859559Y-128264301D01*
X142867997Y-128251497D01*
X142861935Y-128241145D01*
X141797812Y-127177022D01*
X141783868Y-127169408D01*
X141782035Y-127169539D01*
X141775420Y-127173790D01*
X140711497Y-128237713D01*
X140704839Y-128249906D01*
X138493778Y-128249906D01*
X138506745Y-128215316D01*
X138513500Y-128153134D01*
X138513500Y-126762211D01*
X139972775Y-126762211D01*
X139985220Y-127021288D01*
X139986356Y-127030543D01*
X140036961Y-127284945D01*
X140039449Y-127293917D01*
X140127095Y-127538033D01*
X140130895Y-127546568D01*
X140253658Y-127775042D01*
X140258666Y-127782904D01*
X140328720Y-127876716D01*
X140339979Y-127885165D01*
X140352397Y-127878393D01*
X141412978Y-126817812D01*
X141419356Y-126806132D01*
X142149408Y-126806132D01*
X142149539Y-126807965D01*
X142153790Y-126814580D01*
X143221094Y-127881884D01*
X143233474Y-127888644D01*
X143241815Y-127882400D01*
X143375832Y-127674048D01*
X143380275Y-127665864D01*
X143486807Y-127429370D01*
X143489997Y-127420605D01*
X143560402Y-127170972D01*
X143562262Y-127161830D01*
X143595187Y-126903019D01*
X143595668Y-126896733D01*
X143597987Y-126808160D01*
X143597836Y-126801851D01*
X143578501Y-126541663D01*
X143577125Y-126532457D01*
X143519878Y-126279467D01*
X143517154Y-126270556D01*
X143423143Y-126028806D01*
X143419132Y-126020397D01*
X143290422Y-125795202D01*
X143285211Y-125787476D01*
X143241996Y-125732658D01*
X143230071Y-125724187D01*
X143218537Y-125730673D01*
X142157022Y-126792188D01*
X142149408Y-126806132D01*
X141419356Y-126806132D01*
X141420592Y-126803868D01*
X141420461Y-126802035D01*
X141416210Y-126795420D01*
X140350816Y-125730026D01*
X140337507Y-125722758D01*
X140327472Y-125729878D01*
X140311937Y-125748556D01*
X140306531Y-125756135D01*
X140171965Y-125977891D01*
X140167736Y-125986192D01*
X140067432Y-126225389D01*
X140064471Y-126234239D01*
X140000628Y-126485625D01*
X139999006Y-126494822D01*
X139973020Y-126752885D01*
X139972775Y-126762211D01*
X138513500Y-126762211D01*
X138513500Y-125456866D01*
X138506745Y-125394684D01*
X138492876Y-125357689D01*
X140702102Y-125357689D01*
X140706675Y-125367465D01*
X141772188Y-126432978D01*
X141786132Y-126440592D01*
X141787965Y-126440461D01*
X141794580Y-126436210D01*
X142859349Y-125371441D01*
X142865733Y-125359751D01*
X142856321Y-125347641D01*
X142709045Y-125245471D01*
X142701010Y-125240738D01*
X142468376Y-125126016D01*
X142459743Y-125122528D01*
X142212703Y-125043450D01*
X142203643Y-125041274D01*
X141947630Y-124999580D01*
X141938343Y-124998768D01*
X141678992Y-124995373D01*
X141669681Y-124995943D01*
X141412682Y-125030919D01*
X141403546Y-125032860D01*
X141154543Y-125105439D01*
X141145800Y-125108707D01*
X140910252Y-125217296D01*
X140902097Y-125221816D01*
X140711240Y-125346947D01*
X140702102Y-125357689D01*
X138492876Y-125357689D01*
X138455615Y-125258295D01*
X138368261Y-125141739D01*
X138251705Y-125054385D01*
X138115316Y-125003255D01*
X138053134Y-124996500D01*
X135356866Y-124996500D01*
X135294684Y-125003255D01*
X135158295Y-125054385D01*
X135041739Y-125141739D01*
X134954385Y-125258295D01*
X134903255Y-125394684D01*
X134896500Y-125456866D01*
X134896500Y-128153134D01*
X127491648Y-128153134D01*
X127556149Y-128098530D01*
X127733382Y-127896434D01*
X127740631Y-127885165D01*
X127876269Y-127674291D01*
X127878797Y-127670361D01*
X127989199Y-127425278D01*
X128026605Y-127292646D01*
X128060893Y-127171072D01*
X128060894Y-127171069D01*
X128062163Y-127166568D01*
X128077749Y-127044051D01*
X128095688Y-126903045D01*
X128095688Y-126903041D01*
X128096086Y-126899915D01*
X128096170Y-126896733D01*
X128097609Y-126841758D01*
X128098571Y-126805000D01*
X128078650Y-126536937D01*
X128070942Y-126502872D01*
X128020361Y-126279331D01*
X128020360Y-126279326D01*
X128019327Y-126274763D01*
X127921902Y-126024238D01*
X127788518Y-125790864D01*
X127775412Y-125774238D01*
X127711574Y-125693260D01*
X127622105Y-125579769D01*
X127426317Y-125395591D01*
X127228407Y-125258295D01*
X127209299Y-125245039D01*
X127209296Y-125245037D01*
X127205457Y-125242374D01*
X127163770Y-125221816D01*
X126968564Y-125125551D01*
X126968561Y-125125550D01*
X126964376Y-125123486D01*
X126918207Y-125108707D01*
X126832768Y-125081358D01*
X126708370Y-125041538D01*
X126703763Y-125040788D01*
X126703760Y-125040787D01*
X126482612Y-125004771D01*
X126443063Y-124998330D01*
X126312719Y-124996624D01*
X126178961Y-124994873D01*
X126178958Y-124994873D01*
X126174284Y-124994812D01*
X125907937Y-125031060D01*
X125903451Y-125032368D01*
X125903449Y-125032368D01*
X125843070Y-125049967D01*
X125649874Y-125106278D01*
X125405763Y-125218815D01*
X125401854Y-125221378D01*
X125184881Y-125363631D01*
X125184876Y-125363635D01*
X125180968Y-125366197D01*
X125140249Y-125402540D01*
X124985271Y-125540864D01*
X124980426Y-125545188D01*
X124808544Y-125751854D01*
X124806121Y-125755847D01*
X124679095Y-125965179D01*
X124669096Y-125981656D01*
X124667287Y-125985970D01*
X124667285Y-125985974D01*
X124651240Y-126024238D01*
X124565148Y-126229545D01*
X124498981Y-126490077D01*
X124472050Y-126757526D01*
X123013500Y-126757526D01*
X123013500Y-125456866D01*
X123006745Y-125394684D01*
X122955615Y-125258295D01*
X122868261Y-125141739D01*
X122751705Y-125054385D01*
X122615316Y-125003255D01*
X122553134Y-124996500D01*
X119856866Y-124996500D01*
X119794684Y-125003255D01*
X119658295Y-125054385D01*
X119541739Y-125141739D01*
X119454385Y-125258295D01*
X119403255Y-125394684D01*
X119396500Y-125456866D01*
X119396500Y-128153134D01*
X111773924Y-128153134D01*
X110797812Y-127177022D01*
X110783868Y-127169408D01*
X110782035Y-127169539D01*
X110775420Y-127173790D01*
X109711497Y-128237713D01*
X109704839Y-128249906D01*
X107493778Y-128249906D01*
X107506745Y-128215316D01*
X107513500Y-128153134D01*
X107513500Y-126762211D01*
X108972775Y-126762211D01*
X108985220Y-127021288D01*
X108986356Y-127030543D01*
X109036961Y-127284945D01*
X109039449Y-127293917D01*
X109127095Y-127538033D01*
X109130895Y-127546568D01*
X109253658Y-127775042D01*
X109258666Y-127782904D01*
X109328720Y-127876716D01*
X109339979Y-127885165D01*
X109352397Y-127878393D01*
X110412978Y-126817812D01*
X110419356Y-126806132D01*
X111149408Y-126806132D01*
X111149539Y-126807965D01*
X111153790Y-126814580D01*
X112221094Y-127881884D01*
X112233474Y-127888644D01*
X112241815Y-127882400D01*
X112375832Y-127674048D01*
X112380275Y-127665864D01*
X112486807Y-127429370D01*
X112489997Y-127420605D01*
X112560402Y-127170972D01*
X112562262Y-127161830D01*
X112595187Y-126903019D01*
X112595668Y-126896733D01*
X112597987Y-126808160D01*
X112597836Y-126801851D01*
X112578501Y-126541663D01*
X112577125Y-126532457D01*
X112519878Y-126279467D01*
X112517154Y-126270556D01*
X112423143Y-126028806D01*
X112419132Y-126020397D01*
X112290422Y-125795202D01*
X112285211Y-125787476D01*
X112241996Y-125732658D01*
X112230071Y-125724187D01*
X112218537Y-125730673D01*
X111157022Y-126792188D01*
X111149408Y-126806132D01*
X110419356Y-126806132D01*
X110420592Y-126803868D01*
X110420461Y-126802035D01*
X110416210Y-126795420D01*
X109350816Y-125730026D01*
X109337507Y-125722758D01*
X109327472Y-125729878D01*
X109311937Y-125748556D01*
X109306531Y-125756135D01*
X109171965Y-125977891D01*
X109167736Y-125986192D01*
X109067432Y-126225389D01*
X109064471Y-126234239D01*
X109000628Y-126485625D01*
X108999006Y-126494822D01*
X108973020Y-126752885D01*
X108972775Y-126762211D01*
X107513500Y-126762211D01*
X107513500Y-125456866D01*
X107506745Y-125394684D01*
X107492876Y-125357689D01*
X109702102Y-125357689D01*
X109706675Y-125367465D01*
X110772188Y-126432978D01*
X110786132Y-126440592D01*
X110787965Y-126440461D01*
X110794580Y-126436210D01*
X111859349Y-125371441D01*
X111865733Y-125359751D01*
X111856321Y-125347641D01*
X111709045Y-125245471D01*
X111701010Y-125240738D01*
X111468376Y-125126016D01*
X111459743Y-125122528D01*
X111212703Y-125043450D01*
X111203643Y-125041274D01*
X110947630Y-124999580D01*
X110938343Y-124998768D01*
X110678992Y-124995373D01*
X110669681Y-124995943D01*
X110412682Y-125030919D01*
X110403546Y-125032860D01*
X110154543Y-125105439D01*
X110145800Y-125108707D01*
X109910252Y-125217296D01*
X109902097Y-125221816D01*
X109711240Y-125346947D01*
X109702102Y-125357689D01*
X107492876Y-125357689D01*
X107455615Y-125258295D01*
X107368261Y-125141739D01*
X107251705Y-125054385D01*
X107115316Y-125003255D01*
X107053134Y-124996500D01*
X104356866Y-124996500D01*
X104294684Y-125003255D01*
X104158295Y-125054385D01*
X104041739Y-125141739D01*
X103954385Y-125258295D01*
X103903255Y-125394684D01*
X103896500Y-125456866D01*
X103896500Y-128153134D01*
X95221680Y-128153134D01*
X95351149Y-128043530D01*
X95528382Y-127841434D01*
X95565856Y-127783175D01*
X95641312Y-127665864D01*
X95673797Y-127615361D01*
X95784199Y-127370278D01*
X95808228Y-127285079D01*
X95855893Y-127116072D01*
X95855894Y-127116069D01*
X95857163Y-127111568D01*
X95865752Y-127044051D01*
X95890688Y-126848045D01*
X95890688Y-126848041D01*
X95891086Y-126844915D01*
X95892054Y-126807965D01*
X95893251Y-126762211D01*
X95893571Y-126750000D01*
X95885899Y-126646758D01*
X95873996Y-126486592D01*
X95873996Y-126486591D01*
X95873650Y-126481937D01*
X95864101Y-126439735D01*
X95815361Y-126224331D01*
X95815360Y-126224326D01*
X95814327Y-126219763D01*
X95716902Y-125969238D01*
X95583518Y-125735864D01*
X95417105Y-125524769D01*
X95221317Y-125340591D01*
X95033480Y-125210283D01*
X95004299Y-125190039D01*
X95004296Y-125190037D01*
X95000457Y-125187374D01*
X94996264Y-125185306D01*
X94763564Y-125070551D01*
X94763561Y-125070550D01*
X94759376Y-125068486D01*
X94732151Y-125059771D01*
X94640489Y-125030430D01*
X94503370Y-124986538D01*
X94498763Y-124985788D01*
X94498760Y-124985787D01*
X94285337Y-124951029D01*
X94238063Y-124943330D01*
X94107719Y-124941624D01*
X93973961Y-124939873D01*
X93973958Y-124939873D01*
X93969284Y-124939812D01*
X93702937Y-124976060D01*
X93444874Y-125051278D01*
X93200763Y-125163815D01*
X93196854Y-125166378D01*
X92979881Y-125308631D01*
X92979876Y-125308635D01*
X92975968Y-125311197D01*
X92890719Y-125387285D01*
X92808932Y-125460283D01*
X92775426Y-125490188D01*
X92603544Y-125696854D01*
X92464096Y-125926656D01*
X92462287Y-125930970D01*
X92462285Y-125930974D01*
X92421351Y-126028592D01*
X92360148Y-126174545D01*
X92293981Y-126435077D01*
X92267050Y-126702526D01*
X90808500Y-126702526D01*
X90808500Y-125401866D01*
X90801745Y-125339684D01*
X90750615Y-125203295D01*
X90663261Y-125086739D01*
X90546705Y-124999385D01*
X90410316Y-124948255D01*
X90348134Y-124941500D01*
X87651866Y-124941500D01*
X87589684Y-124948255D01*
X87453295Y-124999385D01*
X87336739Y-125086739D01*
X87249385Y-125203295D01*
X87198255Y-125339684D01*
X87191500Y-125401866D01*
X87191500Y-128098134D01*
X82556496Y-128098134D01*
X82733382Y-127896434D01*
X82740631Y-127885165D01*
X82876269Y-127674291D01*
X82878797Y-127670361D01*
X82989199Y-127425278D01*
X83026605Y-127292646D01*
X83060893Y-127171072D01*
X83060894Y-127171069D01*
X83062163Y-127166568D01*
X83077749Y-127044051D01*
X83095688Y-126903045D01*
X83095688Y-126903041D01*
X83096086Y-126899915D01*
X83096170Y-126896733D01*
X83097609Y-126841758D01*
X83098571Y-126805000D01*
X83078650Y-126536937D01*
X83070942Y-126502872D01*
X83020361Y-126279331D01*
X83020360Y-126279326D01*
X83019327Y-126274763D01*
X82921902Y-126024238D01*
X82788518Y-125790864D01*
X82775412Y-125774238D01*
X82711574Y-125693260D01*
X82622105Y-125579769D01*
X82426317Y-125395591D01*
X82228407Y-125258295D01*
X82209299Y-125245039D01*
X82209296Y-125245037D01*
X82205457Y-125242374D01*
X82163770Y-125221816D01*
X81968564Y-125125551D01*
X81968561Y-125125550D01*
X81964376Y-125123486D01*
X81918207Y-125108707D01*
X81832768Y-125081358D01*
X81708370Y-125041538D01*
X81703763Y-125040788D01*
X81703760Y-125040787D01*
X81482612Y-125004771D01*
X81443063Y-124998330D01*
X81312719Y-124996624D01*
X81178961Y-124994873D01*
X81178958Y-124994873D01*
X81174284Y-124994812D01*
X80907937Y-125031060D01*
X80903451Y-125032368D01*
X80903449Y-125032368D01*
X80843070Y-125049967D01*
X80649874Y-125106278D01*
X80405763Y-125218815D01*
X80401854Y-125221378D01*
X80184881Y-125363631D01*
X80184876Y-125363635D01*
X80180968Y-125366197D01*
X80140249Y-125402540D01*
X79985271Y-125540864D01*
X79980426Y-125545188D01*
X79808544Y-125751854D01*
X79806121Y-125755847D01*
X79679095Y-125965179D01*
X79669096Y-125981656D01*
X79667287Y-125985970D01*
X79667285Y-125985974D01*
X79651240Y-126024238D01*
X79565148Y-126229545D01*
X79498981Y-126490077D01*
X79472050Y-126757526D01*
X78013500Y-126757526D01*
X78013500Y-125456866D01*
X78006745Y-125394684D01*
X77955615Y-125258295D01*
X77868261Y-125141739D01*
X77751705Y-125054385D01*
X77615316Y-125003255D01*
X77553134Y-124996500D01*
X74856866Y-124996500D01*
X74794684Y-125003255D01*
X74658295Y-125054385D01*
X74541739Y-125141739D01*
X74454385Y-125258295D01*
X74403255Y-125394684D01*
X74396500Y-125456866D01*
X74396500Y-128153134D01*
X69389419Y-128153134D01*
X69561657Y-128046550D01*
X69597017Y-128024669D01*
X69597021Y-128024666D01*
X69600990Y-128022210D01*
X69806149Y-127848530D01*
X69983382Y-127646434D01*
X70052974Y-127538242D01*
X70091609Y-127478176D01*
X70128797Y-127420361D01*
X70239199Y-127175278D01*
X70240855Y-127169408D01*
X70310893Y-126921072D01*
X70310894Y-126921069D01*
X70312163Y-126916568D01*
X70326356Y-126805000D01*
X70345688Y-126653045D01*
X70345688Y-126653041D01*
X70346086Y-126649915D01*
X70348571Y-126555000D01*
X70328650Y-126286937D01*
X70326929Y-126279331D01*
X70270361Y-126029331D01*
X70270360Y-126029326D01*
X70269327Y-126024763D01*
X70171902Y-125774238D01*
X70038518Y-125540864D01*
X70028722Y-125528437D01*
X69931635Y-125405283D01*
X69872105Y-125329769D01*
X69676317Y-125145591D01*
X69478407Y-125008295D01*
X69459299Y-124995039D01*
X69459296Y-124995037D01*
X69455457Y-124992374D01*
X69451264Y-124990306D01*
X69218564Y-124875551D01*
X69218561Y-124875550D01*
X69214376Y-124873486D01*
X69166745Y-124858239D01*
X68988657Y-124801233D01*
X68958370Y-124791538D01*
X68953763Y-124790788D01*
X68953760Y-124790787D01*
X68740337Y-124756029D01*
X68693063Y-124748330D01*
X68562719Y-124746624D01*
X68428961Y-124744873D01*
X68428958Y-124744873D01*
X68424284Y-124744812D01*
X68157937Y-124781060D01*
X67899874Y-124856278D01*
X67655763Y-124968815D01*
X67622984Y-124990306D01*
X67434881Y-125113631D01*
X67434876Y-125113635D01*
X67430968Y-125116197D01*
X67420488Y-125125551D01*
X67262341Y-125266703D01*
X67230426Y-125295188D01*
X67058544Y-125501854D01*
X66919096Y-125731656D01*
X66917287Y-125735970D01*
X66917285Y-125735974D01*
X66895689Y-125787476D01*
X66815148Y-125979545D01*
X66748981Y-126240077D01*
X66722050Y-126507526D01*
X65263500Y-126507526D01*
X65263500Y-125206866D01*
X65256745Y-125144684D01*
X65205615Y-125008295D01*
X65118261Y-124891739D01*
X65001705Y-124804385D01*
X64865316Y-124753255D01*
X64803134Y-124746500D01*
X62106866Y-124746500D01*
X62044684Y-124753255D01*
X61908295Y-124804385D01*
X61791739Y-124891739D01*
X61704385Y-125008295D01*
X61653255Y-125144684D01*
X61646500Y-125206866D01*
X61646500Y-127903134D01*
X58758500Y-127903134D01*
X58758500Y-113128918D01*
X112436917Y-113128918D01*
X112452682Y-113402320D01*
X112453507Y-113406525D01*
X112453508Y-113406533D01*
X112483917Y-113561526D01*
X112505405Y-113671053D01*
X112506792Y-113675103D01*
X112506793Y-113675108D01*
X112544724Y-113785895D01*
X112594112Y-113930144D01*
X112717160Y-114174799D01*
X112719586Y-114178328D01*
X112719589Y-114178334D01*
X112788585Y-114278723D01*
X112872274Y-114400490D01*
X113056582Y-114603043D01*
X113266675Y-114778707D01*
X113270316Y-114780991D01*
X113495024Y-114921951D01*
X113495028Y-114921953D01*
X113498664Y-114924234D01*
X113566544Y-114954883D01*
X113744345Y-115035164D01*
X113744349Y-115035166D01*
X113748257Y-115036930D01*
X113752377Y-115038150D01*
X113752376Y-115038150D01*
X114006723Y-115113491D01*
X114006727Y-115113492D01*
X114010836Y-115114709D01*
X114015070Y-115115357D01*
X114015075Y-115115358D01*
X114277298Y-115155483D01*
X114277300Y-115155483D01*
X114281540Y-115156132D01*
X114420912Y-115158322D01*
X114551071Y-115160367D01*
X114551077Y-115160367D01*
X114555362Y-115160434D01*
X114827235Y-115127534D01*
X115092127Y-115058041D01*
X115096087Y-115056401D01*
X115096092Y-115056399D01*
X115290191Y-114976000D01*
X115345136Y-114953241D01*
X115581582Y-114815073D01*
X115797089Y-114646094D01*
X115838809Y-114603043D01*
X115936233Y-114502509D01*
X115987669Y-114449431D01*
X115990202Y-114445983D01*
X115990206Y-114445978D01*
X116147257Y-114232178D01*
X116149795Y-114228723D01*
X116177154Y-114178334D01*
X116278418Y-113991830D01*
X116278419Y-113991828D01*
X116280468Y-113988054D01*
X116328868Y-113859966D01*
X116375751Y-113735895D01*
X116375752Y-113735891D01*
X116377269Y-113731877D01*
X116438407Y-113464933D01*
X116439916Y-113448032D01*
X116462531Y-113194627D01*
X116462531Y-113194625D01*
X116462751Y-113192161D01*
X116462890Y-113178918D01*
X124486917Y-113178918D01*
X124502682Y-113452320D01*
X124503507Y-113456525D01*
X124503508Y-113456533D01*
X124505977Y-113469117D01*
X124555405Y-113721053D01*
X124556792Y-113725103D01*
X124556793Y-113725108D01*
X124642723Y-113976088D01*
X124644112Y-113980144D01*
X124767160Y-114224799D01*
X124769586Y-114228328D01*
X124769589Y-114228334D01*
X124885479Y-114396953D01*
X124922274Y-114450490D01*
X124925161Y-114453663D01*
X124925162Y-114453664D01*
X125097453Y-114643010D01*
X125106582Y-114653043D01*
X125316675Y-114828707D01*
X125320316Y-114830991D01*
X125545024Y-114971951D01*
X125545028Y-114971953D01*
X125548664Y-114974234D01*
X125616544Y-115004883D01*
X125794345Y-115085164D01*
X125794349Y-115085166D01*
X125798257Y-115086930D01*
X125802377Y-115088150D01*
X125802376Y-115088150D01*
X126056723Y-115163491D01*
X126056727Y-115163492D01*
X126060836Y-115164709D01*
X126065070Y-115165357D01*
X126065075Y-115165358D01*
X126327298Y-115205483D01*
X126327300Y-115205483D01*
X126331540Y-115206132D01*
X126470912Y-115208322D01*
X126601071Y-115210367D01*
X126601077Y-115210367D01*
X126605362Y-115210434D01*
X126877235Y-115177534D01*
X127142127Y-115108041D01*
X127146087Y-115106401D01*
X127146092Y-115106399D01*
X127310858Y-115038150D01*
X127395136Y-115003241D01*
X127631582Y-114865073D01*
X127847089Y-114696094D01*
X127888809Y-114653043D01*
X128034686Y-114502509D01*
X128037669Y-114499431D01*
X128040202Y-114495983D01*
X128040206Y-114495978D01*
X128197257Y-114282178D01*
X128199795Y-114278723D01*
X128228989Y-114224955D01*
X128328418Y-114041830D01*
X128328419Y-114041828D01*
X128330468Y-114038054D01*
X128427269Y-113781877D01*
X128488407Y-113514933D01*
X128492870Y-113464933D01*
X128512531Y-113244627D01*
X128512531Y-113244625D01*
X128512751Y-113242161D01*
X128513193Y-113200000D01*
X128509954Y-113152484D01*
X128494859Y-112931055D01*
X128494858Y-112931049D01*
X128494567Y-112926778D01*
X128484213Y-112876778D01*
X128439901Y-112662809D01*
X128439032Y-112658612D01*
X128347617Y-112400465D01*
X128222013Y-112157112D01*
X128212040Y-112142921D01*
X128067008Y-111936562D01*
X128064545Y-111933057D01*
X127878125Y-111732445D01*
X127874810Y-111729731D01*
X127874806Y-111729728D01*
X127669523Y-111561706D01*
X127666205Y-111558990D01*
X127432704Y-111415901D01*
X127428768Y-111414173D01*
X127185873Y-111307549D01*
X127185869Y-111307548D01*
X127181945Y-111305825D01*
X126918566Y-111230800D01*
X126914324Y-111230196D01*
X126914318Y-111230195D01*
X126713834Y-111201662D01*
X126647443Y-111192213D01*
X126503589Y-111191460D01*
X126377877Y-111190802D01*
X126377871Y-111190802D01*
X126373591Y-111190780D01*
X126369347Y-111191339D01*
X126369343Y-111191339D01*
X126250302Y-111207011D01*
X126102078Y-111226525D01*
X126097938Y-111227658D01*
X126097936Y-111227658D01*
X126025008Y-111247609D01*
X125837928Y-111298788D01*
X125833980Y-111300472D01*
X125589982Y-111404546D01*
X125589978Y-111404548D01*
X125586030Y-111406232D01*
X125566125Y-111418145D01*
X125354725Y-111544664D01*
X125354721Y-111544667D01*
X125351043Y-111546868D01*
X125137318Y-111718094D01*
X125120717Y-111735588D01*
X124983755Y-111879916D01*
X124948808Y-111916742D01*
X124789002Y-112139136D01*
X124660857Y-112381161D01*
X124659385Y-112385184D01*
X124659383Y-112385188D01*
X124577621Y-112608612D01*
X124566743Y-112638337D01*
X124508404Y-112905907D01*
X124486917Y-113178918D01*
X116462890Y-113178918D01*
X116463193Y-113150000D01*
X116461465Y-113124648D01*
X116444859Y-112881055D01*
X116444858Y-112881049D01*
X116444567Y-112876778D01*
X116389032Y-112608612D01*
X116297617Y-112350465D01*
X116172013Y-112107112D01*
X116162040Y-112092921D01*
X116017008Y-111886562D01*
X116014545Y-111883057D01*
X115944466Y-111807643D01*
X115831046Y-111685588D01*
X115831043Y-111685585D01*
X115828125Y-111682445D01*
X115824810Y-111679731D01*
X115824806Y-111679728D01*
X115619523Y-111511706D01*
X115616205Y-111508990D01*
X115382704Y-111365901D01*
X115378768Y-111364173D01*
X115135873Y-111257549D01*
X115135869Y-111257548D01*
X115131945Y-111255825D01*
X114868566Y-111180800D01*
X114864324Y-111180196D01*
X114864318Y-111180195D01*
X114663834Y-111151662D01*
X114597443Y-111142213D01*
X114453589Y-111141460D01*
X114327877Y-111140802D01*
X114327871Y-111140802D01*
X114323591Y-111140780D01*
X114319347Y-111141339D01*
X114319343Y-111141339D01*
X114200302Y-111157011D01*
X114052078Y-111176525D01*
X114047938Y-111177658D01*
X114047936Y-111177658D01*
X113994732Y-111192213D01*
X113787928Y-111248788D01*
X113783980Y-111250472D01*
X113539982Y-111354546D01*
X113539978Y-111354548D01*
X113536030Y-111356232D01*
X113516125Y-111368145D01*
X113304725Y-111494664D01*
X113304721Y-111494667D01*
X113301043Y-111496868D01*
X113087318Y-111668094D01*
X112898808Y-111866742D01*
X112739002Y-112089136D01*
X112610857Y-112331161D01*
X112609385Y-112335184D01*
X112609383Y-112335188D01*
X112586889Y-112396656D01*
X112516743Y-112588337D01*
X112458404Y-112855907D01*
X112436917Y-113128918D01*
X58758500Y-113128918D01*
X58758500Y-106000000D01*
X63586496Y-106000000D01*
X63606458Y-106189928D01*
X63665473Y-106371556D01*
X63760960Y-106536944D01*
X63888747Y-106678866D01*
X64043248Y-106791118D01*
X64049276Y-106793802D01*
X64049278Y-106793803D01*
X64211681Y-106866109D01*
X64217712Y-106868794D01*
X64311113Y-106888647D01*
X64398056Y-106907128D01*
X64398061Y-106907128D01*
X64404513Y-106908500D01*
X64595487Y-106908500D01*
X64601939Y-106907128D01*
X64601944Y-106907128D01*
X64688887Y-106888647D01*
X64782288Y-106868794D01*
X64788319Y-106866109D01*
X64950722Y-106793803D01*
X64950724Y-106793802D01*
X64956752Y-106791118D01*
X65111253Y-106678866D01*
X65239040Y-106536944D01*
X65334527Y-106371556D01*
X65393542Y-106189928D01*
X65413504Y-106000000D01*
X75836496Y-106000000D01*
X75856458Y-106189928D01*
X75915473Y-106371556D01*
X76010960Y-106536944D01*
X76138747Y-106678866D01*
X76293248Y-106791118D01*
X76299276Y-106793802D01*
X76299278Y-106793803D01*
X76461681Y-106866109D01*
X76467712Y-106868794D01*
X76561113Y-106888647D01*
X76648056Y-106907128D01*
X76648061Y-106907128D01*
X76654513Y-106908500D01*
X76845487Y-106908500D01*
X76851939Y-106907128D01*
X76851944Y-106907128D01*
X76938887Y-106888647D01*
X77032288Y-106868794D01*
X77038319Y-106866109D01*
X77200722Y-106793803D01*
X77200724Y-106793802D01*
X77206752Y-106791118D01*
X77361253Y-106678866D01*
X77489040Y-106536944D01*
X77584527Y-106371556D01*
X77643542Y-106189928D01*
X77663504Y-106000000D01*
X77657190Y-105939928D01*
X77644232Y-105816635D01*
X77644232Y-105816633D01*
X77643542Y-105810072D01*
X77624023Y-105750000D01*
X88586496Y-105750000D01*
X88587186Y-105756565D01*
X88593500Y-105816635D01*
X88606458Y-105939928D01*
X88665473Y-106121556D01*
X88760960Y-106286944D01*
X88888747Y-106428866D01*
X89043248Y-106541118D01*
X89049276Y-106543802D01*
X89049278Y-106543803D01*
X89211681Y-106616109D01*
X89217712Y-106618794D01*
X89311113Y-106638647D01*
X89398056Y-106657128D01*
X89398061Y-106657128D01*
X89404513Y-106658500D01*
X89595487Y-106658500D01*
X89601939Y-106657128D01*
X89601944Y-106657128D01*
X89688887Y-106638647D01*
X89782288Y-106618794D01*
X89788319Y-106616109D01*
X89950722Y-106543803D01*
X89950724Y-106543802D01*
X89956752Y-106541118D01*
X90111253Y-106428866D01*
X90239040Y-106286944D01*
X90334527Y-106121556D01*
X90393542Y-105939928D01*
X90406501Y-105816635D01*
X90412814Y-105756565D01*
X90413504Y-105750000D01*
X90393542Y-105560072D01*
X90334527Y-105378444D01*
X90239040Y-105213056D01*
X90111253Y-105071134D01*
X89956752Y-104958882D01*
X89950724Y-104956198D01*
X89950722Y-104956197D01*
X89788319Y-104883891D01*
X89788318Y-104883891D01*
X89782288Y-104881206D01*
X89688887Y-104861353D01*
X89601944Y-104842872D01*
X89601939Y-104842872D01*
X89595487Y-104841500D01*
X89404513Y-104841500D01*
X89398061Y-104842872D01*
X89398056Y-104842872D01*
X89311113Y-104861353D01*
X89217712Y-104881206D01*
X89211682Y-104883891D01*
X89211681Y-104883891D01*
X89049278Y-104956197D01*
X89049276Y-104956198D01*
X89043248Y-104958882D01*
X88888747Y-105071134D01*
X88760960Y-105213056D01*
X88665473Y-105378444D01*
X88606458Y-105560072D01*
X88586496Y-105750000D01*
X77624023Y-105750000D01*
X77584527Y-105628444D01*
X77489040Y-105463056D01*
X77361253Y-105321134D01*
X77206752Y-105208882D01*
X77200724Y-105206198D01*
X77200722Y-105206197D01*
X77038319Y-105133891D01*
X77038318Y-105133891D01*
X77032288Y-105131206D01*
X76938888Y-105111353D01*
X76851944Y-105092872D01*
X76851939Y-105092872D01*
X76845487Y-105091500D01*
X76654513Y-105091500D01*
X76648061Y-105092872D01*
X76648056Y-105092872D01*
X76561112Y-105111353D01*
X76467712Y-105131206D01*
X76461682Y-105133891D01*
X76461681Y-105133891D01*
X76299278Y-105206197D01*
X76299276Y-105206198D01*
X76293248Y-105208882D01*
X76138747Y-105321134D01*
X76010960Y-105463056D01*
X75915473Y-105628444D01*
X75856458Y-105810072D01*
X75855768Y-105816633D01*
X75855768Y-105816635D01*
X75842810Y-105939928D01*
X75836496Y-106000000D01*
X65413504Y-106000000D01*
X65407190Y-105939928D01*
X65394232Y-105816635D01*
X65394232Y-105816633D01*
X65393542Y-105810072D01*
X65334527Y-105628444D01*
X65239040Y-105463056D01*
X65111253Y-105321134D01*
X64956752Y-105208882D01*
X64950724Y-105206198D01*
X64950722Y-105206197D01*
X64788319Y-105133891D01*
X64788318Y-105133891D01*
X64782288Y-105131206D01*
X64688888Y-105111353D01*
X64601944Y-105092872D01*
X64601939Y-105092872D01*
X64595487Y-105091500D01*
X64404513Y-105091500D01*
X64398061Y-105092872D01*
X64398056Y-105092872D01*
X64311112Y-105111353D01*
X64217712Y-105131206D01*
X64211682Y-105133891D01*
X64211681Y-105133891D01*
X64049278Y-105206197D01*
X64049276Y-105206198D01*
X64043248Y-105208882D01*
X63888747Y-105321134D01*
X63760960Y-105463056D01*
X63665473Y-105628444D01*
X63606458Y-105810072D01*
X63605768Y-105816633D01*
X63605768Y-105816635D01*
X63592810Y-105939928D01*
X63586496Y-106000000D01*
X58758500Y-106000000D01*
X58758500Y-102750000D01*
X65586496Y-102750000D01*
X65587186Y-102756565D01*
X65594489Y-102826045D01*
X65606458Y-102939928D01*
X65665473Y-103121556D01*
X65760960Y-103286944D01*
X65765378Y-103291851D01*
X65765379Y-103291852D01*
X65787694Y-103316635D01*
X65888747Y-103428866D01*
X66043248Y-103541118D01*
X66049276Y-103543802D01*
X66049278Y-103543803D01*
X66211681Y-103616109D01*
X66217712Y-103618794D01*
X66311112Y-103638647D01*
X66398056Y-103657128D01*
X66398061Y-103657128D01*
X66404513Y-103658500D01*
X66595487Y-103658500D01*
X66601939Y-103657128D01*
X66601944Y-103657128D01*
X66688888Y-103638647D01*
X66782288Y-103618794D01*
X66788319Y-103616109D01*
X66950722Y-103543803D01*
X66950724Y-103543802D01*
X66956752Y-103541118D01*
X67013346Y-103500000D01*
X69586496Y-103500000D01*
X69587186Y-103506565D01*
X69603011Y-103657128D01*
X69606458Y-103689928D01*
X69665473Y-103871556D01*
X69760960Y-104036944D01*
X69888747Y-104178866D01*
X70043248Y-104291118D01*
X70049276Y-104293802D01*
X70049278Y-104293803D01*
X70211681Y-104366109D01*
X70217712Y-104368794D01*
X70311113Y-104388647D01*
X70398056Y-104407128D01*
X70398061Y-104407128D01*
X70404513Y-104408500D01*
X70595487Y-104408500D01*
X70601939Y-104407128D01*
X70601944Y-104407128D01*
X70688887Y-104388647D01*
X70782288Y-104368794D01*
X70788319Y-104366109D01*
X70950722Y-104293803D01*
X70950724Y-104293802D01*
X70956752Y-104291118D01*
X71111253Y-104178866D01*
X71239040Y-104036944D01*
X71334527Y-103871556D01*
X71393542Y-103689928D01*
X71396990Y-103657128D01*
X71412814Y-103506565D01*
X71413504Y-103500000D01*
X71406028Y-103428866D01*
X71394232Y-103316635D01*
X71394232Y-103316633D01*
X71393542Y-103310072D01*
X71334527Y-103128444D01*
X71239040Y-102963056D01*
X71218216Y-102939928D01*
X71115675Y-102826045D01*
X71115674Y-102826044D01*
X71111253Y-102821134D01*
X71013346Y-102750000D01*
X77836496Y-102750000D01*
X77837186Y-102756565D01*
X77844489Y-102826045D01*
X77856458Y-102939928D01*
X77915473Y-103121556D01*
X78010960Y-103286944D01*
X78015378Y-103291851D01*
X78015379Y-103291852D01*
X78037694Y-103316635D01*
X78138747Y-103428866D01*
X78293248Y-103541118D01*
X78299276Y-103543802D01*
X78299278Y-103543803D01*
X78461681Y-103616109D01*
X78467712Y-103618794D01*
X78561112Y-103638647D01*
X78648056Y-103657128D01*
X78648061Y-103657128D01*
X78654513Y-103658500D01*
X78845487Y-103658500D01*
X78851939Y-103657128D01*
X78851944Y-103657128D01*
X78938888Y-103638647D01*
X79032288Y-103618794D01*
X79038319Y-103616109D01*
X79200722Y-103543803D01*
X79200724Y-103543802D01*
X79206752Y-103541118D01*
X79263346Y-103500000D01*
X81836496Y-103500000D01*
X81837186Y-103506565D01*
X81853011Y-103657128D01*
X81856458Y-103689928D01*
X81915473Y-103871556D01*
X82010960Y-104036944D01*
X82138747Y-104178866D01*
X82293248Y-104291118D01*
X82299276Y-104293802D01*
X82299278Y-104293803D01*
X82461681Y-104366109D01*
X82467712Y-104368794D01*
X82561113Y-104388647D01*
X82648056Y-104407128D01*
X82648061Y-104407128D01*
X82654513Y-104408500D01*
X82845487Y-104408500D01*
X82851939Y-104407128D01*
X82851944Y-104407128D01*
X82938887Y-104388647D01*
X83032288Y-104368794D01*
X83038319Y-104366109D01*
X83200722Y-104293803D01*
X83200724Y-104293802D01*
X83206752Y-104291118D01*
X83361253Y-104178866D01*
X83489040Y-104036944D01*
X83584527Y-103871556D01*
X83643542Y-103689928D01*
X83646990Y-103657128D01*
X83662814Y-103506565D01*
X83663504Y-103500000D01*
X83656028Y-103428866D01*
X83644232Y-103316635D01*
X83644232Y-103316633D01*
X83643542Y-103310072D01*
X83584527Y-103128444D01*
X83489040Y-102963056D01*
X83468216Y-102939928D01*
X83365675Y-102826045D01*
X83365674Y-102826044D01*
X83361253Y-102821134D01*
X83263346Y-102750000D01*
X90586496Y-102750000D01*
X90587186Y-102756565D01*
X90594489Y-102826045D01*
X90606458Y-102939928D01*
X90665473Y-103121556D01*
X90760960Y-103286944D01*
X90765378Y-103291851D01*
X90765379Y-103291852D01*
X90787694Y-103316635D01*
X90888747Y-103428866D01*
X91043248Y-103541118D01*
X91049276Y-103543802D01*
X91049278Y-103543803D01*
X91211681Y-103616109D01*
X91217712Y-103618794D01*
X91311112Y-103638647D01*
X91398056Y-103657128D01*
X91398061Y-103657128D01*
X91404513Y-103658500D01*
X91595487Y-103658500D01*
X91601939Y-103657128D01*
X91601944Y-103657128D01*
X91688888Y-103638647D01*
X91782288Y-103618794D01*
X91788319Y-103616109D01*
X91950722Y-103543803D01*
X91950724Y-103543802D01*
X91956752Y-103541118D01*
X92111253Y-103428866D01*
X92212306Y-103316635D01*
X92234621Y-103291852D01*
X92234622Y-103291851D01*
X92239040Y-103286944D01*
X92334527Y-103121556D01*
X92393542Y-102939928D01*
X92405512Y-102826045D01*
X92412814Y-102756565D01*
X92413504Y-102750000D01*
X92408436Y-102701781D01*
X92394232Y-102566635D01*
X92394232Y-102566633D01*
X92393542Y-102560072D01*
X92334527Y-102378444D01*
X92239040Y-102213056D01*
X92231118Y-102204257D01*
X92115675Y-102076045D01*
X92115674Y-102076044D01*
X92111253Y-102071134D01*
X91956752Y-101958882D01*
X91950724Y-101956198D01*
X91950722Y-101956197D01*
X91788319Y-101883891D01*
X91788318Y-101883891D01*
X91782288Y-101881206D01*
X91688887Y-101861353D01*
X91601944Y-101842872D01*
X91601939Y-101842872D01*
X91595487Y-101841500D01*
X91404513Y-101841500D01*
X91398061Y-101842872D01*
X91398056Y-101842872D01*
X91311112Y-101861353D01*
X91217712Y-101881206D01*
X91211682Y-101883891D01*
X91211681Y-101883891D01*
X91049278Y-101956197D01*
X91049276Y-101956198D01*
X91043248Y-101958882D01*
X90888747Y-102071134D01*
X90884326Y-102076044D01*
X90884325Y-102076045D01*
X90768883Y-102204257D01*
X90760960Y-102213056D01*
X90665473Y-102378444D01*
X90606458Y-102560072D01*
X90605768Y-102566633D01*
X90605768Y-102566635D01*
X90591564Y-102701781D01*
X90586496Y-102750000D01*
X83263346Y-102750000D01*
X83206752Y-102708882D01*
X83200724Y-102706198D01*
X83200722Y-102706197D01*
X83038319Y-102633891D01*
X83038318Y-102633891D01*
X83032288Y-102631206D01*
X82938888Y-102611353D01*
X82851944Y-102592872D01*
X82851939Y-102592872D01*
X82845487Y-102591500D01*
X82654513Y-102591500D01*
X82648061Y-102592872D01*
X82648056Y-102592872D01*
X82561113Y-102611353D01*
X82467712Y-102631206D01*
X82461682Y-102633891D01*
X82461681Y-102633891D01*
X82299278Y-102706197D01*
X82299276Y-102706198D01*
X82293248Y-102708882D01*
X82138747Y-102821134D01*
X82134326Y-102826044D01*
X82134325Y-102826045D01*
X82031785Y-102939928D01*
X82010960Y-102963056D01*
X81915473Y-103128444D01*
X81856458Y-103310072D01*
X81855768Y-103316633D01*
X81855768Y-103316635D01*
X81843972Y-103428866D01*
X81836496Y-103500000D01*
X79263346Y-103500000D01*
X79361253Y-103428866D01*
X79462306Y-103316635D01*
X79484621Y-103291852D01*
X79484622Y-103291851D01*
X79489040Y-103286944D01*
X79584527Y-103121556D01*
X79643542Y-102939928D01*
X79655512Y-102826045D01*
X79662814Y-102756565D01*
X79663504Y-102750000D01*
X79658436Y-102701781D01*
X79644232Y-102566635D01*
X79644232Y-102566633D01*
X79643542Y-102560072D01*
X79584527Y-102378444D01*
X79489040Y-102213056D01*
X79481118Y-102204257D01*
X79365675Y-102076045D01*
X79365674Y-102076044D01*
X79361253Y-102071134D01*
X79206752Y-101958882D01*
X79200724Y-101956198D01*
X79200722Y-101956197D01*
X79038319Y-101883891D01*
X79038318Y-101883891D01*
X79032288Y-101881206D01*
X78938887Y-101861353D01*
X78851944Y-101842872D01*
X78851939Y-101842872D01*
X78845487Y-101841500D01*
X78654513Y-101841500D01*
X78648061Y-101842872D01*
X78648056Y-101842872D01*
X78561112Y-101861353D01*
X78467712Y-101881206D01*
X78461682Y-101883891D01*
X78461681Y-101883891D01*
X78299278Y-101956197D01*
X78299276Y-101956198D01*
X78293248Y-101958882D01*
X78138747Y-102071134D01*
X78134326Y-102076044D01*
X78134325Y-102076045D01*
X78018883Y-102204257D01*
X78010960Y-102213056D01*
X77915473Y-102378444D01*
X77856458Y-102560072D01*
X77855768Y-102566633D01*
X77855768Y-102566635D01*
X77841564Y-102701781D01*
X77836496Y-102750000D01*
X71013346Y-102750000D01*
X70956752Y-102708882D01*
X70950724Y-102706198D01*
X70950722Y-102706197D01*
X70788319Y-102633891D01*
X70788318Y-102633891D01*
X70782288Y-102631206D01*
X70688888Y-102611353D01*
X70601944Y-102592872D01*
X70601939Y-102592872D01*
X70595487Y-102591500D01*
X70404513Y-102591500D01*
X70398061Y-102592872D01*
X70398056Y-102592872D01*
X70311113Y-102611353D01*
X70217712Y-102631206D01*
X70211682Y-102633891D01*
X70211681Y-102633891D01*
X70049278Y-102706197D01*
X70049276Y-102706198D01*
X70043248Y-102708882D01*
X69888747Y-102821134D01*
X69884326Y-102826044D01*
X69884325Y-102826045D01*
X69781785Y-102939928D01*
X69760960Y-102963056D01*
X69665473Y-103128444D01*
X69606458Y-103310072D01*
X69605768Y-103316633D01*
X69605768Y-103316635D01*
X69593972Y-103428866D01*
X69586496Y-103500000D01*
X67013346Y-103500000D01*
X67111253Y-103428866D01*
X67212306Y-103316635D01*
X67234621Y-103291852D01*
X67234622Y-103291851D01*
X67239040Y-103286944D01*
X67334527Y-103121556D01*
X67393542Y-102939928D01*
X67405512Y-102826045D01*
X67412814Y-102756565D01*
X67413504Y-102750000D01*
X67408436Y-102701781D01*
X67394232Y-102566635D01*
X67394232Y-102566633D01*
X67393542Y-102560072D01*
X67334527Y-102378444D01*
X67239040Y-102213056D01*
X67231118Y-102204257D01*
X67115675Y-102076045D01*
X67115674Y-102076044D01*
X67111253Y-102071134D01*
X66956752Y-101958882D01*
X66950724Y-101956198D01*
X66950722Y-101956197D01*
X66788319Y-101883891D01*
X66788318Y-101883891D01*
X66782288Y-101881206D01*
X66688887Y-101861353D01*
X66601944Y-101842872D01*
X66601939Y-101842872D01*
X66595487Y-101841500D01*
X66404513Y-101841500D01*
X66398061Y-101842872D01*
X66398056Y-101842872D01*
X66311112Y-101861353D01*
X66217712Y-101881206D01*
X66211682Y-101883891D01*
X66211681Y-101883891D01*
X66049278Y-101956197D01*
X66049276Y-101956198D01*
X66043248Y-101958882D01*
X65888747Y-102071134D01*
X65884326Y-102076044D01*
X65884325Y-102076045D01*
X65768883Y-102204257D01*
X65760960Y-102213056D01*
X65665473Y-102378444D01*
X65606458Y-102560072D01*
X65605768Y-102566633D01*
X65605768Y-102566635D01*
X65591564Y-102701781D01*
X65586496Y-102750000D01*
X58758500Y-102750000D01*
X58758500Y-100500000D01*
X66836496Y-100500000D01*
X66837186Y-100506565D01*
X66853846Y-100665073D01*
X66856458Y-100689928D01*
X66915473Y-100871556D01*
X66918776Y-100877278D01*
X66918777Y-100877279D01*
X66931425Y-100899185D01*
X67010960Y-101036944D01*
X67015378Y-101041851D01*
X67015379Y-101041852D01*
X67121972Y-101160236D01*
X67138747Y-101178866D01*
X67293248Y-101291118D01*
X67299276Y-101293802D01*
X67299278Y-101293803D01*
X67461681Y-101366109D01*
X67467712Y-101368794D01*
X67561113Y-101388647D01*
X67648056Y-101407128D01*
X67648061Y-101407128D01*
X67654513Y-101408500D01*
X67845487Y-101408500D01*
X67851939Y-101407128D01*
X67851944Y-101407128D01*
X67938888Y-101388647D01*
X68032288Y-101368794D01*
X68038319Y-101366109D01*
X68200722Y-101293803D01*
X68200724Y-101293802D01*
X68206752Y-101291118D01*
X68361253Y-101178866D01*
X68378028Y-101160236D01*
X68484621Y-101041852D01*
X68484622Y-101041851D01*
X68489040Y-101036944D01*
X68568575Y-100899185D01*
X68581223Y-100877279D01*
X68581224Y-100877278D01*
X68584527Y-100871556D01*
X68643542Y-100689928D01*
X68646155Y-100665073D01*
X68662814Y-100506565D01*
X68663504Y-100500000D01*
X77836496Y-100500000D01*
X77837186Y-100506565D01*
X77853846Y-100665073D01*
X77856458Y-100689928D01*
X77915473Y-100871556D01*
X77918776Y-100877278D01*
X77918777Y-100877279D01*
X77931425Y-100899185D01*
X78010960Y-101036944D01*
X78015378Y-101041851D01*
X78015379Y-101041852D01*
X78121972Y-101160236D01*
X78138747Y-101178866D01*
X78293248Y-101291118D01*
X78299276Y-101293802D01*
X78299278Y-101293803D01*
X78461681Y-101366109D01*
X78467712Y-101368794D01*
X78561113Y-101388647D01*
X78648056Y-101407128D01*
X78648061Y-101407128D01*
X78654513Y-101408500D01*
X78845487Y-101408500D01*
X78851939Y-101407128D01*
X78851944Y-101407128D01*
X78938888Y-101388647D01*
X79032288Y-101368794D01*
X79038319Y-101366109D01*
X79200722Y-101293803D01*
X79200724Y-101293802D01*
X79206752Y-101291118D01*
X79361253Y-101178866D01*
X79378028Y-101160236D01*
X79484621Y-101041852D01*
X79484622Y-101041851D01*
X79489040Y-101036944D01*
X79568575Y-100899185D01*
X79581223Y-100877279D01*
X79581224Y-100877278D01*
X79584527Y-100871556D01*
X79643542Y-100689928D01*
X79646155Y-100665073D01*
X79662814Y-100506565D01*
X79663504Y-100500000D01*
X90336496Y-100500000D01*
X90337186Y-100506565D01*
X90353846Y-100665073D01*
X90356458Y-100689928D01*
X90415473Y-100871556D01*
X90418776Y-100877278D01*
X90418777Y-100877279D01*
X90431425Y-100899185D01*
X90510960Y-101036944D01*
X90515378Y-101041851D01*
X90515379Y-101041852D01*
X90621972Y-101160236D01*
X90638747Y-101178866D01*
X90793248Y-101291118D01*
X90799276Y-101293802D01*
X90799278Y-101293803D01*
X90961681Y-101366109D01*
X90967712Y-101368794D01*
X91061113Y-101388647D01*
X91148056Y-101407128D01*
X91148061Y-101407128D01*
X91154513Y-101408500D01*
X91345487Y-101408500D01*
X91351939Y-101407128D01*
X91351944Y-101407128D01*
X91438888Y-101388647D01*
X91532288Y-101368794D01*
X91538319Y-101366109D01*
X91700722Y-101293803D01*
X91700724Y-101293802D01*
X91706752Y-101291118D01*
X91861253Y-101178866D01*
X91878028Y-101160236D01*
X91984621Y-101041852D01*
X91984622Y-101041851D01*
X91989040Y-101036944D01*
X92065888Y-100903839D01*
X112687173Y-100903839D01*
X112687397Y-100908505D01*
X112687397Y-100908511D01*
X112692055Y-101005483D01*
X112699713Y-101164908D01*
X112750704Y-101421256D01*
X112839026Y-101667252D01*
X112841242Y-101671376D01*
X112955430Y-101883891D01*
X112962737Y-101897491D01*
X112965532Y-101901234D01*
X112965534Y-101901237D01*
X113116330Y-102103177D01*
X113116335Y-102103183D01*
X113119122Y-102106915D01*
X113122431Y-102110195D01*
X113122436Y-102110201D01*
X113301426Y-102287635D01*
X113304743Y-102290923D01*
X113308505Y-102293681D01*
X113308508Y-102293684D01*
X113432678Y-102384729D01*
X113515524Y-102445474D01*
X113519667Y-102447654D01*
X113519669Y-102447655D01*
X113742684Y-102564989D01*
X113742689Y-102564991D01*
X113746834Y-102567172D01*
X113993590Y-102653344D01*
X113998183Y-102654216D01*
X114245785Y-102701224D01*
X114245788Y-102701224D01*
X114250374Y-102702095D01*
X114380959Y-102707226D01*
X114506875Y-102712174D01*
X114506881Y-102712174D01*
X114511543Y-102712357D01*
X114590977Y-102703657D01*
X114766707Y-102684412D01*
X114766712Y-102684411D01*
X114771360Y-102683902D01*
X114884116Y-102654216D01*
X115019594Y-102618548D01*
X115019596Y-102618547D01*
X115024117Y-102617357D01*
X115084301Y-102591500D01*
X115259972Y-102516025D01*
X115264262Y-102514182D01*
X115486519Y-102376646D01*
X115490082Y-102373629D01*
X115490087Y-102373626D01*
X115507207Y-102359133D01*
X125405612Y-102359133D01*
X125414325Y-102370653D01*
X125512018Y-102442284D01*
X125519928Y-102447227D01*
X125742890Y-102564533D01*
X125751453Y-102568256D01*
X125989304Y-102651318D01*
X125998313Y-102653732D01*
X126245842Y-102700727D01*
X126255098Y-102701781D01*
X126506857Y-102711673D01*
X126516171Y-102711347D01*
X126766615Y-102683920D01*
X126775792Y-102682219D01*
X127019431Y-102618074D01*
X127028251Y-102615037D01*
X127259736Y-102515583D01*
X127268008Y-102511276D01*
X127482249Y-102378700D01*
X127489188Y-102373658D01*
X127497518Y-102361019D01*
X127491456Y-102350666D01*
X126462812Y-101322022D01*
X126448868Y-101314408D01*
X126447035Y-101314539D01*
X126440420Y-101318790D01*
X125412270Y-102346940D01*
X125405612Y-102359133D01*
X115507207Y-102359133D01*
X115682439Y-102210787D01*
X115682440Y-102210786D01*
X115686005Y-102207768D01*
X115805830Y-102071134D01*
X115855257Y-102014774D01*
X115855261Y-102014769D01*
X115858339Y-102011259D01*
X115999733Y-101791437D01*
X116107083Y-101553129D01*
X116148260Y-101407128D01*
X116176760Y-101306076D01*
X116176761Y-101306073D01*
X116178030Y-101301572D01*
X116194840Y-101169435D01*
X116210616Y-101045421D01*
X116210616Y-101045417D01*
X116211014Y-101042291D01*
X116211098Y-101039108D01*
X116213348Y-100953160D01*
X116213431Y-100950000D01*
X116207602Y-100871556D01*
X116194407Y-100694000D01*
X116194406Y-100693996D01*
X116194061Y-100689348D01*
X116192708Y-100683365D01*
X116137408Y-100438980D01*
X116136377Y-100434423D01*
X116082539Y-100295978D01*
X116043340Y-100195176D01*
X116043339Y-100195173D01*
X116041647Y-100190823D01*
X116005995Y-100128444D01*
X115944567Y-100020968D01*
X115911951Y-99963902D01*
X115750138Y-99758643D01*
X115559763Y-99579557D01*
X115345009Y-99430576D01*
X115304644Y-99410670D01*
X115114781Y-99317040D01*
X115114778Y-99317039D01*
X115110593Y-99314975D01*
X115097104Y-99310657D01*
X114866123Y-99236720D01*
X114861665Y-99235293D01*
X114603693Y-99193279D01*
X114489942Y-99191790D01*
X114347022Y-99189919D01*
X114347019Y-99189919D01*
X114342345Y-99189858D01*
X114083362Y-99225104D01*
X113832433Y-99298243D01*
X113828180Y-99300203D01*
X113828179Y-99300204D01*
X113787154Y-99319117D01*
X113595072Y-99407668D01*
X113556067Y-99433241D01*
X113380404Y-99548410D01*
X113380399Y-99548414D01*
X113376491Y-99550976D01*
X113340877Y-99582763D01*
X113195225Y-99712763D01*
X113181494Y-99725018D01*
X113014363Y-99925970D01*
X113011934Y-99929973D01*
X112894972Y-100122721D01*
X112878771Y-100149419D01*
X112777697Y-100390455D01*
X112713359Y-100643783D01*
X112687173Y-100903839D01*
X92065888Y-100903839D01*
X92068575Y-100899185D01*
X92081223Y-100877279D01*
X92081224Y-100877278D01*
X92084527Y-100871556D01*
X92143542Y-100689928D01*
X92146155Y-100665073D01*
X92162814Y-100506565D01*
X92163504Y-100500000D01*
X92152466Y-100394980D01*
X92144232Y-100316635D01*
X92144232Y-100316633D01*
X92143542Y-100310072D01*
X92084527Y-100128444D01*
X91989040Y-99963056D01*
X91944205Y-99913261D01*
X91865675Y-99826045D01*
X91865674Y-99826044D01*
X91861253Y-99821134D01*
X91706752Y-99708882D01*
X91700724Y-99706198D01*
X91700722Y-99706197D01*
X91538319Y-99633891D01*
X91538318Y-99633891D01*
X91532288Y-99631206D01*
X91438887Y-99611353D01*
X91351944Y-99592872D01*
X91351939Y-99592872D01*
X91345487Y-99591500D01*
X91154513Y-99591500D01*
X91148061Y-99592872D01*
X91148056Y-99592872D01*
X91061113Y-99611353D01*
X90967712Y-99631206D01*
X90961682Y-99633891D01*
X90961681Y-99633891D01*
X90799278Y-99706197D01*
X90799276Y-99706198D01*
X90793248Y-99708882D01*
X90638747Y-99821134D01*
X90634326Y-99826044D01*
X90634325Y-99826045D01*
X90555796Y-99913261D01*
X90510960Y-99963056D01*
X90415473Y-100128444D01*
X90356458Y-100310072D01*
X90355768Y-100316633D01*
X90355768Y-100316635D01*
X90347534Y-100394980D01*
X90336496Y-100500000D01*
X79663504Y-100500000D01*
X79652466Y-100394980D01*
X79644232Y-100316635D01*
X79644232Y-100316633D01*
X79643542Y-100310072D01*
X79584527Y-100128444D01*
X79489040Y-99963056D01*
X79444205Y-99913261D01*
X79365675Y-99826045D01*
X79365674Y-99826044D01*
X79361253Y-99821134D01*
X79206752Y-99708882D01*
X79200724Y-99706198D01*
X79200722Y-99706197D01*
X79038319Y-99633891D01*
X79038318Y-99633891D01*
X79032288Y-99631206D01*
X78938887Y-99611353D01*
X78851944Y-99592872D01*
X78851939Y-99592872D01*
X78845487Y-99591500D01*
X78654513Y-99591500D01*
X78648061Y-99592872D01*
X78648056Y-99592872D01*
X78561113Y-99611353D01*
X78467712Y-99631206D01*
X78461682Y-99633891D01*
X78461681Y-99633891D01*
X78299278Y-99706197D01*
X78299276Y-99706198D01*
X78293248Y-99708882D01*
X78138747Y-99821134D01*
X78134326Y-99826044D01*
X78134325Y-99826045D01*
X78055796Y-99913261D01*
X78010960Y-99963056D01*
X77915473Y-100128444D01*
X77856458Y-100310072D01*
X77855768Y-100316633D01*
X77855768Y-100316635D01*
X77847534Y-100394980D01*
X77836496Y-100500000D01*
X68663504Y-100500000D01*
X68652466Y-100394980D01*
X68644232Y-100316635D01*
X68644232Y-100316633D01*
X68643542Y-100310072D01*
X68584527Y-100128444D01*
X68489040Y-99963056D01*
X68444205Y-99913261D01*
X68365675Y-99826045D01*
X68365674Y-99826044D01*
X68361253Y-99821134D01*
X68206752Y-99708882D01*
X68200724Y-99706198D01*
X68200722Y-99706197D01*
X68038319Y-99633891D01*
X68038318Y-99633891D01*
X68032288Y-99631206D01*
X67938887Y-99611353D01*
X67851944Y-99592872D01*
X67851939Y-99592872D01*
X67845487Y-99591500D01*
X67654513Y-99591500D01*
X67648061Y-99592872D01*
X67648056Y-99592872D01*
X67561113Y-99611353D01*
X67467712Y-99631206D01*
X67461682Y-99633891D01*
X67461681Y-99633891D01*
X67299278Y-99706197D01*
X67299276Y-99706198D01*
X67293248Y-99708882D01*
X67138747Y-99821134D01*
X67134326Y-99826044D01*
X67134325Y-99826045D01*
X67055796Y-99913261D01*
X67010960Y-99963056D01*
X66915473Y-100128444D01*
X66856458Y-100310072D01*
X66855768Y-100316633D01*
X66855768Y-100316635D01*
X66847534Y-100394980D01*
X66836496Y-100500000D01*
X58758500Y-100500000D01*
X58758500Y-98978918D01*
X118486917Y-98978918D01*
X118502682Y-99252320D01*
X118503507Y-99256525D01*
X118503508Y-99256533D01*
X118515787Y-99319117D01*
X118555405Y-99521053D01*
X118556792Y-99525103D01*
X118556793Y-99525108D01*
X118638006Y-99762311D01*
X118644112Y-99780144D01*
X118646039Y-99783975D01*
X118738983Y-99968774D01*
X118767160Y-100024799D01*
X118769586Y-100028328D01*
X118769589Y-100028334D01*
X118884406Y-100195392D01*
X118922274Y-100250490D01*
X118925161Y-100253663D01*
X118925162Y-100253664D01*
X119103692Y-100449867D01*
X119106582Y-100453043D01*
X119109877Y-100455798D01*
X119109878Y-100455799D01*
X119158071Y-100496094D01*
X119316675Y-100628707D01*
X119320316Y-100630991D01*
X119545024Y-100771951D01*
X119545028Y-100771953D01*
X119548664Y-100774234D01*
X119616544Y-100804883D01*
X119794345Y-100885164D01*
X119794349Y-100885166D01*
X119798257Y-100886930D01*
X119839673Y-100899198D01*
X120056723Y-100963491D01*
X120056727Y-100963492D01*
X120060836Y-100964709D01*
X120065070Y-100965357D01*
X120065075Y-100965358D01*
X120327298Y-101005483D01*
X120327300Y-101005483D01*
X120331540Y-101006132D01*
X120470912Y-101008322D01*
X120601071Y-101010367D01*
X120601077Y-101010367D01*
X120605362Y-101010434D01*
X120877235Y-100977534D01*
X121140290Y-100908523D01*
X124687898Y-100908523D01*
X124699987Y-101160175D01*
X124701124Y-101169435D01*
X124750274Y-101416535D01*
X124752768Y-101425528D01*
X124837900Y-101662639D01*
X124841700Y-101671174D01*
X124960946Y-101893101D01*
X124965957Y-101900968D01*
X125029446Y-101985990D01*
X125040704Y-101994439D01*
X125053123Y-101987667D01*
X126077978Y-100962812D01*
X126084356Y-100951132D01*
X126814408Y-100951132D01*
X126814539Y-100952965D01*
X126818790Y-100959580D01*
X127849913Y-101990703D01*
X127862293Y-101997463D01*
X127870634Y-101991219D01*
X127996765Y-101795127D01*
X128001212Y-101786936D01*
X128104691Y-101557222D01*
X128107882Y-101548455D01*
X128176269Y-101305976D01*
X128178129Y-101296834D01*
X128210116Y-101045396D01*
X128210597Y-101039108D01*
X128212847Y-100953160D01*
X128212696Y-100946851D01*
X128193912Y-100694074D01*
X128192536Y-100684868D01*
X128136929Y-100439126D01*
X128134205Y-100430215D01*
X128042888Y-100195392D01*
X128038877Y-100186983D01*
X127913854Y-99968240D01*
X127908643Y-99960514D01*
X127871391Y-99913261D01*
X127859466Y-99904790D01*
X127847934Y-99911276D01*
X126822022Y-100937188D01*
X126814408Y-100951132D01*
X126084356Y-100951132D01*
X126085592Y-100948868D01*
X126085461Y-100947035D01*
X126081210Y-100940420D01*
X125051321Y-99910531D01*
X125038013Y-99903264D01*
X125027974Y-99910386D01*
X125017761Y-99922666D01*
X125012346Y-99930258D01*
X124881646Y-100145646D01*
X124877408Y-100153963D01*
X124779981Y-100386299D01*
X124777020Y-100395149D01*
X124715006Y-100639331D01*
X124713384Y-100648528D01*
X124688143Y-100899198D01*
X124687898Y-100908523D01*
X121140290Y-100908523D01*
X121142127Y-100908041D01*
X121146087Y-100906401D01*
X121146092Y-100906399D01*
X121268631Y-100855641D01*
X121395136Y-100803241D01*
X121581953Y-100694074D01*
X121627879Y-100667237D01*
X121627880Y-100667236D01*
X121631582Y-100665073D01*
X121847089Y-100496094D01*
X121888809Y-100453043D01*
X122034686Y-100302509D01*
X122037669Y-100299431D01*
X122040202Y-100295983D01*
X122040206Y-100295978D01*
X122197257Y-100082178D01*
X122199795Y-100078723D01*
X122227154Y-100028334D01*
X122328418Y-99841830D01*
X122328419Y-99841828D01*
X122330468Y-99838054D01*
X122379278Y-99708882D01*
X122425751Y-99585895D01*
X122425752Y-99585891D01*
X122427269Y-99581877D01*
X122437134Y-99538803D01*
X125403216Y-99538803D01*
X125407789Y-99548579D01*
X126437188Y-100577978D01*
X126451132Y-100585592D01*
X126452965Y-100585461D01*
X126459580Y-100581210D01*
X127488419Y-99552371D01*
X127494803Y-99540681D01*
X127485391Y-99528570D01*
X127348593Y-99433670D01*
X127340565Y-99428942D01*
X127114593Y-99317505D01*
X127105960Y-99314017D01*
X126865998Y-99237205D01*
X126856938Y-99235029D01*
X126608260Y-99194529D01*
X126598973Y-99193717D01*
X126347053Y-99190419D01*
X126337742Y-99190989D01*
X126088097Y-99224964D01*
X126078978Y-99226902D01*
X125837098Y-99297404D01*
X125828367Y-99300667D01*
X125599558Y-99406151D01*
X125591406Y-99410670D01*
X125412353Y-99528062D01*
X125403216Y-99538803D01*
X122437134Y-99538803D01*
X122462395Y-99428508D01*
X122487449Y-99319117D01*
X122487450Y-99319113D01*
X122488407Y-99314933D01*
X122489681Y-99300667D01*
X122512531Y-99044627D01*
X122512531Y-99044625D01*
X122512751Y-99042161D01*
X122513193Y-99000000D01*
X122494567Y-98726778D01*
X122439032Y-98458612D01*
X122347617Y-98200465D01*
X122222013Y-97957112D01*
X122212040Y-97942921D01*
X122067008Y-97736562D01*
X122064545Y-97733057D01*
X121878125Y-97532445D01*
X121874810Y-97529731D01*
X121874806Y-97529728D01*
X121669523Y-97361706D01*
X121666205Y-97358990D01*
X121432704Y-97215901D01*
X121428768Y-97214173D01*
X121185873Y-97107549D01*
X121185869Y-97107548D01*
X121181945Y-97105825D01*
X120918566Y-97030800D01*
X120914324Y-97030196D01*
X120914318Y-97030195D01*
X120713834Y-97001662D01*
X120647443Y-96992213D01*
X120503589Y-96991460D01*
X120377877Y-96990802D01*
X120377871Y-96990802D01*
X120373591Y-96990780D01*
X120369347Y-96991339D01*
X120369343Y-96991339D01*
X120250302Y-97007011D01*
X120102078Y-97026525D01*
X120097938Y-97027658D01*
X120097936Y-97027658D01*
X120025008Y-97047609D01*
X119837928Y-97098788D01*
X119833980Y-97100472D01*
X119589982Y-97204546D01*
X119589978Y-97204548D01*
X119586030Y-97206232D01*
X119566125Y-97218145D01*
X119354725Y-97344664D01*
X119354721Y-97344667D01*
X119351043Y-97346868D01*
X119137318Y-97518094D01*
X118948808Y-97716742D01*
X118789002Y-97939136D01*
X118660857Y-98181161D01*
X118659385Y-98185184D01*
X118659383Y-98185188D01*
X118652314Y-98204506D01*
X118566743Y-98438337D01*
X118508404Y-98705907D01*
X118486917Y-98978918D01*
X58758500Y-98978918D01*
X58758500Y-93000000D01*
X93836496Y-93000000D01*
X93856458Y-93189928D01*
X93915473Y-93371556D01*
X94010960Y-93536944D01*
X94138747Y-93678866D01*
X94293248Y-93791118D01*
X94299276Y-93793802D01*
X94299278Y-93793803D01*
X94461681Y-93866109D01*
X94467712Y-93868794D01*
X94561113Y-93888647D01*
X94648056Y-93907128D01*
X94648061Y-93907128D01*
X94654513Y-93908500D01*
X94845487Y-93908500D01*
X94851939Y-93907128D01*
X94851944Y-93907128D01*
X94938887Y-93888647D01*
X95032288Y-93868794D01*
X95038319Y-93866109D01*
X95200722Y-93793803D01*
X95200724Y-93793802D01*
X95206752Y-93791118D01*
X95361253Y-93678866D01*
X95489040Y-93536944D01*
X95584527Y-93371556D01*
X95643542Y-93189928D01*
X95663504Y-93000000D01*
X95643542Y-92810072D01*
X95584527Y-92628444D01*
X95489040Y-92463056D01*
X95361253Y-92321134D01*
X95206752Y-92208882D01*
X95200724Y-92206198D01*
X95200722Y-92206197D01*
X95038319Y-92133891D01*
X95038318Y-92133891D01*
X95032288Y-92131206D01*
X94938888Y-92111353D01*
X94851944Y-92092872D01*
X94851939Y-92092872D01*
X94845487Y-92091500D01*
X94654513Y-92091500D01*
X94648061Y-92092872D01*
X94648056Y-92092872D01*
X94561112Y-92111353D01*
X94467712Y-92131206D01*
X94461682Y-92133891D01*
X94461681Y-92133891D01*
X94299278Y-92206197D01*
X94299276Y-92206198D01*
X94293248Y-92208882D01*
X94138747Y-92321134D01*
X94010960Y-92463056D01*
X93915473Y-92628444D01*
X93856458Y-92810072D01*
X93836496Y-93000000D01*
X58758500Y-93000000D01*
X58758500Y-91598134D01*
X135691500Y-91598134D01*
X135698255Y-91660316D01*
X135749385Y-91796705D01*
X135836739Y-91913261D01*
X135953295Y-92000615D01*
X136089684Y-92051745D01*
X136151866Y-92058500D01*
X138848134Y-92058500D01*
X138910316Y-92051745D01*
X139046705Y-92000615D01*
X139163261Y-91913261D01*
X139250615Y-91796705D01*
X139301745Y-91660316D01*
X139308500Y-91598134D01*
X139308500Y-88901866D01*
X139301745Y-88839684D01*
X139250615Y-88703295D01*
X139163261Y-88586739D01*
X139046705Y-88499385D01*
X138910316Y-88448255D01*
X138848134Y-88441500D01*
X136151866Y-88441500D01*
X136089684Y-88448255D01*
X135953295Y-88499385D01*
X135836739Y-88586739D01*
X135749385Y-88703295D01*
X135698255Y-88839684D01*
X135691500Y-88901866D01*
X135691500Y-91598134D01*
X58758500Y-91598134D01*
X58758500Y-88280535D01*
X66632000Y-88280535D01*
X66647026Y-88448895D01*
X66706870Y-88667651D01*
X66709282Y-88672709D01*
X66709284Y-88672713D01*
X66792673Y-88847540D01*
X66804507Y-88872351D01*
X66936851Y-89056526D01*
X66940881Y-89060431D01*
X67095281Y-89210056D01*
X67099717Y-89214355D01*
X67164773Y-89258070D01*
X67283305Y-89337721D01*
X67283310Y-89337724D01*
X67287958Y-89340847D01*
X67293090Y-89343100D01*
X67293094Y-89343102D01*
X67420799Y-89399161D01*
X67495624Y-89432007D01*
X67501082Y-89433317D01*
X67501081Y-89433317D01*
X67710692Y-89483640D01*
X67710698Y-89483641D01*
X67716151Y-89484950D01*
X67829360Y-89491478D01*
X67936963Y-89497683D01*
X67936966Y-89497683D01*
X67942569Y-89498006D01*
X68167719Y-89470759D01*
X68173081Y-89469109D01*
X68173083Y-89469109D01*
X68289427Y-89433317D01*
X68384487Y-89404073D01*
X68485253Y-89352063D01*
X68581036Y-89302626D01*
X68581037Y-89302626D01*
X68586019Y-89300054D01*
X68591020Y-89296217D01*
X68693629Y-89217482D01*
X68765947Y-89161991D01*
X68858359Y-89060431D01*
X68914808Y-88998395D01*
X68914810Y-88998392D01*
X68918581Y-88994248D01*
X68992185Y-88876913D01*
X69036116Y-88806882D01*
X69036118Y-88806878D01*
X69039099Y-88802126D01*
X69056398Y-88759094D01*
X69100364Y-88703351D01*
X69167489Y-88680226D01*
X69236460Y-88697063D01*
X69287030Y-88751848D01*
X69313173Y-88806657D01*
X69344507Y-88872351D01*
X69476851Y-89056526D01*
X69480881Y-89060431D01*
X69635281Y-89210056D01*
X69639717Y-89214355D01*
X69704773Y-89258070D01*
X69823305Y-89337721D01*
X69823310Y-89337724D01*
X69827958Y-89340847D01*
X69833090Y-89343100D01*
X69833094Y-89343102D01*
X69960799Y-89399161D01*
X70035624Y-89432007D01*
X70041082Y-89433317D01*
X70041081Y-89433317D01*
X70250692Y-89483640D01*
X70250698Y-89483641D01*
X70256151Y-89484950D01*
X70369360Y-89491478D01*
X70476963Y-89497683D01*
X70476966Y-89497683D01*
X70482569Y-89498006D01*
X70707719Y-89470759D01*
X70713081Y-89469109D01*
X70713083Y-89469109D01*
X70829427Y-89433317D01*
X70924487Y-89404073D01*
X71025253Y-89352063D01*
X71121036Y-89302626D01*
X71121037Y-89302626D01*
X71126019Y-89300054D01*
X71131020Y-89296217D01*
X71233629Y-89217482D01*
X71305947Y-89161991D01*
X71398359Y-89060431D01*
X71454808Y-88998395D01*
X71454810Y-88998392D01*
X71458581Y-88994248D01*
X71532185Y-88876913D01*
X71576116Y-88806882D01*
X71576118Y-88806878D01*
X71579099Y-88802126D01*
X71596398Y-88759094D01*
X71640364Y-88703351D01*
X71707489Y-88680226D01*
X71776460Y-88697063D01*
X71827030Y-88751848D01*
X71853173Y-88806657D01*
X71884507Y-88872351D01*
X72016851Y-89056526D01*
X72020881Y-89060431D01*
X72175281Y-89210056D01*
X72179717Y-89214355D01*
X72244773Y-89258070D01*
X72363305Y-89337721D01*
X72363310Y-89337724D01*
X72367958Y-89340847D01*
X72373090Y-89343100D01*
X72373094Y-89343102D01*
X72500799Y-89399161D01*
X72575624Y-89432007D01*
X72581082Y-89433317D01*
X72581081Y-89433317D01*
X72790692Y-89483640D01*
X72790698Y-89483641D01*
X72796151Y-89484950D01*
X72909360Y-89491478D01*
X73016963Y-89497683D01*
X73016966Y-89497683D01*
X73022569Y-89498006D01*
X73247719Y-89470759D01*
X73253081Y-89469109D01*
X73253083Y-89469109D01*
X73369427Y-89433317D01*
X73464487Y-89404073D01*
X73565253Y-89352063D01*
X73661036Y-89302626D01*
X73661037Y-89302626D01*
X73666019Y-89300054D01*
X73671020Y-89296217D01*
X73773629Y-89217482D01*
X73845947Y-89161991D01*
X73938359Y-89060431D01*
X73994808Y-88998395D01*
X73994810Y-88998392D01*
X73998581Y-88994248D01*
X74072185Y-88876913D01*
X74116116Y-88806882D01*
X74116118Y-88806878D01*
X74119099Y-88802126D01*
X74136398Y-88759094D01*
X74180364Y-88703351D01*
X74247489Y-88680226D01*
X74316460Y-88697063D01*
X74367030Y-88751848D01*
X74393173Y-88806657D01*
X74424507Y-88872351D01*
X74556851Y-89056526D01*
X74560881Y-89060431D01*
X74715281Y-89210056D01*
X74719717Y-89214355D01*
X74784773Y-89258070D01*
X74903305Y-89337721D01*
X74903310Y-89337724D01*
X74907958Y-89340847D01*
X74913090Y-89343100D01*
X74913094Y-89343102D01*
X75040799Y-89399161D01*
X75115624Y-89432007D01*
X75121082Y-89433317D01*
X75121081Y-89433317D01*
X75330692Y-89483640D01*
X75330698Y-89483641D01*
X75336151Y-89484950D01*
X75449360Y-89491478D01*
X75556963Y-89497683D01*
X75556966Y-89497683D01*
X75562569Y-89498006D01*
X75787719Y-89470759D01*
X75793081Y-89469109D01*
X75793083Y-89469109D01*
X75909427Y-89433317D01*
X76004487Y-89404073D01*
X76105253Y-89352063D01*
X76201036Y-89302626D01*
X76201037Y-89302626D01*
X76206019Y-89300054D01*
X76211020Y-89296217D01*
X76313629Y-89217482D01*
X76385947Y-89161991D01*
X76478359Y-89060431D01*
X76534808Y-88998395D01*
X76534810Y-88998392D01*
X76538581Y-88994248D01*
X76612185Y-88876913D01*
X76656116Y-88806882D01*
X76656118Y-88806878D01*
X76659099Y-88802126D01*
X76676398Y-88759094D01*
X76720364Y-88703351D01*
X76787489Y-88680226D01*
X76856460Y-88697063D01*
X76907030Y-88751848D01*
X76933173Y-88806657D01*
X76964507Y-88872351D01*
X77096851Y-89056526D01*
X77100881Y-89060431D01*
X77255281Y-89210056D01*
X77259717Y-89214355D01*
X77324773Y-89258070D01*
X77443305Y-89337721D01*
X77443310Y-89337724D01*
X77447958Y-89340847D01*
X77453090Y-89343100D01*
X77453094Y-89343102D01*
X77580799Y-89399161D01*
X77655624Y-89432007D01*
X77661082Y-89433317D01*
X77661081Y-89433317D01*
X77870692Y-89483640D01*
X77870698Y-89483641D01*
X77876151Y-89484950D01*
X77989360Y-89491478D01*
X78096963Y-89497683D01*
X78096966Y-89497683D01*
X78102569Y-89498006D01*
X78327719Y-89470759D01*
X78333081Y-89469109D01*
X78333083Y-89469109D01*
X78449427Y-89433317D01*
X78544487Y-89404073D01*
X78645253Y-89352063D01*
X78741036Y-89302626D01*
X78741037Y-89302626D01*
X78746019Y-89300054D01*
X78751020Y-89296217D01*
X78853629Y-89217482D01*
X78925947Y-89161991D01*
X79018359Y-89060431D01*
X79074808Y-88998395D01*
X79074810Y-88998392D01*
X79078581Y-88994248D01*
X79152185Y-88876913D01*
X79196116Y-88806882D01*
X79196118Y-88806878D01*
X79199099Y-88802126D01*
X79216398Y-88759094D01*
X79260364Y-88703351D01*
X79327489Y-88680226D01*
X79396460Y-88697063D01*
X79447030Y-88751848D01*
X79473173Y-88806657D01*
X79504507Y-88872351D01*
X79636851Y-89056526D01*
X79640881Y-89060431D01*
X79795281Y-89210056D01*
X79799717Y-89214355D01*
X79864773Y-89258070D01*
X79983305Y-89337721D01*
X79983310Y-89337724D01*
X79987958Y-89340847D01*
X79993090Y-89343100D01*
X79993094Y-89343102D01*
X80120799Y-89399161D01*
X80195624Y-89432007D01*
X80201082Y-89433317D01*
X80201081Y-89433317D01*
X80410692Y-89483640D01*
X80410698Y-89483641D01*
X80416151Y-89484950D01*
X80529360Y-89491478D01*
X80636963Y-89497683D01*
X80636966Y-89497683D01*
X80642569Y-89498006D01*
X80867719Y-89470759D01*
X80873081Y-89469109D01*
X80873083Y-89469109D01*
X80989427Y-89433317D01*
X81084487Y-89404073D01*
X81185253Y-89352063D01*
X81281036Y-89302626D01*
X81281037Y-89302626D01*
X81286019Y-89300054D01*
X81291020Y-89296217D01*
X81393629Y-89217482D01*
X81465947Y-89161991D01*
X81558359Y-89060431D01*
X81614808Y-88998395D01*
X81614810Y-88998392D01*
X81618581Y-88994248D01*
X81692185Y-88876913D01*
X81736116Y-88806882D01*
X81736118Y-88806878D01*
X81739099Y-88802126D01*
X81756398Y-88759094D01*
X81800364Y-88703351D01*
X81867489Y-88680226D01*
X81936460Y-88697063D01*
X81987030Y-88751848D01*
X82013173Y-88806657D01*
X82044507Y-88872351D01*
X82176851Y-89056526D01*
X82180881Y-89060431D01*
X82335281Y-89210056D01*
X82339717Y-89214355D01*
X82404773Y-89258070D01*
X82523305Y-89337721D01*
X82523310Y-89337724D01*
X82527958Y-89340847D01*
X82533090Y-89343100D01*
X82533094Y-89343102D01*
X82660799Y-89399161D01*
X82735624Y-89432007D01*
X82741082Y-89433317D01*
X82741081Y-89433317D01*
X82950692Y-89483640D01*
X82950698Y-89483641D01*
X82956151Y-89484950D01*
X83069360Y-89491478D01*
X83176963Y-89497683D01*
X83176966Y-89497683D01*
X83182569Y-89498006D01*
X83407719Y-89470759D01*
X83413081Y-89469109D01*
X83413083Y-89469109D01*
X83529427Y-89433317D01*
X83624487Y-89404073D01*
X83725253Y-89352063D01*
X83821036Y-89302626D01*
X83821037Y-89302626D01*
X83826019Y-89300054D01*
X83831020Y-89296217D01*
X83933629Y-89217482D01*
X84005947Y-89161991D01*
X84098359Y-89060431D01*
X84154808Y-88998395D01*
X84154810Y-88998392D01*
X84158581Y-88994248D01*
X84232185Y-88876913D01*
X84276116Y-88806882D01*
X84276118Y-88806878D01*
X84279099Y-88802126D01*
X84296398Y-88759094D01*
X84340364Y-88703351D01*
X84407489Y-88680226D01*
X84476460Y-88697063D01*
X84527030Y-88751848D01*
X84553173Y-88806657D01*
X84584507Y-88872351D01*
X84716851Y-89056526D01*
X84720881Y-89060431D01*
X84875281Y-89210056D01*
X84879717Y-89214355D01*
X84944773Y-89258070D01*
X85063305Y-89337721D01*
X85063310Y-89337724D01*
X85067958Y-89340847D01*
X85073090Y-89343100D01*
X85073094Y-89343102D01*
X85200799Y-89399161D01*
X85275624Y-89432007D01*
X85281082Y-89433317D01*
X85281081Y-89433317D01*
X85490692Y-89483640D01*
X85490698Y-89483641D01*
X85496151Y-89484950D01*
X85609360Y-89491478D01*
X85716963Y-89497683D01*
X85716966Y-89497683D01*
X85722569Y-89498006D01*
X85947719Y-89470759D01*
X85953081Y-89469109D01*
X85953083Y-89469109D01*
X86069427Y-89433317D01*
X86164487Y-89404073D01*
X86265253Y-89352063D01*
X86361036Y-89302626D01*
X86361037Y-89302626D01*
X86366019Y-89300054D01*
X86371020Y-89296217D01*
X86473629Y-89217482D01*
X86545947Y-89161991D01*
X86638359Y-89060431D01*
X86694808Y-88998395D01*
X86694810Y-88998392D01*
X86698581Y-88994248D01*
X86772185Y-88876913D01*
X86816116Y-88806882D01*
X86816118Y-88806878D01*
X86819099Y-88802126D01*
X86836651Y-88758463D01*
X86880616Y-88702721D01*
X86947741Y-88679596D01*
X87016712Y-88696433D01*
X87067283Y-88751217D01*
X87122528Y-88867041D01*
X87128210Y-88876648D01*
X87253959Y-89051644D01*
X87261258Y-89060100D01*
X87416000Y-89210056D01*
X87424697Y-89217098D01*
X87603540Y-89337276D01*
X87613343Y-89342665D01*
X87810643Y-89429274D01*
X87821238Y-89432840D01*
X87950885Y-89463966D01*
X87964970Y-89463261D01*
X87968500Y-89454382D01*
X87968500Y-89453498D01*
X88476500Y-89453498D01*
X88480606Y-89467480D01*
X88490852Y-89469070D01*
X88492975Y-89468619D01*
X88698935Y-89405257D01*
X88709280Y-89401036D01*
X88900767Y-89302202D01*
X88910198Y-89296217D01*
X89081163Y-89165032D01*
X89089376Y-89157479D01*
X89234409Y-88998090D01*
X89241164Y-88989190D01*
X89355666Y-88806657D01*
X89360747Y-88796687D01*
X89376105Y-88758483D01*
X89420072Y-88702739D01*
X89487197Y-88679614D01*
X89556168Y-88696451D01*
X89606738Y-88751236D01*
X89648926Y-88839684D01*
X89664507Y-88872351D01*
X89796851Y-89056526D01*
X89800881Y-89060431D01*
X89955281Y-89210056D01*
X89959717Y-89214355D01*
X90024773Y-89258070D01*
X90143305Y-89337721D01*
X90143310Y-89337724D01*
X90147958Y-89340847D01*
X90153090Y-89343100D01*
X90153094Y-89343102D01*
X90280799Y-89399161D01*
X90355624Y-89432007D01*
X90361082Y-89433317D01*
X90361081Y-89433317D01*
X90570692Y-89483640D01*
X90570698Y-89483641D01*
X90576151Y-89484950D01*
X90689360Y-89491478D01*
X90796963Y-89497683D01*
X90796966Y-89497683D01*
X90802569Y-89498006D01*
X91027719Y-89470759D01*
X91033081Y-89469109D01*
X91033083Y-89469109D01*
X91149427Y-89433317D01*
X91244487Y-89404073D01*
X91345253Y-89352063D01*
X91441036Y-89302626D01*
X91441037Y-89302626D01*
X91446019Y-89300054D01*
X91451020Y-89296217D01*
X91553629Y-89217482D01*
X91625947Y-89161991D01*
X91718359Y-89060431D01*
X91774808Y-88998395D01*
X91774810Y-88998392D01*
X91778581Y-88994248D01*
X91852185Y-88876913D01*
X91896116Y-88806882D01*
X91896118Y-88806878D01*
X91899099Y-88802126D01*
X91983690Y-88591699D01*
X92029681Y-88369618D01*
X92033000Y-88312056D01*
X92033000Y-87689465D01*
X92020386Y-87548134D01*
X115241500Y-87548134D01*
X115248255Y-87610316D01*
X115299385Y-87746705D01*
X115386739Y-87863261D01*
X115503295Y-87950615D01*
X115639684Y-88001745D01*
X115701866Y-88008500D01*
X116798134Y-88008500D01*
X116860316Y-88001745D01*
X116996705Y-87950615D01*
X117113261Y-87863261D01*
X117200615Y-87746705D01*
X117251745Y-87610316D01*
X117258500Y-87548134D01*
X117258500Y-86614906D01*
X136419839Y-86614906D01*
X136428553Y-86626427D01*
X136535452Y-86704809D01*
X136543351Y-86709745D01*
X136772905Y-86830519D01*
X136781454Y-86834236D01*
X137026327Y-86919749D01*
X137035336Y-86922163D01*
X137290166Y-86970544D01*
X137299423Y-86971598D01*
X137558607Y-86981783D01*
X137567921Y-86981457D01*
X137825753Y-86953220D01*
X137834930Y-86951519D01*
X138085758Y-86885481D01*
X138094574Y-86882445D01*
X138332880Y-86780062D01*
X138341167Y-86775748D01*
X138561718Y-86639266D01*
X138569268Y-86633780D01*
X138574559Y-86629301D01*
X138582997Y-86616497D01*
X138576935Y-86606145D01*
X137512812Y-85542022D01*
X137498868Y-85534408D01*
X137497035Y-85534539D01*
X137490420Y-85538790D01*
X136426497Y-86602713D01*
X136419839Y-86614906D01*
X117258500Y-86614906D01*
X117258500Y-86451866D01*
X117251745Y-86389684D01*
X117200615Y-86253295D01*
X117113261Y-86136739D01*
X116996705Y-86049385D01*
X116860316Y-85998255D01*
X116798134Y-85991500D01*
X115701866Y-85991500D01*
X115639684Y-85998255D01*
X115503295Y-86049385D01*
X115386739Y-86136739D01*
X115299385Y-86253295D01*
X115248255Y-86389684D01*
X115241500Y-86451866D01*
X115241500Y-87548134D01*
X92020386Y-87548134D01*
X92017974Y-87521105D01*
X91958130Y-87302349D01*
X91944394Y-87273549D01*
X91862910Y-87102716D01*
X91862909Y-87102715D01*
X91860493Y-87097649D01*
X91857215Y-87093087D01*
X91731426Y-86918034D01*
X91731424Y-86918032D01*
X91728149Y-86913474D01*
X91623974Y-86812521D01*
X91569311Y-86759548D01*
X91569308Y-86759546D01*
X91565283Y-86755645D01*
X91437749Y-86669946D01*
X91381695Y-86632279D01*
X91381690Y-86632276D01*
X91377042Y-86629153D01*
X91371910Y-86626900D01*
X91371906Y-86626898D01*
X91233011Y-86565927D01*
X91169376Y-86537993D01*
X91135622Y-86529890D01*
X90954308Y-86486360D01*
X90954302Y-86486359D01*
X90948849Y-86485050D01*
X90835640Y-86478522D01*
X90728037Y-86472317D01*
X90728034Y-86472317D01*
X90722431Y-86471994D01*
X90497281Y-86499241D01*
X90491919Y-86500891D01*
X90491917Y-86500891D01*
X90472908Y-86506739D01*
X90280513Y-86565927D01*
X90185618Y-86614906D01*
X90162385Y-86626898D01*
X90078981Y-86669946D01*
X90074533Y-86673359D01*
X90062826Y-86682342D01*
X89899053Y-86808009D01*
X89831322Y-86882445D01*
X89750199Y-86971598D01*
X89746419Y-86975752D01*
X89743438Y-86980503D01*
X89743438Y-86980504D01*
X89666775Y-87102716D01*
X89625901Y-87167874D01*
X89608349Y-87211537D01*
X89564384Y-87267279D01*
X89497259Y-87290404D01*
X89428288Y-87273567D01*
X89377717Y-87218783D01*
X89322472Y-87102959D01*
X89316790Y-87093352D01*
X89191041Y-86918356D01*
X89183742Y-86909900D01*
X89029000Y-86759944D01*
X89020303Y-86752902D01*
X88841460Y-86632724D01*
X88831657Y-86627335D01*
X88634357Y-86540726D01*
X88623762Y-86537160D01*
X88494115Y-86506034D01*
X88480030Y-86506739D01*
X88476500Y-86515618D01*
X88476500Y-89453498D01*
X87968500Y-89453498D01*
X87968500Y-86516502D01*
X87964394Y-86502520D01*
X87954148Y-86500930D01*
X87952025Y-86501381D01*
X87746065Y-86564743D01*
X87735720Y-86568964D01*
X87544233Y-86667798D01*
X87534802Y-86673783D01*
X87363837Y-86804968D01*
X87355624Y-86812521D01*
X87210591Y-86971910D01*
X87203836Y-86980810D01*
X87089334Y-87163343D01*
X87084253Y-87173313D01*
X87068895Y-87211517D01*
X87024928Y-87267261D01*
X86957803Y-87290386D01*
X86888832Y-87273549D01*
X86838262Y-87218764D01*
X86782910Y-87102716D01*
X86782909Y-87102715D01*
X86780493Y-87097649D01*
X86777215Y-87093087D01*
X86651426Y-86918034D01*
X86651424Y-86918032D01*
X86648149Y-86913474D01*
X86543974Y-86812521D01*
X86489311Y-86759548D01*
X86489308Y-86759546D01*
X86485283Y-86755645D01*
X86357749Y-86669946D01*
X86301695Y-86632279D01*
X86301690Y-86632276D01*
X86297042Y-86629153D01*
X86291910Y-86626900D01*
X86291906Y-86626898D01*
X86153011Y-86565927D01*
X86089376Y-86537993D01*
X86055622Y-86529890D01*
X85874308Y-86486360D01*
X85874302Y-86486359D01*
X85868849Y-86485050D01*
X85755640Y-86478522D01*
X85648037Y-86472317D01*
X85648034Y-86472317D01*
X85642431Y-86471994D01*
X85417281Y-86499241D01*
X85411919Y-86500891D01*
X85411917Y-86500891D01*
X85392908Y-86506739D01*
X85200513Y-86565927D01*
X85105618Y-86614906D01*
X85082385Y-86626898D01*
X84998981Y-86669946D01*
X84994533Y-86673359D01*
X84982826Y-86682342D01*
X84819053Y-86808009D01*
X84751322Y-86882445D01*
X84670199Y-86971598D01*
X84666419Y-86975752D01*
X84663438Y-86980503D01*
X84663438Y-86980504D01*
X84586775Y-87102716D01*
X84545901Y-87167874D01*
X84543807Y-87173084D01*
X84528603Y-87210905D01*
X84484636Y-87266649D01*
X84417511Y-87289774D01*
X84348540Y-87272937D01*
X84297970Y-87218152D01*
X84242910Y-87102716D01*
X84242909Y-87102715D01*
X84240493Y-87097649D01*
X84237215Y-87093087D01*
X84111426Y-86918034D01*
X84111424Y-86918032D01*
X84108149Y-86913474D01*
X84003974Y-86812521D01*
X83949311Y-86759548D01*
X83949308Y-86759546D01*
X83945283Y-86755645D01*
X83817749Y-86669946D01*
X83761695Y-86632279D01*
X83761690Y-86632276D01*
X83757042Y-86629153D01*
X83751910Y-86626900D01*
X83751906Y-86626898D01*
X83613011Y-86565927D01*
X83549376Y-86537993D01*
X83515622Y-86529890D01*
X83334308Y-86486360D01*
X83334302Y-86486359D01*
X83328849Y-86485050D01*
X83215640Y-86478522D01*
X83108037Y-86472317D01*
X83108034Y-86472317D01*
X83102431Y-86471994D01*
X82877281Y-86499241D01*
X82871919Y-86500891D01*
X82871917Y-86500891D01*
X82852908Y-86506739D01*
X82660513Y-86565927D01*
X82565618Y-86614906D01*
X82542385Y-86626898D01*
X82458981Y-86669946D01*
X82454533Y-86673359D01*
X82442826Y-86682342D01*
X82279053Y-86808009D01*
X82211322Y-86882445D01*
X82130199Y-86971598D01*
X82126419Y-86975752D01*
X82123438Y-86980503D01*
X82123438Y-86980504D01*
X82046775Y-87102716D01*
X82005901Y-87167874D01*
X82003807Y-87173084D01*
X81988603Y-87210905D01*
X81944636Y-87266649D01*
X81877511Y-87289774D01*
X81808540Y-87272937D01*
X81757970Y-87218152D01*
X81702910Y-87102716D01*
X81702909Y-87102715D01*
X81700493Y-87097649D01*
X81697215Y-87093087D01*
X81571426Y-86918034D01*
X81571424Y-86918032D01*
X81568149Y-86913474D01*
X81463974Y-86812521D01*
X81409311Y-86759548D01*
X81409308Y-86759546D01*
X81405283Y-86755645D01*
X81277749Y-86669946D01*
X81221695Y-86632279D01*
X81221690Y-86632276D01*
X81217042Y-86629153D01*
X81211910Y-86626900D01*
X81211906Y-86626898D01*
X81073011Y-86565927D01*
X81009376Y-86537993D01*
X80975622Y-86529890D01*
X80794308Y-86486360D01*
X80794302Y-86486359D01*
X80788849Y-86485050D01*
X80675640Y-86478522D01*
X80568037Y-86472317D01*
X80568034Y-86472317D01*
X80562431Y-86471994D01*
X80337281Y-86499241D01*
X80331919Y-86500891D01*
X80331917Y-86500891D01*
X80312908Y-86506739D01*
X80120513Y-86565927D01*
X80025618Y-86614906D01*
X80002385Y-86626898D01*
X79918981Y-86669946D01*
X79914533Y-86673359D01*
X79902826Y-86682342D01*
X79739053Y-86808009D01*
X79671322Y-86882445D01*
X79590199Y-86971598D01*
X79586419Y-86975752D01*
X79583438Y-86980503D01*
X79583438Y-86980504D01*
X79506775Y-87102716D01*
X79465901Y-87167874D01*
X79463807Y-87173084D01*
X79448603Y-87210905D01*
X79404636Y-87266649D01*
X79337511Y-87289774D01*
X79268540Y-87272937D01*
X79217970Y-87218152D01*
X79162910Y-87102716D01*
X79162909Y-87102715D01*
X79160493Y-87097649D01*
X79157215Y-87093087D01*
X79031426Y-86918034D01*
X79031424Y-86918032D01*
X79028149Y-86913474D01*
X78923974Y-86812521D01*
X78869311Y-86759548D01*
X78869308Y-86759546D01*
X78865283Y-86755645D01*
X78737749Y-86669946D01*
X78681695Y-86632279D01*
X78681690Y-86632276D01*
X78677042Y-86629153D01*
X78671910Y-86626900D01*
X78671906Y-86626898D01*
X78533011Y-86565927D01*
X78469376Y-86537993D01*
X78435622Y-86529890D01*
X78254308Y-86486360D01*
X78254302Y-86486359D01*
X78248849Y-86485050D01*
X78135640Y-86478522D01*
X78028037Y-86472317D01*
X78028034Y-86472317D01*
X78022431Y-86471994D01*
X77797281Y-86499241D01*
X77791919Y-86500891D01*
X77791917Y-86500891D01*
X77772908Y-86506739D01*
X77580513Y-86565927D01*
X77485618Y-86614906D01*
X77462385Y-86626898D01*
X77378981Y-86669946D01*
X77374533Y-86673359D01*
X77362826Y-86682342D01*
X77199053Y-86808009D01*
X77131322Y-86882445D01*
X77050199Y-86971598D01*
X77046419Y-86975752D01*
X77043438Y-86980503D01*
X77043438Y-86980504D01*
X76966775Y-87102716D01*
X76925901Y-87167874D01*
X76923807Y-87173084D01*
X76908603Y-87210905D01*
X76864636Y-87266649D01*
X76797511Y-87289774D01*
X76728540Y-87272937D01*
X76677970Y-87218152D01*
X76622910Y-87102716D01*
X76622909Y-87102715D01*
X76620493Y-87097649D01*
X76617215Y-87093087D01*
X76491426Y-86918034D01*
X76491424Y-86918032D01*
X76488149Y-86913474D01*
X76383974Y-86812521D01*
X76329311Y-86759548D01*
X76329308Y-86759546D01*
X76325283Y-86755645D01*
X76197749Y-86669946D01*
X76141695Y-86632279D01*
X76141690Y-86632276D01*
X76137042Y-86629153D01*
X76131910Y-86626900D01*
X76131906Y-86626898D01*
X75993011Y-86565927D01*
X75929376Y-86537993D01*
X75895622Y-86529890D01*
X75714308Y-86486360D01*
X75714302Y-86486359D01*
X75708849Y-86485050D01*
X75595640Y-86478522D01*
X75488037Y-86472317D01*
X75488034Y-86472317D01*
X75482431Y-86471994D01*
X75257281Y-86499241D01*
X75251919Y-86500891D01*
X75251917Y-86500891D01*
X75232908Y-86506739D01*
X75040513Y-86565927D01*
X74945618Y-86614906D01*
X74922385Y-86626898D01*
X74838981Y-86669946D01*
X74834533Y-86673359D01*
X74822826Y-86682342D01*
X74659053Y-86808009D01*
X74591322Y-86882445D01*
X74510199Y-86971598D01*
X74506419Y-86975752D01*
X74503438Y-86980503D01*
X74503438Y-86980504D01*
X74426775Y-87102716D01*
X74385901Y-87167874D01*
X74383807Y-87173084D01*
X74368603Y-87210905D01*
X74324636Y-87266649D01*
X74257511Y-87289774D01*
X74188540Y-87272937D01*
X74137970Y-87218152D01*
X74082910Y-87102716D01*
X74082909Y-87102715D01*
X74080493Y-87097649D01*
X74077215Y-87093087D01*
X73951426Y-86918034D01*
X73951424Y-86918032D01*
X73948149Y-86913474D01*
X73843974Y-86812521D01*
X73789311Y-86759548D01*
X73789308Y-86759546D01*
X73785283Y-86755645D01*
X73657749Y-86669946D01*
X73601695Y-86632279D01*
X73601690Y-86632276D01*
X73597042Y-86629153D01*
X73591910Y-86626900D01*
X73591906Y-86626898D01*
X73453011Y-86565927D01*
X73389376Y-86537993D01*
X73355622Y-86529890D01*
X73174308Y-86486360D01*
X73174302Y-86486359D01*
X73168849Y-86485050D01*
X73055640Y-86478522D01*
X72948037Y-86472317D01*
X72948034Y-86472317D01*
X72942431Y-86471994D01*
X72717281Y-86499241D01*
X72711919Y-86500891D01*
X72711917Y-86500891D01*
X72692908Y-86506739D01*
X72500513Y-86565927D01*
X72405618Y-86614906D01*
X72382385Y-86626898D01*
X72298981Y-86669946D01*
X72294533Y-86673359D01*
X72282826Y-86682342D01*
X72119053Y-86808009D01*
X72051322Y-86882445D01*
X71970199Y-86971598D01*
X71966419Y-86975752D01*
X71963438Y-86980503D01*
X71963438Y-86980504D01*
X71886775Y-87102716D01*
X71845901Y-87167874D01*
X71843807Y-87173084D01*
X71828603Y-87210905D01*
X71784636Y-87266649D01*
X71717511Y-87289774D01*
X71648540Y-87272937D01*
X71597970Y-87218152D01*
X71542910Y-87102716D01*
X71542909Y-87102715D01*
X71540493Y-87097649D01*
X71537215Y-87093087D01*
X71411426Y-86918034D01*
X71411424Y-86918032D01*
X71408149Y-86913474D01*
X71303974Y-86812521D01*
X71249311Y-86759548D01*
X71249308Y-86759546D01*
X71245283Y-86755645D01*
X71117749Y-86669946D01*
X71061695Y-86632279D01*
X71061690Y-86632276D01*
X71057042Y-86629153D01*
X71051910Y-86626900D01*
X71051906Y-86626898D01*
X70913011Y-86565927D01*
X70849376Y-86537993D01*
X70815622Y-86529890D01*
X70634308Y-86486360D01*
X70634302Y-86486359D01*
X70628849Y-86485050D01*
X70515640Y-86478522D01*
X70408037Y-86472317D01*
X70408034Y-86472317D01*
X70402431Y-86471994D01*
X70177281Y-86499241D01*
X70171919Y-86500891D01*
X70171917Y-86500891D01*
X70152908Y-86506739D01*
X69960513Y-86565927D01*
X69865618Y-86614906D01*
X69842385Y-86626898D01*
X69758981Y-86669946D01*
X69754533Y-86673359D01*
X69742826Y-86682342D01*
X69579053Y-86808009D01*
X69511322Y-86882445D01*
X69430199Y-86971598D01*
X69426419Y-86975752D01*
X69423438Y-86980503D01*
X69423438Y-86980504D01*
X69346775Y-87102716D01*
X69305901Y-87167874D01*
X69303807Y-87173084D01*
X69288603Y-87210905D01*
X69244636Y-87266649D01*
X69177511Y-87289774D01*
X69108540Y-87272937D01*
X69057970Y-87218152D01*
X69002910Y-87102716D01*
X69002909Y-87102715D01*
X69000493Y-87097649D01*
X68997215Y-87093087D01*
X68871426Y-86918034D01*
X68871424Y-86918032D01*
X68868149Y-86913474D01*
X68763974Y-86812521D01*
X68709311Y-86759548D01*
X68709308Y-86759546D01*
X68705283Y-86755645D01*
X68577749Y-86669946D01*
X68521695Y-86632279D01*
X68521690Y-86632276D01*
X68517042Y-86629153D01*
X68511910Y-86626900D01*
X68511906Y-86626898D01*
X68373011Y-86565927D01*
X68309376Y-86537993D01*
X68275622Y-86529890D01*
X68094308Y-86486360D01*
X68094302Y-86486359D01*
X68088849Y-86485050D01*
X67975640Y-86478522D01*
X67868037Y-86472317D01*
X67868034Y-86472317D01*
X67862431Y-86471994D01*
X67637281Y-86499241D01*
X67631919Y-86500891D01*
X67631917Y-86500891D01*
X67612908Y-86506739D01*
X67420513Y-86565927D01*
X67325618Y-86614906D01*
X67302385Y-86626898D01*
X67218981Y-86669946D01*
X67214533Y-86673359D01*
X67202826Y-86682342D01*
X67039053Y-86808009D01*
X66971322Y-86882445D01*
X66890199Y-86971598D01*
X66886419Y-86975752D01*
X66883438Y-86980503D01*
X66883438Y-86980504D01*
X66806775Y-87102716D01*
X66765901Y-87167874D01*
X66681310Y-87378301D01*
X66635319Y-87600382D01*
X66632000Y-87657944D01*
X66632000Y-88280535D01*
X58758500Y-88280535D01*
X58758500Y-85044669D01*
X115242001Y-85044669D01*
X115242371Y-85051490D01*
X115247895Y-85102352D01*
X115251521Y-85117604D01*
X115296676Y-85238054D01*
X115305214Y-85253649D01*
X115381715Y-85355724D01*
X115394276Y-85368285D01*
X115496351Y-85444786D01*
X115511946Y-85453324D01*
X115632394Y-85498478D01*
X115647649Y-85502105D01*
X115698514Y-85507631D01*
X115705328Y-85508000D01*
X115977885Y-85508000D01*
X115993124Y-85503525D01*
X115994329Y-85502135D01*
X115996000Y-85494452D01*
X115996000Y-85489884D01*
X116504000Y-85489884D01*
X116508475Y-85505123D01*
X116509865Y-85506328D01*
X116517548Y-85507999D01*
X116794669Y-85507999D01*
X116801490Y-85507629D01*
X116852352Y-85502105D01*
X116867604Y-85498479D01*
X116988054Y-85453324D01*
X117003649Y-85444786D01*
X117105724Y-85368285D01*
X117118285Y-85355724D01*
X117194786Y-85253649D01*
X117203324Y-85238054D01*
X117244877Y-85127211D01*
X135687775Y-85127211D01*
X135700220Y-85386288D01*
X135701356Y-85395543D01*
X135751961Y-85649945D01*
X135754449Y-85658917D01*
X135842095Y-85903033D01*
X135845895Y-85911568D01*
X135968658Y-86140042D01*
X135973666Y-86147904D01*
X136043720Y-86241716D01*
X136054979Y-86250165D01*
X136067397Y-86243393D01*
X137127978Y-85182812D01*
X137134356Y-85171132D01*
X137864408Y-85171132D01*
X137864539Y-85172965D01*
X137868790Y-85179580D01*
X138936094Y-86246884D01*
X138948474Y-86253644D01*
X138956815Y-86247400D01*
X139090832Y-86039048D01*
X139095275Y-86030864D01*
X139201807Y-85794370D01*
X139204997Y-85785605D01*
X139275402Y-85535972D01*
X139277262Y-85526830D01*
X139310187Y-85268019D01*
X139310668Y-85261733D01*
X139312987Y-85173160D01*
X139312836Y-85166851D01*
X139293501Y-84906663D01*
X139292125Y-84897457D01*
X139234878Y-84644467D01*
X139232154Y-84635556D01*
X139138143Y-84393806D01*
X139134132Y-84385397D01*
X139005422Y-84160202D01*
X139000211Y-84152476D01*
X138956996Y-84097658D01*
X138945071Y-84089187D01*
X138933537Y-84095673D01*
X137872022Y-85157188D01*
X137864408Y-85171132D01*
X137134356Y-85171132D01*
X137135592Y-85168868D01*
X137135461Y-85167035D01*
X137131210Y-85160420D01*
X136065816Y-84095026D01*
X136052507Y-84087758D01*
X136042472Y-84094878D01*
X136026937Y-84113556D01*
X136021531Y-84121135D01*
X135886965Y-84342891D01*
X135882736Y-84351192D01*
X135782432Y-84590389D01*
X135779471Y-84599239D01*
X135715628Y-84850625D01*
X135714006Y-84859822D01*
X135688020Y-85117885D01*
X135687775Y-85127211D01*
X117244877Y-85127211D01*
X117248478Y-85117606D01*
X117252105Y-85102351D01*
X117257631Y-85051486D01*
X117258000Y-85044672D01*
X117258000Y-84772115D01*
X117253525Y-84756876D01*
X117252135Y-84755671D01*
X117244452Y-84754000D01*
X116522115Y-84754000D01*
X116506876Y-84758475D01*
X116505671Y-84759865D01*
X116504000Y-84767548D01*
X116504000Y-85489884D01*
X115996000Y-85489884D01*
X115996000Y-84772115D01*
X115991525Y-84756876D01*
X115990135Y-84755671D01*
X115982452Y-84754000D01*
X115260116Y-84754000D01*
X115244877Y-84758475D01*
X115243672Y-84759865D01*
X115242001Y-84767548D01*
X115242001Y-85044669D01*
X58758500Y-85044669D01*
X58758500Y-84227885D01*
X115242000Y-84227885D01*
X115246475Y-84243124D01*
X115247865Y-84244329D01*
X115255548Y-84246000D01*
X115977885Y-84246000D01*
X115993124Y-84241525D01*
X115994329Y-84240135D01*
X115996000Y-84232452D01*
X115996000Y-84227885D01*
X116504000Y-84227885D01*
X116508475Y-84243124D01*
X116509865Y-84244329D01*
X116517548Y-84246000D01*
X117239884Y-84246000D01*
X117255123Y-84241525D01*
X117256328Y-84240135D01*
X117257999Y-84232452D01*
X117257999Y-83955331D01*
X117257629Y-83948510D01*
X117252105Y-83897648D01*
X117248479Y-83882396D01*
X117203324Y-83761946D01*
X117194786Y-83746351D01*
X117177052Y-83722689D01*
X136417102Y-83722689D01*
X136421675Y-83732465D01*
X137487188Y-84797978D01*
X137501132Y-84805592D01*
X137502965Y-84805461D01*
X137509580Y-84801210D01*
X138574349Y-83736441D01*
X138580733Y-83724751D01*
X138571321Y-83712641D01*
X138424045Y-83610471D01*
X138416010Y-83605738D01*
X138183376Y-83491016D01*
X138174743Y-83487528D01*
X137927703Y-83408450D01*
X137918643Y-83406274D01*
X137662630Y-83364580D01*
X137653343Y-83363768D01*
X137393992Y-83360373D01*
X137384681Y-83360943D01*
X137127682Y-83395919D01*
X137118546Y-83397860D01*
X136869543Y-83470439D01*
X136860800Y-83473707D01*
X136625252Y-83582296D01*
X136617097Y-83586816D01*
X136426240Y-83711947D01*
X136417102Y-83722689D01*
X117177052Y-83722689D01*
X117118285Y-83644276D01*
X117105724Y-83631715D01*
X117003649Y-83555214D01*
X116988054Y-83546676D01*
X116867606Y-83501522D01*
X116852351Y-83497895D01*
X116801486Y-83492369D01*
X116794672Y-83492000D01*
X116522115Y-83492000D01*
X116506876Y-83496475D01*
X116505671Y-83497865D01*
X116504000Y-83505548D01*
X116504000Y-84227885D01*
X115996000Y-84227885D01*
X115996000Y-83510116D01*
X115991525Y-83494877D01*
X115990135Y-83493672D01*
X115982452Y-83492001D01*
X115705331Y-83492001D01*
X115698510Y-83492371D01*
X115647648Y-83497895D01*
X115632396Y-83501521D01*
X115511946Y-83546676D01*
X115496351Y-83555214D01*
X115394276Y-83631715D01*
X115381715Y-83644276D01*
X115305214Y-83746351D01*
X115296676Y-83761946D01*
X115251522Y-83882394D01*
X115247895Y-83897649D01*
X115242369Y-83948514D01*
X115242000Y-83955328D01*
X115242000Y-84227885D01*
X58758500Y-84227885D01*
X58758500Y-82500000D01*
X94836496Y-82500000D01*
X94856458Y-82689928D01*
X94915473Y-82871556D01*
X95010960Y-83036944D01*
X95138747Y-83178866D01*
X95293248Y-83291118D01*
X95299276Y-83293802D01*
X95299278Y-83293803D01*
X95448798Y-83360373D01*
X95467712Y-83368794D01*
X95561113Y-83388647D01*
X95648056Y-83407128D01*
X95648061Y-83407128D01*
X95654513Y-83408500D01*
X95845487Y-83408500D01*
X95851939Y-83407128D01*
X95851944Y-83407128D01*
X95938887Y-83388647D01*
X96032288Y-83368794D01*
X96051202Y-83360373D01*
X96200722Y-83293803D01*
X96200724Y-83293802D01*
X96206752Y-83291118D01*
X96361253Y-83178866D01*
X96489040Y-83036944D01*
X96584527Y-82871556D01*
X96643542Y-82689928D01*
X96663504Y-82500000D01*
X96643542Y-82310072D01*
X96584527Y-82128444D01*
X96489040Y-81963056D01*
X96408152Y-81873220D01*
X96365675Y-81826045D01*
X96365674Y-81826044D01*
X96361253Y-81821134D01*
X96206752Y-81708882D01*
X96200724Y-81706198D01*
X96200722Y-81706197D01*
X96038319Y-81633891D01*
X96038318Y-81633891D01*
X96032288Y-81631206D01*
X95938888Y-81611353D01*
X95851944Y-81592872D01*
X95851939Y-81592872D01*
X95845487Y-81591500D01*
X95654513Y-81591500D01*
X95648061Y-81592872D01*
X95648056Y-81592872D01*
X95561112Y-81611353D01*
X95467712Y-81631206D01*
X95461682Y-81633891D01*
X95461681Y-81633891D01*
X95299278Y-81706197D01*
X95299276Y-81706198D01*
X95293248Y-81708882D01*
X95138747Y-81821134D01*
X95134326Y-81826044D01*
X95134325Y-81826045D01*
X95091849Y-81873220D01*
X95010960Y-81963056D01*
X94915473Y-82128444D01*
X94856458Y-82310072D01*
X94836496Y-82500000D01*
X58758500Y-82500000D01*
X58758500Y-81534906D01*
X136419839Y-81534906D01*
X136428553Y-81546427D01*
X136535452Y-81624809D01*
X136543351Y-81629745D01*
X136772905Y-81750519D01*
X136781454Y-81754236D01*
X137026327Y-81839749D01*
X137035336Y-81842163D01*
X137290166Y-81890544D01*
X137299423Y-81891598D01*
X137558607Y-81901783D01*
X137567921Y-81901457D01*
X137825753Y-81873220D01*
X137834930Y-81871519D01*
X138085758Y-81805481D01*
X138094574Y-81802445D01*
X138332880Y-81700062D01*
X138341167Y-81695748D01*
X138561718Y-81559266D01*
X138569268Y-81553780D01*
X138574559Y-81549301D01*
X138582997Y-81536497D01*
X138576935Y-81526145D01*
X137512812Y-80462022D01*
X137498868Y-80454408D01*
X137497035Y-80454539D01*
X137490420Y-80458790D01*
X136426497Y-81522713D01*
X136419839Y-81534906D01*
X58758500Y-81534906D01*
X58758500Y-80047211D01*
X135687775Y-80047211D01*
X135700220Y-80306288D01*
X135701356Y-80315543D01*
X135751961Y-80569945D01*
X135754449Y-80578917D01*
X135842095Y-80823033D01*
X135845895Y-80831568D01*
X135968658Y-81060042D01*
X135973666Y-81067904D01*
X136043720Y-81161716D01*
X136054979Y-81170165D01*
X136067397Y-81163393D01*
X137127978Y-80102812D01*
X137134356Y-80091132D01*
X137864408Y-80091132D01*
X137864539Y-80092965D01*
X137868790Y-80099580D01*
X138936094Y-81166884D01*
X138948474Y-81173644D01*
X138956815Y-81167400D01*
X139090832Y-80959048D01*
X139095275Y-80950864D01*
X139201807Y-80714370D01*
X139204997Y-80705605D01*
X139275402Y-80455972D01*
X139277262Y-80446830D01*
X139310187Y-80188019D01*
X139310668Y-80181733D01*
X139312987Y-80093160D01*
X139312836Y-80086851D01*
X139293501Y-79826663D01*
X139292125Y-79817457D01*
X139234878Y-79564467D01*
X139232154Y-79555556D01*
X139138143Y-79313806D01*
X139134132Y-79305397D01*
X139005422Y-79080202D01*
X139000211Y-79072476D01*
X138956996Y-79017658D01*
X138945071Y-79009187D01*
X138933537Y-79015673D01*
X137872022Y-80077188D01*
X137864408Y-80091132D01*
X137134356Y-80091132D01*
X137135592Y-80088868D01*
X137135461Y-80087035D01*
X137131210Y-80080420D01*
X136065816Y-79015026D01*
X136052507Y-79007758D01*
X136042472Y-79014878D01*
X136026937Y-79033556D01*
X136021531Y-79041135D01*
X135886965Y-79262891D01*
X135882736Y-79271192D01*
X135782432Y-79510389D01*
X135779471Y-79519239D01*
X135715628Y-79770625D01*
X135714006Y-79779822D01*
X135688020Y-80037885D01*
X135687775Y-80047211D01*
X58758500Y-80047211D01*
X58758500Y-78000000D01*
X116336496Y-78000000D01*
X116356458Y-78189928D01*
X116415473Y-78371556D01*
X116510960Y-78536944D01*
X116638747Y-78678866D01*
X116793248Y-78791118D01*
X116799276Y-78793802D01*
X116799278Y-78793803D01*
X116961681Y-78866109D01*
X116967712Y-78868794D01*
X117061112Y-78888647D01*
X117148056Y-78907128D01*
X117148061Y-78907128D01*
X117154513Y-78908500D01*
X117345487Y-78908500D01*
X117351939Y-78907128D01*
X117351944Y-78907128D01*
X117438888Y-78888647D01*
X117532288Y-78868794D01*
X117538319Y-78866109D01*
X117700722Y-78793803D01*
X117700724Y-78793802D01*
X117706752Y-78791118D01*
X117861253Y-78678866D01*
X117893827Y-78642689D01*
X136417102Y-78642689D01*
X136421675Y-78652465D01*
X137487188Y-79717978D01*
X137501132Y-79725592D01*
X137502965Y-79725461D01*
X137509580Y-79721210D01*
X138574349Y-78656441D01*
X138580733Y-78644751D01*
X138571321Y-78632641D01*
X138424045Y-78530471D01*
X138416010Y-78525738D01*
X138183376Y-78411016D01*
X138174743Y-78407528D01*
X137927703Y-78328450D01*
X137918643Y-78326274D01*
X137662630Y-78284580D01*
X137653343Y-78283768D01*
X137393992Y-78280373D01*
X137384681Y-78280943D01*
X137127682Y-78315919D01*
X137118546Y-78317860D01*
X136869543Y-78390439D01*
X136860800Y-78393707D01*
X136625252Y-78502296D01*
X136617097Y-78506816D01*
X136426240Y-78631947D01*
X136417102Y-78642689D01*
X117893827Y-78642689D01*
X117989040Y-78536944D01*
X118084527Y-78371556D01*
X118143542Y-78189928D01*
X118163504Y-78000000D01*
X118143542Y-77810072D01*
X118084527Y-77628444D01*
X117989040Y-77463056D01*
X117861253Y-77321134D01*
X117706752Y-77208882D01*
X117700724Y-77206198D01*
X117700722Y-77206197D01*
X117538319Y-77133891D01*
X117538318Y-77133891D01*
X117532288Y-77131206D01*
X117438888Y-77111353D01*
X117351944Y-77092872D01*
X117351939Y-77092872D01*
X117345487Y-77091500D01*
X117154513Y-77091500D01*
X117148061Y-77092872D01*
X117148056Y-77092872D01*
X117061112Y-77111353D01*
X116967712Y-77131206D01*
X116961682Y-77133891D01*
X116961681Y-77133891D01*
X116799278Y-77206197D01*
X116799276Y-77206198D01*
X116793248Y-77208882D01*
X116638747Y-77321134D01*
X116510960Y-77463056D01*
X116415473Y-77628444D01*
X116356458Y-77810072D01*
X116336496Y-78000000D01*
X58758500Y-78000000D01*
X58758500Y-76237701D01*
X71398996Y-76237701D01*
X71399686Y-76244266D01*
X71414558Y-76385762D01*
X71418958Y-76427629D01*
X71477973Y-76609257D01*
X71481276Y-76614979D01*
X71481277Y-76614980D01*
X71483400Y-76618657D01*
X71573460Y-76774645D01*
X71701247Y-76916567D01*
X71855748Y-77028819D01*
X71861776Y-77031503D01*
X71861778Y-77031504D01*
X71999614Y-77092872D01*
X72030212Y-77106495D01*
X72123613Y-77126348D01*
X72210556Y-77144829D01*
X72210561Y-77144829D01*
X72217013Y-77146201D01*
X72407987Y-77146201D01*
X72414439Y-77144829D01*
X72414444Y-77144829D01*
X72501387Y-77126348D01*
X72594788Y-77106495D01*
X72625386Y-77092872D01*
X72763222Y-77031504D01*
X72763224Y-77031503D01*
X72769252Y-77028819D01*
X72923753Y-76916567D01*
X73051540Y-76774645D01*
X73141600Y-76618657D01*
X73143723Y-76614980D01*
X73143724Y-76614979D01*
X73147027Y-76609257D01*
X73182527Y-76500000D01*
X110836496Y-76500000D01*
X110856458Y-76689928D01*
X110915473Y-76871556D01*
X111010960Y-77036944D01*
X111138747Y-77178866D01*
X111293248Y-77291118D01*
X111299276Y-77293802D01*
X111299278Y-77293803D01*
X111461681Y-77366109D01*
X111467712Y-77368794D01*
X111561113Y-77388647D01*
X111648056Y-77407128D01*
X111648061Y-77407128D01*
X111654513Y-77408500D01*
X111845487Y-77408500D01*
X111851939Y-77407128D01*
X111851944Y-77407128D01*
X111938887Y-77388647D01*
X112032288Y-77368794D01*
X112038319Y-77366109D01*
X112200722Y-77293803D01*
X112200724Y-77293802D01*
X112206752Y-77291118D01*
X112361253Y-77178866D01*
X112489040Y-77036944D01*
X112584527Y-76871556D01*
X112643542Y-76689928D01*
X112663504Y-76500000D01*
X112643542Y-76310072D01*
X112584527Y-76128444D01*
X112577406Y-76116109D01*
X112534109Y-76041118D01*
X112489040Y-75963056D01*
X112461752Y-75932749D01*
X112365675Y-75826045D01*
X112365674Y-75826044D01*
X112361253Y-75821134D01*
X112206752Y-75708882D01*
X112200724Y-75706198D01*
X112200722Y-75706197D01*
X112038319Y-75633891D01*
X112038318Y-75633891D01*
X112032288Y-75631206D01*
X111938888Y-75611353D01*
X111851944Y-75592872D01*
X111851939Y-75592872D01*
X111845487Y-75591500D01*
X111654513Y-75591500D01*
X111648061Y-75592872D01*
X111648056Y-75592872D01*
X111561112Y-75611353D01*
X111467712Y-75631206D01*
X111461682Y-75633891D01*
X111461681Y-75633891D01*
X111299278Y-75706197D01*
X111299276Y-75706198D01*
X111293248Y-75708882D01*
X111138747Y-75821134D01*
X111134326Y-75826044D01*
X111134325Y-75826045D01*
X111038249Y-75932749D01*
X111010960Y-75963056D01*
X110965891Y-76041118D01*
X110922595Y-76116109D01*
X110915473Y-76128444D01*
X110856458Y-76310072D01*
X110836496Y-76500000D01*
X73182527Y-76500000D01*
X73206042Y-76427629D01*
X73210443Y-76385762D01*
X73225314Y-76244266D01*
X73226004Y-76237701D01*
X73206042Y-76047773D01*
X73147027Y-75866145D01*
X73051540Y-75700757D01*
X72988081Y-75630278D01*
X72928175Y-75563746D01*
X72928174Y-75563745D01*
X72923753Y-75558835D01*
X72769252Y-75446583D01*
X72763224Y-75443899D01*
X72763222Y-75443898D01*
X72600819Y-75371592D01*
X72600818Y-75371592D01*
X72594788Y-75368907D01*
X72501388Y-75349054D01*
X72414444Y-75330573D01*
X72414439Y-75330573D01*
X72407987Y-75329201D01*
X72217013Y-75329201D01*
X72210561Y-75330573D01*
X72210556Y-75330573D01*
X72123612Y-75349054D01*
X72030212Y-75368907D01*
X72024182Y-75371592D01*
X72024181Y-75371592D01*
X71861778Y-75443898D01*
X71861776Y-75443899D01*
X71855748Y-75446583D01*
X71701247Y-75558835D01*
X71696826Y-75563745D01*
X71696825Y-75563746D01*
X71636920Y-75630278D01*
X71573460Y-75700757D01*
X71477973Y-75866145D01*
X71418958Y-76047773D01*
X71398996Y-76237701D01*
X58758500Y-76237701D01*
X58758500Y-73037711D01*
X66632500Y-73037711D01*
X66632749Y-73043306D01*
X66647021Y-73203212D01*
X66649003Y-73214226D01*
X66705861Y-73422065D01*
X66709755Y-73432538D01*
X66802526Y-73627037D01*
X66808210Y-73636648D01*
X66933959Y-73811644D01*
X66941258Y-73820100D01*
X67096000Y-73970056D01*
X67104697Y-73977098D01*
X67283540Y-74097276D01*
X67293343Y-74102665D01*
X67490643Y-74189274D01*
X67501238Y-74192840D01*
X67630885Y-74223966D01*
X67644970Y-74223261D01*
X67648500Y-74214382D01*
X67648500Y-74213498D01*
X68156500Y-74213498D01*
X68160606Y-74227480D01*
X68170852Y-74229070D01*
X68172975Y-74228619D01*
X68378935Y-74165257D01*
X68389280Y-74161036D01*
X68580767Y-74062202D01*
X68590198Y-74056217D01*
X68761163Y-73925032D01*
X68769376Y-73917479D01*
X68914409Y-73758090D01*
X68921164Y-73749190D01*
X69035666Y-73566657D01*
X69040747Y-73556687D01*
X69056105Y-73518483D01*
X69100072Y-73462739D01*
X69167197Y-73439614D01*
X69236168Y-73456451D01*
X69286738Y-73511236D01*
X69313173Y-73566657D01*
X69344507Y-73632351D01*
X69347784Y-73636912D01*
X69347785Y-73636913D01*
X69451732Y-73781569D01*
X69476851Y-73816526D01*
X69480881Y-73820431D01*
X69635281Y-73970056D01*
X69639717Y-73974355D01*
X69666266Y-73992195D01*
X69823305Y-74097721D01*
X69823310Y-74097724D01*
X69827958Y-74100847D01*
X69833090Y-74103100D01*
X69833094Y-74103102D01*
X69960799Y-74159161D01*
X70035624Y-74192007D01*
X70041082Y-74193317D01*
X70041081Y-74193317D01*
X70250692Y-74243640D01*
X70250698Y-74243641D01*
X70256151Y-74244950D01*
X70369360Y-74251478D01*
X70476963Y-74257683D01*
X70476966Y-74257683D01*
X70482569Y-74258006D01*
X70707719Y-74230759D01*
X70713081Y-74229109D01*
X70713083Y-74229109D01*
X70829427Y-74193317D01*
X70924487Y-74164073D01*
X71025253Y-74112064D01*
X71121036Y-74062626D01*
X71121037Y-74062626D01*
X71126019Y-74060054D01*
X71131020Y-74056217D01*
X71233629Y-73977482D01*
X71305947Y-73921991D01*
X71398359Y-73820431D01*
X71454808Y-73758395D01*
X71454810Y-73758392D01*
X71458581Y-73754248D01*
X71532185Y-73636913D01*
X71576116Y-73566882D01*
X71576118Y-73566878D01*
X71579099Y-73562126D01*
X71596398Y-73519094D01*
X71640364Y-73463351D01*
X71707489Y-73440226D01*
X71776460Y-73457063D01*
X71827030Y-73511848D01*
X71853173Y-73566657D01*
X71884507Y-73632351D01*
X71887784Y-73636912D01*
X71887785Y-73636913D01*
X71991732Y-73781569D01*
X72016851Y-73816526D01*
X72020881Y-73820431D01*
X72175281Y-73970056D01*
X72179717Y-73974355D01*
X72206266Y-73992195D01*
X72363305Y-74097721D01*
X72363310Y-74097724D01*
X72367958Y-74100847D01*
X72373090Y-74103100D01*
X72373094Y-74103102D01*
X72500799Y-74159161D01*
X72575624Y-74192007D01*
X72581082Y-74193317D01*
X72581081Y-74193317D01*
X72790692Y-74243640D01*
X72790698Y-74243641D01*
X72796151Y-74244950D01*
X72909360Y-74251478D01*
X73016963Y-74257683D01*
X73016966Y-74257683D01*
X73022569Y-74258006D01*
X73247719Y-74230759D01*
X73253081Y-74229109D01*
X73253083Y-74229109D01*
X73369427Y-74193317D01*
X73464487Y-74164073D01*
X73565253Y-74112064D01*
X73661036Y-74062626D01*
X73661037Y-74062626D01*
X73666019Y-74060054D01*
X73671020Y-74056217D01*
X73773629Y-73977482D01*
X73845947Y-73921991D01*
X73938359Y-73820431D01*
X73994808Y-73758395D01*
X73994810Y-73758392D01*
X73998581Y-73754248D01*
X74072185Y-73636913D01*
X74116116Y-73566882D01*
X74116118Y-73566878D01*
X74119099Y-73562126D01*
X74136398Y-73519094D01*
X74180364Y-73463351D01*
X74247489Y-73440226D01*
X74316460Y-73457063D01*
X74367030Y-73511848D01*
X74393173Y-73566657D01*
X74424507Y-73632351D01*
X74427784Y-73636912D01*
X74427785Y-73636913D01*
X74531732Y-73781569D01*
X74556851Y-73816526D01*
X74560881Y-73820431D01*
X74715281Y-73970056D01*
X74719717Y-73974355D01*
X74746266Y-73992195D01*
X74903305Y-74097721D01*
X74903310Y-74097724D01*
X74907958Y-74100847D01*
X74913090Y-74103100D01*
X74913094Y-74103102D01*
X75040799Y-74159161D01*
X75115624Y-74192007D01*
X75121082Y-74193317D01*
X75121081Y-74193317D01*
X75330692Y-74243640D01*
X75330698Y-74243641D01*
X75336151Y-74244950D01*
X75449360Y-74251478D01*
X75556963Y-74257683D01*
X75556966Y-74257683D01*
X75562569Y-74258006D01*
X75764135Y-74233613D01*
X75834166Y-74245286D01*
X75886768Y-74292967D01*
X75905241Y-74361518D01*
X75883721Y-74429174D01*
X75853334Y-74460636D01*
X75701247Y-74571134D01*
X75573460Y-74713056D01*
X75477973Y-74878444D01*
X75418958Y-75060072D01*
X75398996Y-75250000D01*
X75399686Y-75256565D01*
X75412247Y-75376072D01*
X75418958Y-75439928D01*
X75477973Y-75621556D01*
X75481276Y-75627278D01*
X75481277Y-75627279D01*
X75485470Y-75634542D01*
X75573460Y-75786944D01*
X75577878Y-75791851D01*
X75577879Y-75791852D01*
X75696825Y-75923955D01*
X75701247Y-75928866D01*
X75855748Y-76041118D01*
X75861776Y-76043802D01*
X75861778Y-76043803D01*
X75999111Y-76104947D01*
X76030212Y-76118794D01*
X76105180Y-76134729D01*
X76210556Y-76157128D01*
X76210561Y-76157128D01*
X76217013Y-76158500D01*
X76407987Y-76158500D01*
X76414439Y-76157128D01*
X76414444Y-76157128D01*
X76519820Y-76134729D01*
X76594788Y-76118794D01*
X76625889Y-76104947D01*
X76763222Y-76043803D01*
X76763224Y-76043802D01*
X76769252Y-76041118D01*
X76923753Y-75928866D01*
X76928175Y-75923955D01*
X77047121Y-75791852D01*
X77047122Y-75791851D01*
X77051540Y-75786944D01*
X77139530Y-75634542D01*
X77143723Y-75627279D01*
X77143724Y-75627278D01*
X77147027Y-75621556D01*
X77206042Y-75439928D01*
X77212754Y-75376072D01*
X77225314Y-75256565D01*
X77226004Y-75250000D01*
X77206042Y-75060072D01*
X77174347Y-74962526D01*
X135687050Y-74962526D01*
X135687274Y-74967192D01*
X135687274Y-74967197D01*
X135692051Y-75066635D01*
X135699947Y-75231019D01*
X135752388Y-75494656D01*
X135843220Y-75747646D01*
X135845432Y-75751762D01*
X135845433Y-75751765D01*
X135903817Y-75860422D01*
X135970450Y-75984431D01*
X135973241Y-75988168D01*
X135973245Y-75988175D01*
X136082683Y-76134729D01*
X136131281Y-76199810D01*
X136134590Y-76203090D01*
X136134595Y-76203096D01*
X136249130Y-76316635D01*
X136322180Y-76389050D01*
X136325942Y-76391808D01*
X136325945Y-76391811D01*
X136535183Y-76545230D01*
X136538954Y-76547995D01*
X136543089Y-76550171D01*
X136543093Y-76550173D01*
X136772698Y-76670975D01*
X136776840Y-76673154D01*
X137030613Y-76761775D01*
X137035206Y-76762647D01*
X137290109Y-76811042D01*
X137290112Y-76811042D01*
X137294698Y-76811913D01*
X137422370Y-76816929D01*
X137558625Y-76822283D01*
X137558630Y-76822283D01*
X137563293Y-76822466D01*
X137667607Y-76811042D01*
X137825844Y-76793713D01*
X137825850Y-76793712D01*
X137830497Y-76793203D01*
X137900985Y-76774645D01*
X138085918Y-76725956D01*
X138085920Y-76725955D01*
X138090441Y-76724765D01*
X138156914Y-76696206D01*
X138333120Y-76620502D01*
X138333122Y-76620501D01*
X138337414Y-76618657D01*
X138539771Y-76493435D01*
X138562017Y-76479669D01*
X138562021Y-76479666D01*
X138565990Y-76477210D01*
X138771149Y-76303530D01*
X138948382Y-76101434D01*
X138978677Y-76054336D01*
X139091269Y-75879291D01*
X139093797Y-75875361D01*
X139204199Y-75630278D01*
X139241209Y-75499051D01*
X139275893Y-75376072D01*
X139275894Y-75376069D01*
X139277163Y-75371568D01*
X139295043Y-75231019D01*
X139310688Y-75108045D01*
X139310688Y-75108041D01*
X139311086Y-75104915D01*
X139313571Y-75010000D01*
X139304262Y-74884729D01*
X139293996Y-74746592D01*
X139293996Y-74746591D01*
X139293650Y-74741937D01*
X139287115Y-74713056D01*
X139235361Y-74484331D01*
X139235360Y-74484326D01*
X139234327Y-74479763D01*
X139136902Y-74229238D01*
X139003518Y-73995864D01*
X138837105Y-73784769D01*
X138641317Y-73600591D01*
X138443488Y-73463351D01*
X138424299Y-73450039D01*
X138424296Y-73450037D01*
X138420457Y-73447374D01*
X138416264Y-73445306D01*
X138183564Y-73330551D01*
X138183561Y-73330550D01*
X138179376Y-73328486D01*
X138131745Y-73313239D01*
X138077621Y-73295914D01*
X137923370Y-73246538D01*
X137918763Y-73245788D01*
X137918760Y-73245787D01*
X137662674Y-73204081D01*
X137662675Y-73204081D01*
X137658063Y-73203330D01*
X137527719Y-73201624D01*
X137393961Y-73199873D01*
X137393958Y-73199873D01*
X137389284Y-73199812D01*
X137122937Y-73236060D01*
X136864874Y-73311278D01*
X136620763Y-73423815D01*
X136616854Y-73426378D01*
X136399881Y-73568631D01*
X136399876Y-73568635D01*
X136395968Y-73571197D01*
X136195426Y-73750188D01*
X136023544Y-73956854D01*
X136012924Y-73974355D01*
X135899361Y-74161501D01*
X135884096Y-74186656D01*
X135882287Y-74190970D01*
X135882285Y-74190974D01*
X135818589Y-74342873D01*
X135780148Y-74434545D01*
X135713981Y-74695077D01*
X135687050Y-74962526D01*
X77174347Y-74962526D01*
X77147027Y-74878444D01*
X77051540Y-74713056D01*
X76923753Y-74571134D01*
X76824657Y-74499136D01*
X76774594Y-74462763D01*
X76774593Y-74462762D01*
X76769252Y-74458882D01*
X76763224Y-74456198D01*
X76763222Y-74456197D01*
X76600819Y-74383891D01*
X76600818Y-74383891D01*
X76594788Y-74381206D01*
X76501388Y-74361353D01*
X76414444Y-74342872D01*
X76414439Y-74342872D01*
X76407987Y-74341500D01*
X76217013Y-74341500D01*
X76210553Y-74342873D01*
X76210554Y-74342873D01*
X76188821Y-74347492D01*
X76118030Y-74342089D01*
X76061398Y-74299272D01*
X76036905Y-74232635D01*
X76052327Y-74163333D01*
X76104835Y-74112279D01*
X76201036Y-74062626D01*
X76201037Y-74062626D01*
X76206019Y-74060054D01*
X76211020Y-74056217D01*
X76313629Y-73977482D01*
X76385947Y-73921991D01*
X76478359Y-73820431D01*
X76534808Y-73758395D01*
X76534810Y-73758392D01*
X76538581Y-73754248D01*
X76612185Y-73636913D01*
X76656116Y-73566882D01*
X76656118Y-73566878D01*
X76659099Y-73562126D01*
X76676398Y-73519094D01*
X76720364Y-73463351D01*
X76787489Y-73440226D01*
X76856460Y-73457063D01*
X76907030Y-73511848D01*
X76933173Y-73566657D01*
X76964507Y-73632351D01*
X76967784Y-73636912D01*
X76967785Y-73636913D01*
X77071732Y-73781569D01*
X77096851Y-73816526D01*
X77100881Y-73820431D01*
X77255281Y-73970056D01*
X77259717Y-73974355D01*
X77286266Y-73992195D01*
X77443305Y-74097721D01*
X77443310Y-74097724D01*
X77447958Y-74100847D01*
X77453090Y-74103100D01*
X77453094Y-74103102D01*
X77580799Y-74159161D01*
X77655624Y-74192007D01*
X77661082Y-74193317D01*
X77661081Y-74193317D01*
X77870692Y-74243640D01*
X77870698Y-74243641D01*
X77876151Y-74244950D01*
X77989360Y-74251478D01*
X78096963Y-74257683D01*
X78096966Y-74257683D01*
X78102569Y-74258006D01*
X78327719Y-74230759D01*
X78333081Y-74229109D01*
X78333083Y-74229109D01*
X78449427Y-74193317D01*
X78544487Y-74164073D01*
X78645253Y-74112064D01*
X78741036Y-74062626D01*
X78741037Y-74062626D01*
X78746019Y-74060054D01*
X78751020Y-74056217D01*
X78853629Y-73977482D01*
X78925947Y-73921991D01*
X79018359Y-73820431D01*
X79074808Y-73758395D01*
X79074810Y-73758392D01*
X79078581Y-73754248D01*
X79152185Y-73636913D01*
X79196116Y-73566882D01*
X79196118Y-73566878D01*
X79199099Y-73562126D01*
X79216398Y-73519094D01*
X79260364Y-73463351D01*
X79327489Y-73440226D01*
X79396460Y-73457063D01*
X79447030Y-73511848D01*
X79473173Y-73566657D01*
X79504507Y-73632351D01*
X79507784Y-73636912D01*
X79507785Y-73636913D01*
X79611732Y-73781569D01*
X79636851Y-73816526D01*
X79640881Y-73820431D01*
X79795281Y-73970056D01*
X79799717Y-73974355D01*
X79826266Y-73992195D01*
X79983305Y-74097721D01*
X79983310Y-74097724D01*
X79987958Y-74100847D01*
X79993090Y-74103100D01*
X79993094Y-74103102D01*
X80120799Y-74159161D01*
X80195624Y-74192007D01*
X80201082Y-74193317D01*
X80201081Y-74193317D01*
X80410692Y-74243640D01*
X80410698Y-74243641D01*
X80416151Y-74244950D01*
X80529360Y-74251478D01*
X80636963Y-74257683D01*
X80636966Y-74257683D01*
X80642569Y-74258006D01*
X80867719Y-74230759D01*
X80873081Y-74229109D01*
X80873083Y-74229109D01*
X80989427Y-74193317D01*
X81084487Y-74164073D01*
X81185253Y-74112064D01*
X81281036Y-74062626D01*
X81281037Y-74062626D01*
X81286019Y-74060054D01*
X81291020Y-74056217D01*
X81393629Y-73977482D01*
X81465947Y-73921991D01*
X81558359Y-73820431D01*
X81614808Y-73758395D01*
X81614810Y-73758392D01*
X81618581Y-73754248D01*
X81692185Y-73636913D01*
X81736116Y-73566882D01*
X81736118Y-73566878D01*
X81739099Y-73562126D01*
X81756398Y-73519094D01*
X81800364Y-73463351D01*
X81867489Y-73440226D01*
X81936460Y-73457063D01*
X81987030Y-73511848D01*
X82013173Y-73566657D01*
X82044507Y-73632351D01*
X82047784Y-73636912D01*
X82047785Y-73636913D01*
X82151732Y-73781569D01*
X82176851Y-73816526D01*
X82180881Y-73820431D01*
X82335281Y-73970056D01*
X82339717Y-73974355D01*
X82366266Y-73992195D01*
X82523305Y-74097721D01*
X82523310Y-74097724D01*
X82527958Y-74100847D01*
X82533090Y-74103100D01*
X82533094Y-74103102D01*
X82660799Y-74159161D01*
X82735624Y-74192007D01*
X82741082Y-74193317D01*
X82741081Y-74193317D01*
X82950692Y-74243640D01*
X82950698Y-74243641D01*
X82956151Y-74244950D01*
X83069360Y-74251478D01*
X83176963Y-74257683D01*
X83176966Y-74257683D01*
X83182569Y-74258006D01*
X83407719Y-74230759D01*
X83413081Y-74229109D01*
X83413083Y-74229109D01*
X83529427Y-74193317D01*
X83624487Y-74164073D01*
X83725253Y-74112064D01*
X83821036Y-74062626D01*
X83821037Y-74062626D01*
X83826019Y-74060054D01*
X83831020Y-74056217D01*
X83933629Y-73977482D01*
X84005947Y-73921991D01*
X84098359Y-73820431D01*
X84154808Y-73758395D01*
X84154810Y-73758392D01*
X84158581Y-73754248D01*
X84232185Y-73636913D01*
X84276116Y-73566882D01*
X84276118Y-73566878D01*
X84279099Y-73562126D01*
X84296398Y-73519094D01*
X84340364Y-73463351D01*
X84407489Y-73440226D01*
X84476460Y-73457063D01*
X84527030Y-73511848D01*
X84553173Y-73566657D01*
X84584507Y-73632351D01*
X84587784Y-73636912D01*
X84587785Y-73636913D01*
X84691732Y-73781569D01*
X84716851Y-73816526D01*
X84720881Y-73820431D01*
X84875281Y-73970056D01*
X84879717Y-73974355D01*
X84906266Y-73992195D01*
X85063305Y-74097721D01*
X85063310Y-74097724D01*
X85067958Y-74100847D01*
X85073090Y-74103100D01*
X85073094Y-74103102D01*
X85200799Y-74159161D01*
X85275624Y-74192007D01*
X85281082Y-74193317D01*
X85281081Y-74193317D01*
X85490692Y-74243640D01*
X85490698Y-74243641D01*
X85496151Y-74244950D01*
X85609360Y-74251478D01*
X85716963Y-74257683D01*
X85716966Y-74257683D01*
X85722569Y-74258006D01*
X85947719Y-74230759D01*
X85953081Y-74229109D01*
X85953083Y-74229109D01*
X86069427Y-74193317D01*
X86164487Y-74164073D01*
X86265253Y-74112064D01*
X86361036Y-74062626D01*
X86361037Y-74062626D01*
X86366019Y-74060054D01*
X86371020Y-74056217D01*
X86473629Y-73977482D01*
X86545947Y-73921991D01*
X86638359Y-73820431D01*
X86694808Y-73758395D01*
X86694810Y-73758392D01*
X86698581Y-73754248D01*
X86772185Y-73636913D01*
X86816116Y-73566882D01*
X86816118Y-73566878D01*
X86819099Y-73562126D01*
X86836398Y-73519094D01*
X86880364Y-73463351D01*
X86947489Y-73440226D01*
X87016460Y-73457063D01*
X87067030Y-73511848D01*
X87093173Y-73566657D01*
X87124507Y-73632351D01*
X87127784Y-73636912D01*
X87127785Y-73636913D01*
X87231732Y-73781569D01*
X87256851Y-73816526D01*
X87260881Y-73820431D01*
X87415281Y-73970056D01*
X87419717Y-73974355D01*
X87446266Y-73992195D01*
X87603305Y-74097721D01*
X87603310Y-74097724D01*
X87607958Y-74100847D01*
X87613090Y-74103100D01*
X87613094Y-74103102D01*
X87740799Y-74159161D01*
X87815624Y-74192007D01*
X87821082Y-74193317D01*
X87821081Y-74193317D01*
X88030692Y-74243640D01*
X88030698Y-74243641D01*
X88036151Y-74244950D01*
X88149360Y-74251478D01*
X88256963Y-74257683D01*
X88256966Y-74257683D01*
X88262569Y-74258006D01*
X88487719Y-74230759D01*
X88493081Y-74229109D01*
X88493083Y-74229109D01*
X88609427Y-74193317D01*
X88704487Y-74164073D01*
X88805253Y-74112064D01*
X88901036Y-74062626D01*
X88901037Y-74062626D01*
X88906019Y-74060054D01*
X88911020Y-74056217D01*
X89013629Y-73977482D01*
X89085947Y-73921991D01*
X89178359Y-73820431D01*
X89234808Y-73758395D01*
X89234810Y-73758392D01*
X89238581Y-73754248D01*
X89312185Y-73636913D01*
X89356116Y-73566882D01*
X89356118Y-73566878D01*
X89359099Y-73562126D01*
X89376398Y-73519094D01*
X89420364Y-73463351D01*
X89487489Y-73440226D01*
X89556460Y-73457063D01*
X89607030Y-73511848D01*
X89633173Y-73566657D01*
X89664507Y-73632351D01*
X89667784Y-73636912D01*
X89667785Y-73636913D01*
X89771732Y-73781569D01*
X89796851Y-73816526D01*
X89800881Y-73820431D01*
X89955281Y-73970056D01*
X89959717Y-73974355D01*
X89986266Y-73992195D01*
X90143305Y-74097721D01*
X90143310Y-74097724D01*
X90147958Y-74100847D01*
X90153090Y-74103100D01*
X90153094Y-74103102D01*
X90280799Y-74159161D01*
X90355624Y-74192007D01*
X90361082Y-74193317D01*
X90361081Y-74193317D01*
X90570692Y-74243640D01*
X90570698Y-74243641D01*
X90576151Y-74244950D01*
X90689360Y-74251478D01*
X90796963Y-74257683D01*
X90796966Y-74257683D01*
X90802569Y-74258006D01*
X91027719Y-74230759D01*
X91033081Y-74229109D01*
X91033083Y-74229109D01*
X91149427Y-74193317D01*
X91244487Y-74164073D01*
X91345253Y-74112064D01*
X91441036Y-74062626D01*
X91441037Y-74062626D01*
X91446019Y-74060054D01*
X91451020Y-74056217D01*
X91553629Y-73977482D01*
X91625947Y-73921991D01*
X91718359Y-73820431D01*
X91774808Y-73758395D01*
X91774810Y-73758392D01*
X91778581Y-73754248D01*
X91852185Y-73636913D01*
X91896116Y-73566882D01*
X91896118Y-73566878D01*
X91899099Y-73562126D01*
X91983690Y-73351699D01*
X92029681Y-73129618D01*
X92033000Y-73072056D01*
X92033000Y-72449465D01*
X92017974Y-72281105D01*
X91958130Y-72062349D01*
X91944102Y-72032937D01*
X91862910Y-71862716D01*
X91862909Y-71862715D01*
X91860493Y-71857649D01*
X91728149Y-71673474D01*
X91623974Y-71572521D01*
X91569311Y-71519548D01*
X91569308Y-71519546D01*
X91565283Y-71515645D01*
X91437749Y-71429946D01*
X91381695Y-71392279D01*
X91381690Y-71392276D01*
X91377042Y-71389153D01*
X91371910Y-71386900D01*
X91371906Y-71386898D01*
X91233011Y-71325927D01*
X91169376Y-71297993D01*
X91135622Y-71289890D01*
X90954308Y-71246360D01*
X90954302Y-71246359D01*
X90948849Y-71245050D01*
X90835640Y-71238522D01*
X90728037Y-71232317D01*
X90728034Y-71232317D01*
X90722431Y-71231994D01*
X90497281Y-71259241D01*
X90491919Y-71260891D01*
X90491917Y-71260891D01*
X90472908Y-71266739D01*
X90280513Y-71325927D01*
X90275529Y-71328499D01*
X90275530Y-71328499D01*
X90162385Y-71386898D01*
X90078981Y-71429946D01*
X90074533Y-71433359D01*
X90062826Y-71442342D01*
X89899053Y-71568009D01*
X89816394Y-71658850D01*
X89806340Y-71669900D01*
X89746419Y-71735752D01*
X89743438Y-71740503D01*
X89743438Y-71740504D01*
X89666775Y-71862716D01*
X89625901Y-71927874D01*
X89623715Y-71933313D01*
X89608603Y-71970905D01*
X89564636Y-72026649D01*
X89497511Y-72049774D01*
X89428540Y-72032937D01*
X89377970Y-71978152D01*
X89322910Y-71862716D01*
X89322909Y-71862715D01*
X89320493Y-71857649D01*
X89188149Y-71673474D01*
X89083974Y-71572521D01*
X89029311Y-71519548D01*
X89029308Y-71519546D01*
X89025283Y-71515645D01*
X88897749Y-71429946D01*
X88841695Y-71392279D01*
X88841690Y-71392276D01*
X88837042Y-71389153D01*
X88831910Y-71386900D01*
X88831906Y-71386898D01*
X88693011Y-71325927D01*
X88629376Y-71297993D01*
X88595622Y-71289890D01*
X88414308Y-71246360D01*
X88414302Y-71246359D01*
X88408849Y-71245050D01*
X88295640Y-71238522D01*
X88188037Y-71232317D01*
X88188034Y-71232317D01*
X88182431Y-71231994D01*
X87957281Y-71259241D01*
X87951919Y-71260891D01*
X87951917Y-71260891D01*
X87932908Y-71266739D01*
X87740513Y-71325927D01*
X87735529Y-71328499D01*
X87735530Y-71328499D01*
X87622385Y-71386898D01*
X87538981Y-71429946D01*
X87534533Y-71433359D01*
X87522826Y-71442342D01*
X87359053Y-71568009D01*
X87276394Y-71658850D01*
X87266340Y-71669900D01*
X87206419Y-71735752D01*
X87203438Y-71740503D01*
X87203438Y-71740504D01*
X87126775Y-71862716D01*
X87085901Y-71927874D01*
X87083715Y-71933313D01*
X87068603Y-71970905D01*
X87024636Y-72026649D01*
X86957511Y-72049774D01*
X86888540Y-72032937D01*
X86837970Y-71978152D01*
X86782910Y-71862716D01*
X86782909Y-71862715D01*
X86780493Y-71857649D01*
X86648149Y-71673474D01*
X86543974Y-71572521D01*
X86489311Y-71519548D01*
X86489308Y-71519546D01*
X86485283Y-71515645D01*
X86357749Y-71429946D01*
X86301695Y-71392279D01*
X86301690Y-71392276D01*
X86297042Y-71389153D01*
X86291910Y-71386900D01*
X86291906Y-71386898D01*
X86153011Y-71325927D01*
X86089376Y-71297993D01*
X86055622Y-71289890D01*
X85874308Y-71246360D01*
X85874302Y-71246359D01*
X85868849Y-71245050D01*
X85755640Y-71238522D01*
X85648037Y-71232317D01*
X85648034Y-71232317D01*
X85642431Y-71231994D01*
X85417281Y-71259241D01*
X85411919Y-71260891D01*
X85411917Y-71260891D01*
X85392908Y-71266739D01*
X85200513Y-71325927D01*
X85195529Y-71328499D01*
X85195530Y-71328499D01*
X85082385Y-71386898D01*
X84998981Y-71429946D01*
X84994533Y-71433359D01*
X84982826Y-71442342D01*
X84819053Y-71568009D01*
X84736394Y-71658850D01*
X84726340Y-71669900D01*
X84666419Y-71735752D01*
X84663438Y-71740503D01*
X84663438Y-71740504D01*
X84586775Y-71862716D01*
X84545901Y-71927874D01*
X84543715Y-71933313D01*
X84528603Y-71970905D01*
X84484636Y-72026649D01*
X84417511Y-72049774D01*
X84348540Y-72032937D01*
X84297970Y-71978152D01*
X84242910Y-71862716D01*
X84242909Y-71862715D01*
X84240493Y-71857649D01*
X84108149Y-71673474D01*
X84003974Y-71572521D01*
X83949311Y-71519548D01*
X83949308Y-71519546D01*
X83945283Y-71515645D01*
X83817749Y-71429946D01*
X83761695Y-71392279D01*
X83761690Y-71392276D01*
X83757042Y-71389153D01*
X83751910Y-71386900D01*
X83751906Y-71386898D01*
X83613011Y-71325927D01*
X83549376Y-71297993D01*
X83515622Y-71289890D01*
X83334308Y-71246360D01*
X83334302Y-71246359D01*
X83328849Y-71245050D01*
X83215640Y-71238522D01*
X83108037Y-71232317D01*
X83108034Y-71232317D01*
X83102431Y-71231994D01*
X82877281Y-71259241D01*
X82871919Y-71260891D01*
X82871917Y-71260891D01*
X82852908Y-71266739D01*
X82660513Y-71325927D01*
X82655529Y-71328499D01*
X82655530Y-71328499D01*
X82542385Y-71386898D01*
X82458981Y-71429946D01*
X82454533Y-71433359D01*
X82442826Y-71442342D01*
X82279053Y-71568009D01*
X82196394Y-71658850D01*
X82186340Y-71669900D01*
X82126419Y-71735752D01*
X82123438Y-71740503D01*
X82123438Y-71740504D01*
X82046775Y-71862716D01*
X82005901Y-71927874D01*
X82003715Y-71933313D01*
X81988603Y-71970905D01*
X81944636Y-72026649D01*
X81877511Y-72049774D01*
X81808540Y-72032937D01*
X81757970Y-71978152D01*
X81702910Y-71862716D01*
X81702909Y-71862715D01*
X81700493Y-71857649D01*
X81568149Y-71673474D01*
X81463974Y-71572521D01*
X81409311Y-71519548D01*
X81409308Y-71519546D01*
X81405283Y-71515645D01*
X81277749Y-71429946D01*
X81221695Y-71392279D01*
X81221690Y-71392276D01*
X81217042Y-71389153D01*
X81211910Y-71386900D01*
X81211906Y-71386898D01*
X81073011Y-71325927D01*
X81009376Y-71297993D01*
X80975622Y-71289890D01*
X80794308Y-71246360D01*
X80794302Y-71246359D01*
X80788849Y-71245050D01*
X80675640Y-71238522D01*
X80568037Y-71232317D01*
X80568034Y-71232317D01*
X80562431Y-71231994D01*
X80337281Y-71259241D01*
X80331919Y-71260891D01*
X80331917Y-71260891D01*
X80312908Y-71266739D01*
X80120513Y-71325927D01*
X80115529Y-71328499D01*
X80115530Y-71328499D01*
X80002385Y-71386898D01*
X79918981Y-71429946D01*
X79914533Y-71433359D01*
X79902826Y-71442342D01*
X79739053Y-71568009D01*
X79656394Y-71658850D01*
X79646340Y-71669900D01*
X79586419Y-71735752D01*
X79583438Y-71740503D01*
X79583438Y-71740504D01*
X79506775Y-71862716D01*
X79465901Y-71927874D01*
X79463715Y-71933313D01*
X79448603Y-71970905D01*
X79404636Y-72026649D01*
X79337511Y-72049774D01*
X79268540Y-72032937D01*
X79217970Y-71978152D01*
X79162910Y-71862716D01*
X79162909Y-71862715D01*
X79160493Y-71857649D01*
X79028149Y-71673474D01*
X78923974Y-71572521D01*
X78869311Y-71519548D01*
X78869308Y-71519546D01*
X78865283Y-71515645D01*
X78737749Y-71429946D01*
X78681695Y-71392279D01*
X78681690Y-71392276D01*
X78677042Y-71389153D01*
X78671910Y-71386900D01*
X78671906Y-71386898D01*
X78533011Y-71325927D01*
X78469376Y-71297993D01*
X78435622Y-71289890D01*
X78254308Y-71246360D01*
X78254302Y-71246359D01*
X78248849Y-71245050D01*
X78135640Y-71238522D01*
X78028037Y-71232317D01*
X78028034Y-71232317D01*
X78022431Y-71231994D01*
X77797281Y-71259241D01*
X77791919Y-71260891D01*
X77791917Y-71260891D01*
X77772908Y-71266739D01*
X77580513Y-71325927D01*
X77575529Y-71328499D01*
X77575530Y-71328499D01*
X77462385Y-71386898D01*
X77378981Y-71429946D01*
X77374533Y-71433359D01*
X77362826Y-71442342D01*
X77199053Y-71568009D01*
X77116394Y-71658850D01*
X77106340Y-71669900D01*
X77046419Y-71735752D01*
X77043438Y-71740503D01*
X77043438Y-71740504D01*
X76966775Y-71862716D01*
X76925901Y-71927874D01*
X76923715Y-71933313D01*
X76908603Y-71970905D01*
X76864636Y-72026649D01*
X76797511Y-72049774D01*
X76728540Y-72032937D01*
X76677970Y-71978152D01*
X76622910Y-71862716D01*
X76622909Y-71862715D01*
X76620493Y-71857649D01*
X76488149Y-71673474D01*
X76383974Y-71572521D01*
X76329311Y-71519548D01*
X76329308Y-71519546D01*
X76325283Y-71515645D01*
X76197749Y-71429946D01*
X76141695Y-71392279D01*
X76141690Y-71392276D01*
X76137042Y-71389153D01*
X76131910Y-71386900D01*
X76131906Y-71386898D01*
X75993011Y-71325927D01*
X75929376Y-71297993D01*
X75895622Y-71289890D01*
X75714308Y-71246360D01*
X75714302Y-71246359D01*
X75708849Y-71245050D01*
X75595640Y-71238522D01*
X75488037Y-71232317D01*
X75488034Y-71232317D01*
X75482431Y-71231994D01*
X75257281Y-71259241D01*
X75251919Y-71260891D01*
X75251917Y-71260891D01*
X75232908Y-71266739D01*
X75040513Y-71325927D01*
X75035529Y-71328499D01*
X75035530Y-71328499D01*
X74922385Y-71386898D01*
X74838981Y-71429946D01*
X74834533Y-71433359D01*
X74822826Y-71442342D01*
X74659053Y-71568009D01*
X74576394Y-71658850D01*
X74566340Y-71669900D01*
X74506419Y-71735752D01*
X74503438Y-71740503D01*
X74503438Y-71740504D01*
X74426775Y-71862716D01*
X74385901Y-71927874D01*
X74383715Y-71933313D01*
X74368603Y-71970905D01*
X74324636Y-72026649D01*
X74257511Y-72049774D01*
X74188540Y-72032937D01*
X74137970Y-71978152D01*
X74082910Y-71862716D01*
X74082909Y-71862715D01*
X74080493Y-71857649D01*
X73948149Y-71673474D01*
X73843974Y-71572521D01*
X73789311Y-71519548D01*
X73789308Y-71519546D01*
X73785283Y-71515645D01*
X73657749Y-71429946D01*
X73601695Y-71392279D01*
X73601690Y-71392276D01*
X73597042Y-71389153D01*
X73591910Y-71386900D01*
X73591906Y-71386898D01*
X73453011Y-71325927D01*
X73389376Y-71297993D01*
X73355622Y-71289890D01*
X73174308Y-71246360D01*
X73174302Y-71246359D01*
X73168849Y-71245050D01*
X73055640Y-71238522D01*
X72948037Y-71232317D01*
X72948034Y-71232317D01*
X72942431Y-71231994D01*
X72717281Y-71259241D01*
X72711919Y-71260891D01*
X72711917Y-71260891D01*
X72692908Y-71266739D01*
X72500513Y-71325927D01*
X72495529Y-71328499D01*
X72495530Y-71328499D01*
X72382385Y-71386898D01*
X72298981Y-71429946D01*
X72294533Y-71433359D01*
X72282826Y-71442342D01*
X72119053Y-71568009D01*
X72036394Y-71658850D01*
X72026340Y-71669900D01*
X71966419Y-71735752D01*
X71963438Y-71740503D01*
X71963438Y-71740504D01*
X71886775Y-71862716D01*
X71845901Y-71927874D01*
X71843715Y-71933313D01*
X71828603Y-71970905D01*
X71784636Y-72026649D01*
X71717511Y-72049774D01*
X71648540Y-72032937D01*
X71597970Y-71978152D01*
X71542910Y-71862716D01*
X71542909Y-71862715D01*
X71540493Y-71857649D01*
X71408149Y-71673474D01*
X71303974Y-71572521D01*
X71249311Y-71519548D01*
X71249308Y-71519546D01*
X71245283Y-71515645D01*
X71117749Y-71429946D01*
X71061695Y-71392279D01*
X71061690Y-71392276D01*
X71057042Y-71389153D01*
X71051910Y-71386900D01*
X71051906Y-71386898D01*
X70913011Y-71325927D01*
X70849376Y-71297993D01*
X70815622Y-71289890D01*
X70634308Y-71246360D01*
X70634302Y-71246359D01*
X70628849Y-71245050D01*
X70515640Y-71238522D01*
X70408037Y-71232317D01*
X70408034Y-71232317D01*
X70402431Y-71231994D01*
X70177281Y-71259241D01*
X70171919Y-71260891D01*
X70171917Y-71260891D01*
X70152908Y-71266739D01*
X69960513Y-71325927D01*
X69955529Y-71328499D01*
X69955530Y-71328499D01*
X69842385Y-71386898D01*
X69758981Y-71429946D01*
X69754533Y-71433359D01*
X69742826Y-71442342D01*
X69579053Y-71568009D01*
X69496394Y-71658850D01*
X69486340Y-71669900D01*
X69426419Y-71735752D01*
X69423438Y-71740503D01*
X69423438Y-71740504D01*
X69346775Y-71862716D01*
X69305901Y-71927874D01*
X69288349Y-71971537D01*
X69244384Y-72027279D01*
X69177259Y-72050404D01*
X69108288Y-72033567D01*
X69057717Y-71978783D01*
X69002472Y-71862959D01*
X68996790Y-71853352D01*
X68871041Y-71678356D01*
X68863742Y-71669900D01*
X68709000Y-71519944D01*
X68700303Y-71512902D01*
X68521460Y-71392724D01*
X68511657Y-71387335D01*
X68314357Y-71300726D01*
X68303762Y-71297160D01*
X68174115Y-71266034D01*
X68160030Y-71266739D01*
X68156500Y-71275618D01*
X68156500Y-74213498D01*
X67648500Y-74213498D01*
X67648500Y-73017115D01*
X67644025Y-73001876D01*
X67642635Y-73000671D01*
X67634952Y-72999000D01*
X66650615Y-72999000D01*
X66635376Y-73003475D01*
X66634171Y-73004865D01*
X66632500Y-73012548D01*
X66632500Y-73037711D01*
X58758500Y-73037711D01*
X58758500Y-72472885D01*
X66632500Y-72472885D01*
X66636975Y-72488124D01*
X66638365Y-72489329D01*
X66646048Y-72491000D01*
X67630385Y-72491000D01*
X67645624Y-72486525D01*
X67646829Y-72485135D01*
X67648500Y-72477452D01*
X67648500Y-71276502D01*
X67644394Y-71262520D01*
X67634148Y-71260930D01*
X67632025Y-71261381D01*
X67426065Y-71324743D01*
X67415720Y-71328964D01*
X67224233Y-71427798D01*
X67214802Y-71433783D01*
X67043837Y-71564968D01*
X67035624Y-71572521D01*
X66890591Y-71731910D01*
X66883836Y-71740810D01*
X66769334Y-71923343D01*
X66764253Y-71933313D01*
X66683883Y-72133240D01*
X66680652Y-72143940D01*
X66636755Y-72355916D01*
X66635552Y-72365053D01*
X66632605Y-72416160D01*
X66632500Y-72419806D01*
X66632500Y-72472885D01*
X58758500Y-72472885D01*
X58758500Y-70884500D01*
X58778502Y-70816379D01*
X58832158Y-70769886D01*
X58884500Y-70758500D01*
X145365500Y-70758500D01*
X145433621Y-70778502D01*
G37*
%TD.AperFunction*%
M02*
