%TF.GenerationSoftware,KiCad,Pcbnew,(6.0.9)*%
%TF.CreationDate,2023-01-04T20:05:15-05:00*%
%TF.ProjectId,Hardware-TinyPicoLoRaTrailer,48617264-7761-4726-952d-54696e795069,rev?*%
%TF.SameCoordinates,Original*%
%TF.FileFunction,Paste,Top*%
%TF.FilePolarity,Positive*%
%FSLAX46Y46*%
G04 Gerber Fmt 4.6, Leading zero omitted, Abs format (unit mm)*
G04 Created by KiCad (PCBNEW (6.0.9)) date 2023-01-04 20:05:15*
%MOMM*%
%LPD*%
G01*
G04 APERTURE LIST*
G04 Aperture macros list*
%AMRoundRect*
0 Rectangle with rounded corners*
0 $1 Rounding radius*
0 $2 $3 $4 $5 $6 $7 $8 $9 X,Y pos of 4 corners*
0 Add a 4 corners polygon primitive as box body*
4,1,4,$2,$3,$4,$5,$6,$7,$8,$9,$2,$3,0*
0 Add four circle primitives for the rounded corners*
1,1,$1+$1,$2,$3*
1,1,$1+$1,$4,$5*
1,1,$1+$1,$6,$7*
1,1,$1+$1,$8,$9*
0 Add four rect primitives between the rounded corners*
20,1,$1+$1,$2,$3,$4,$5,0*
20,1,$1+$1,$4,$5,$6,$7,0*
20,1,$1+$1,$6,$7,$8,$9,0*
20,1,$1+$1,$8,$9,$2,$3,0*%
G04 Aperture macros list end*
%ADD10R,2.200000X1.050000*%
%ADD11R,1.050000X1.000000*%
%ADD12RoundRect,0.150000X-0.587500X-0.150000X0.587500X-0.150000X0.587500X0.150000X-0.587500X0.150000X0*%
%ADD13RoundRect,0.250000X0.425000X-0.537500X0.425000X0.537500X-0.425000X0.537500X-0.425000X-0.537500X0*%
%ADD14RoundRect,0.250000X-0.625000X0.400000X-0.625000X-0.400000X0.625000X-0.400000X0.625000X0.400000X0*%
%ADD15RoundRect,0.250000X-0.650000X0.412500X-0.650000X-0.412500X0.650000X-0.412500X0.650000X0.412500X0*%
%ADD16RoundRect,0.250000X-0.400000X-0.625000X0.400000X-0.625000X0.400000X0.625000X-0.400000X0.625000X0*%
%ADD17RoundRect,0.250000X-0.412500X-0.650000X0.412500X-0.650000X0.412500X0.650000X-0.412500X0.650000X0*%
%ADD18RoundRect,0.250000X0.412500X0.650000X-0.412500X0.650000X-0.412500X-0.650000X0.412500X-0.650000X0*%
%ADD19R,3.500000X1.800000*%
%ADD20RoundRect,0.075000X-0.075000X0.650000X-0.075000X-0.650000X0.075000X-0.650000X0.075000X0.650000X0*%
%ADD21RoundRect,0.250000X0.537500X0.425000X-0.537500X0.425000X-0.537500X-0.425000X0.537500X-0.425000X0*%
%ADD22R,2.000000X1.000000*%
%ADD23RoundRect,0.250000X0.400000X0.625000X-0.400000X0.625000X-0.400000X-0.625000X0.400000X-0.625000X0*%
%ADD24RoundRect,0.250000X0.625000X-0.400000X0.625000X0.400000X-0.625000X0.400000X-0.625000X-0.400000X0*%
%ADD25RoundRect,0.150000X0.587500X0.150000X-0.587500X0.150000X-0.587500X-0.150000X0.587500X-0.150000X0*%
%ADD26R,1.560000X0.650000*%
G04 APERTURE END LIST*
D10*
X120250000Y-88475000D03*
X120250000Y-85525000D03*
D11*
X118750000Y-87000000D03*
D12*
X82875000Y-93050000D03*
X82875000Y-94950000D03*
X84750000Y-94000000D03*
D13*
X115750000Y-76687500D03*
X115750000Y-73812500D03*
D14*
X73062500Y-82250000D03*
X73062500Y-85350000D03*
D15*
X115750000Y-78937500D03*
X115750000Y-82062500D03*
D16*
X82762500Y-90865000D03*
X85862500Y-90865000D03*
D17*
X81250000Y-85000000D03*
X84375000Y-85000000D03*
D18*
X87375000Y-106928750D03*
X90500000Y-106928750D03*
D19*
X118250000Y-95500000D03*
X123250000Y-95500000D03*
D20*
X81562500Y-102800000D03*
X81062500Y-102800000D03*
X80562500Y-102800000D03*
X80062500Y-102800000D03*
X79562500Y-102800000D03*
X79562500Y-107200000D03*
X80062500Y-107200000D03*
X80562500Y-107200000D03*
X81062500Y-107200000D03*
X81562500Y-107200000D03*
D21*
X87517500Y-104678750D03*
X90392500Y-104678750D03*
D22*
X97250000Y-72500000D03*
X97250000Y-74500000D03*
X97250000Y-76500000D03*
X97250000Y-78500000D03*
X97250000Y-80500000D03*
X97250000Y-82500000D03*
X97250000Y-84500000D03*
X97250000Y-86500000D03*
X113250000Y-86500000D03*
X113250000Y-84500000D03*
X113250000Y-82500000D03*
X113250000Y-80500000D03*
X113250000Y-78500000D03*
X113250000Y-76500000D03*
X113250000Y-74500000D03*
X113250000Y-72500000D03*
D18*
X77812500Y-107000000D03*
X74687500Y-107000000D03*
D14*
X75562500Y-82200000D03*
X75562500Y-85300000D03*
X70562500Y-82250000D03*
X70562500Y-85350000D03*
D23*
X89662500Y-81750000D03*
X86562500Y-81750000D03*
D20*
X94312500Y-107200000D03*
X93812500Y-107200000D03*
X93312500Y-107200000D03*
X92812500Y-107200000D03*
X92312500Y-107200000D03*
X92312500Y-102800000D03*
X92812500Y-102800000D03*
X93312500Y-102800000D03*
X93812500Y-102800000D03*
X94312500Y-102800000D03*
D17*
X86500000Y-84250000D03*
X89625000Y-84250000D03*
D24*
X80562500Y-78350000D03*
X80562500Y-75250000D03*
X78062500Y-78350000D03*
X78062500Y-75250000D03*
D16*
X86512500Y-79250000D03*
X89612500Y-79250000D03*
D25*
X87125000Y-94000000D03*
X89000000Y-93050000D03*
X89000000Y-94950000D03*
D14*
X78062500Y-90700000D03*
X78062500Y-93800000D03*
D26*
X84412500Y-82700000D03*
X84412500Y-81750000D03*
X84412500Y-80800000D03*
X81712500Y-80800000D03*
X81712500Y-82700000D03*
D21*
X77562500Y-104750000D03*
X74687500Y-104750000D03*
D14*
X80562500Y-90700000D03*
X80562500Y-93800000D03*
D21*
X62375000Y-104750000D03*
X65250000Y-104750000D03*
D20*
X69250000Y-102800000D03*
X68750000Y-102800000D03*
X68250000Y-102800000D03*
X67750000Y-102800000D03*
X67250000Y-102800000D03*
X67250000Y-107200000D03*
X67750000Y-107200000D03*
X68250000Y-107200000D03*
X68750000Y-107200000D03*
X69250000Y-107200000D03*
D18*
X62375000Y-107000000D03*
X65500000Y-107000000D03*
M02*
