%TF.GenerationSoftware,KiCad,Pcbnew,(6.0.9)*%
%TF.CreationDate,2023-01-04T20:05:15-05:00*%
%TF.ProjectId,Hardware-TinyPicoLoRaTrailer,48617264-7761-4726-952d-54696e795069,rev?*%
%TF.SameCoordinates,Original*%
%TF.FileFunction,Soldermask,Bot*%
%TF.FilePolarity,Negative*%
%FSLAX46Y46*%
G04 Gerber Fmt 4.6, Leading zero omitted, Abs format (unit mm)*
G04 Created by KiCad (PCBNEW (6.0.9)) date 2023-01-04 20:05:15*
%MOMM*%
%LPD*%
G01*
G04 APERTURE LIST*
%ADD10R,2.600000X2.600000*%
%ADD11C,2.600000*%
%ADD12O,1.524000X2.000000*%
%ADD13C,3.000000*%
%ADD14C,2.500000*%
%ADD15R,1.000000X1.000000*%
G04 APERTURE END LIST*
D10*
X136705000Y-126805000D03*
D11*
X141785000Y-126805000D03*
D12*
X67902500Y-87985000D03*
X70442500Y-87985000D03*
X72982500Y-87985000D03*
X75522500Y-87985000D03*
X78062500Y-87985000D03*
X80602500Y-87985000D03*
X83142500Y-87985000D03*
X85682500Y-87985000D03*
X88222500Y-87985000D03*
X90762500Y-87985000D03*
X90762500Y-72745000D03*
X88222500Y-72745000D03*
X85682500Y-72745000D03*
X83142500Y-72745000D03*
X80602500Y-72745000D03*
X78062500Y-72745000D03*
X75522500Y-72745000D03*
X72982500Y-72745000D03*
X70442500Y-72745000D03*
X67902500Y-72745000D03*
D10*
X121205000Y-126805000D03*
D11*
X126285000Y-126805000D03*
D10*
X137500000Y-90250000D03*
D11*
X137500000Y-85170000D03*
X137500000Y-80090000D03*
X137500000Y-75010000D03*
D10*
X105705000Y-126805000D03*
D11*
X110785000Y-126805000D03*
D13*
X120500000Y-99000000D03*
D14*
X114450000Y-100950000D03*
D13*
X114450000Y-113150000D03*
X126500000Y-113200000D03*
D14*
X126450000Y-100950000D03*
D15*
X116250000Y-87000000D03*
D10*
X76205000Y-126805000D03*
D11*
X81285000Y-126805000D03*
D10*
X89000000Y-126750000D03*
D11*
X94080000Y-126750000D03*
D15*
X116250000Y-84500000D03*
D10*
X63455000Y-126555000D03*
D11*
X68535000Y-126555000D03*
M02*
