%TF.GenerationSoftware,KiCad,Pcbnew,(6.0.9)*%
%TF.CreationDate,2023-01-04T20:05:15-05:00*%
%TF.ProjectId,Hardware-TinyPicoLoRaTrailer,48617264-7761-4726-952d-54696e795069,rev?*%
%TF.SameCoordinates,Original*%
%TF.FileFunction,Copper,L4,Bot*%
%TF.FilePolarity,Positive*%
%FSLAX46Y46*%
G04 Gerber Fmt 4.6, Leading zero omitted, Abs format (unit mm)*
G04 Created by KiCad (PCBNEW (6.0.9)) date 2023-01-04 20:05:15*
%MOMM*%
%LPD*%
G01*
G04 APERTURE LIST*
%TA.AperFunction,ComponentPad*%
%ADD10R,2.600000X2.600000*%
%TD*%
%TA.AperFunction,ComponentPad*%
%ADD11C,2.600000*%
%TD*%
%TA.AperFunction,ComponentPad*%
%ADD12O,1.524000X2.000000*%
%TD*%
%TA.AperFunction,ComponentPad*%
%ADD13C,3.000000*%
%TD*%
%TA.AperFunction,ComponentPad*%
%ADD14C,2.500000*%
%TD*%
%TA.AperFunction,ComponentPad*%
%ADD15R,1.000000X1.000000*%
%TD*%
%TA.AperFunction,ViaPad*%
%ADD16C,0.800000*%
%TD*%
%TA.AperFunction,Conductor*%
%ADD17C,0.250000*%
%TD*%
%TA.AperFunction,Conductor*%
%ADD18C,0.400000*%
%TD*%
%TA.AperFunction,Conductor*%
%ADD19C,1.500000*%
%TD*%
G04 APERTURE END LIST*
D10*
X136705000Y-126805000D03*
D11*
X141785000Y-126805000D03*
D12*
X67902500Y-87985000D03*
X70442500Y-87985000D03*
X72982500Y-87985000D03*
X75522500Y-87985000D03*
X78062500Y-87985000D03*
X80602500Y-87985000D03*
X83142500Y-87985000D03*
X85682500Y-87985000D03*
X88222500Y-87985000D03*
X90762500Y-87985000D03*
X90762500Y-72745000D03*
X88222500Y-72745000D03*
X85682500Y-72745000D03*
X83142500Y-72745000D03*
X80602500Y-72745000D03*
X78062500Y-72745000D03*
X75522500Y-72745000D03*
X72982500Y-72745000D03*
X70442500Y-72745000D03*
X67902500Y-72745000D03*
D10*
X121205000Y-126805000D03*
D11*
X126285000Y-126805000D03*
D10*
X137500000Y-90250000D03*
D11*
X137500000Y-85170000D03*
X137500000Y-80090000D03*
X137500000Y-75010000D03*
D10*
X105705000Y-126805000D03*
D11*
X110785000Y-126805000D03*
D13*
X120500000Y-99000000D03*
D14*
X114450000Y-100950000D03*
D13*
X114450000Y-113150000D03*
X126500000Y-113200000D03*
D14*
X126450000Y-100950000D03*
D15*
X116250000Y-87000000D03*
D10*
X76205000Y-126805000D03*
D11*
X81285000Y-126805000D03*
D10*
X89000000Y-126750000D03*
D11*
X94080000Y-126750000D03*
D15*
X116250000Y-84500000D03*
D10*
X63455000Y-126555000D03*
D11*
X68535000Y-126555000D03*
D16*
X75000000Y-75250000D03*
X71500000Y-74750000D03*
X90250000Y-101750000D03*
X77500000Y-101750000D03*
X66500000Y-101250000D03*
X89500000Y-105750000D03*
X76750000Y-106000000D03*
X82750000Y-103500000D03*
X70500000Y-103500000D03*
X64500000Y-106000000D03*
X117250000Y-78000000D03*
X122000000Y-88000000D03*
X67500352Y-108750000D03*
X92500000Y-108750000D03*
X94250000Y-101500000D03*
X61250000Y-107000000D03*
X61000000Y-104750000D03*
X73500000Y-107000000D03*
X73250000Y-104750000D03*
X86250000Y-107000000D03*
X86250000Y-104750000D03*
X79750000Y-108750000D03*
X81500000Y-101250000D03*
X82750000Y-95750000D03*
X80500000Y-91750000D03*
X85000000Y-80000000D03*
X85500000Y-86000000D03*
X90750000Y-84250000D03*
X115750000Y-72500000D03*
X122000000Y-85500000D03*
X117250000Y-82000000D03*
X111750000Y-84500000D03*
X98750000Y-86500000D03*
X98750000Y-72500000D03*
X111750000Y-76500000D03*
X110750000Y-77500000D03*
X94750000Y-81500000D03*
X95750000Y-82500000D03*
X93750000Y-93000000D03*
X94750000Y-93000000D03*
X76312500Y-75250000D03*
X67750000Y-100500000D03*
X78750000Y-100500000D03*
X66500000Y-102750000D03*
X78750000Y-102750000D03*
X91500000Y-102750000D03*
X72312500Y-76237701D03*
X91250000Y-100500000D03*
D17*
X67750000Y-100500000D02*
X67750000Y-99250000D01*
X67750000Y-99250000D02*
X64250000Y-95750000D01*
X69000000Y-100500000D02*
X67750000Y-99250000D01*
X64250000Y-84250000D02*
X70250000Y-78250000D01*
X64250000Y-95750000D02*
X64250000Y-84250000D01*
X91250000Y-100500000D02*
X69000000Y-100500000D01*
X70250000Y-78250000D02*
X73312500Y-78250000D01*
X73312500Y-78250000D02*
X76312500Y-75250000D01*
X61750000Y-83000000D02*
X61750000Y-98000000D01*
X68512299Y-76237701D02*
X61750000Y-83000000D01*
X72312500Y-76237701D02*
X68512299Y-76237701D01*
X61750000Y-98000000D02*
X66500000Y-102750000D01*
X84725000Y-105475000D02*
X85025000Y-105475000D01*
X77275000Y-105475000D02*
X85025000Y-105475000D01*
X85025000Y-105475000D02*
X89775000Y-105475000D01*
X82750000Y-103500000D02*
X84725000Y-105475000D01*
X89500000Y-105750000D02*
X89775000Y-105475000D01*
X89775000Y-105475000D02*
X93525000Y-105475000D01*
X76750000Y-106000000D02*
X77275000Y-105475000D01*
X71475000Y-105475000D02*
X77275000Y-105475000D01*
X70500000Y-104500000D02*
X71475000Y-105475000D01*
X70500000Y-103500000D02*
X70500000Y-104500000D01*
X65025000Y-105475000D02*
X71475000Y-105475000D01*
X83475000Y-88317500D02*
X83142500Y-87985000D01*
X83567500Y-88317500D02*
X83475000Y-88317500D01*
X93525000Y-98275000D02*
X83567500Y-88317500D01*
X64500000Y-106000000D02*
X65025000Y-105475000D01*
X93525000Y-105475000D02*
X93525000Y-98275000D01*
D18*
X86200000Y-83300000D02*
X83142500Y-86357500D01*
X111950000Y-83300000D02*
X86200000Y-83300000D01*
X117250000Y-78000000D02*
X111950000Y-83300000D01*
X83142500Y-86357500D02*
X83142500Y-87985000D01*
D17*
X74727500Y-71000000D02*
X72982500Y-72745000D01*
X106250000Y-71000000D02*
X74727500Y-71000000D01*
X111750000Y-76500000D02*
X106250000Y-71000000D01*
X76287250Y-72745000D02*
X75522500Y-72745000D01*
X95750000Y-82500000D02*
X86042250Y-82500000D01*
X86042250Y-82500000D02*
X76287250Y-72745000D01*
D19*
X85682500Y-88104134D02*
X85682500Y-87985000D01*
X87828366Y-90250000D02*
X85682500Y-88104134D01*
X137500000Y-90250000D02*
X87828366Y-90250000D01*
D17*
X94750000Y-93000000D02*
X105705000Y-103955000D01*
X105705000Y-103955000D02*
X105705000Y-126805000D01*
X91500000Y-102750000D02*
X66500000Y-102750000D01*
M02*
